<svg version="1.1" viewBox="0.0 0.0 960.6115485564304 130.40944881889763" fill="none" stroke="none" stroke-linecap="square" stroke-miterlimit="10" xmlns:xlink="http://www.w3.org/1999/xlink" xmlns="http://www.w3.org/2000/svg"><clipPath id="p.0"><path d="m0 0l960.6116 0l0 130.40945l-960.6116 0l0 -130.40945z" clip-rule="nonzero"/></clipPath><g clip-path="url(#p.0)"><defs><linearGradient id="p.1" gradientUnits="userSpaceOnUse" gradientTransform="matrix(11.419847907212947 0.0 0.0 11.419847907212947 0.0 0.0)" spreadMethod="pad" x1="1.1023061136852558E-9" y1="-3.045052921979419E-4" x2="-4.133863382079754E-5" y2="11.419543401845926"><stop offset="0.0" stop-color="#ffffff"/><stop offset="0.36" stop-color="#a4c2f4"/><stop offset="0.65" stop-color="#a4c2f4"/><stop offset="1.0" stop-color="#ffffff"/></linearGradient></defs><path fill="url(#p.1)" d="m0 0l960.6116 0l0 130.40945l-960.6116 0z" fill-rule="evenodd"/><g filter="url(#shadowFilter-p.2)"><use xlink:href="#p.2" transform="matrix(1.0 0.0 0.0 1.0 0.0 2.0)"/></g><defs><filter id="shadowFilter-p.2" filterUnits="userSpaceOnUse"><feGaussianBlur in="SourceAlpha" stdDeviation="2.0" result="blur"/><feComponentTransfer in="blur" color-interpolation-filters="sRGB"><feFuncR type="linear" slope="0" intercept="0.0"/><feFuncG type="linear" slope="0" intercept="0.0"/><feFuncB type="linear" slope="0" intercept="0.0"/><feFuncA type="linear" slope="0.5" intercept="0"/></feComponentTransfer></filter></defs><g id="p.2"><path fill="#000000" fill-opacity="0.0" d="m0.0065616798 41.015747l960.5984 0l0 48.377953l-960.5984 0z" fill-rule="evenodd"/><path fill="#ffffff" d="m371.03488 44.927994l15.75 0l0 7.875l-2.40625 0l0 29.46875l-13.484375 0l-14.0625 -21.640625l0 13.765625l2.296875 0l0 7.875l-15.75 0l0 -7.875l2.40625 0l0 -21.59375l-2.40625 0l0 -7.875l17.328125 0l12.625 19.25l0 -11.375l-2.296875 0l0 -7.875zm31.778595 38.015625q-6.8125 0 -10.65625 -3.578125q-3.84375 -3.578125 -3.84375 -10.4375q0 -6.859375 3.84375 -10.4375q3.84375 -3.578125 10.65625 -3.578125q6.765625 0 9.765625 3.53125q3.0 3.53125 3.0 8.75l0 3.46875l-15.546875 0l0 0.28125q0 1.78125 1.046875 2.625q1.0625 0.828125 3.5 0.828125q2.9375 0 5.578125 -0.421875q2.640625 -0.4375 4.609375 -1.109375l0 7.671875q-1.6875 0.921875 -4.9375 1.671875q-3.234375 0.734375 -7.015625 0.734375zm2.78125 -17.5625l0 -0.578125q0 -1.640625 -0.703125 -2.359375q-0.6875 -0.71875 -2.078125 -0.71875q-1.390625 0 -2.09375 0.75q-0.6875 0.734375 -0.6875 2.328125l0 0.578125l5.5625 0zm38.980804 9.015625l1.53125 0l0 7.875l-14.984375 0l0 -7.875l1.34375 0l-1.859375 -2.828125l-0.484375 0l-1.875 2.828125l1.34375 0l0 7.875l-12.859375 0l0 -7.875l2.015625 0l5.8125 -5.1875l-6.109375 -5.75l-1.53125 0l0 -7.875l14.984375 0l0 7.875l-1.34375 0l1.859375 2.78125l0.484375 0l1.875 -2.78125l-1.34375 0l0 -7.875l12.484375 0l0 7.875l-2.015625 0l-5.53125 5.078125l6.203125 5.859375zm14.824951 8.546875q-5.09375 0 -7.65625 -2.46875q-2.5625 -2.46875 -2.5625 -8.328125l0 -8.6875l-2.109375 0l0 -7.875q1.8125 0 2.71875 -0.9375q0.921875 -0.9375 0.921875 -2.5625l0 -2.171875l10.171875 0l0 5.671875l6.484375 0l0 7.875l-6.484375 0l0 7.875q0 1.578125 0.6875 2.328125q0.703125 0.734375 2.09375 0.734375q1.828125 0 3.984375 -0.421875l0 7.53125q-1.34375 0.53125 -3.625 0.984375q-2.265625 0.453125 -4.625 0.453125zm32.15741 -0.671875l-6.328125 -18.8125l-2.015625 0l0 -7.875l14.828125 0l0 7.875l-2.015625 0l1.734375 7.484375l0.46875 0l3.515625 -15.359375l8.828125 0l3.5000305 15.359375l0.484375 0l1.671875 -7.484375l-2.015625 0l0 -7.875l13.921875 0l0 7.875l-2.015625 0l-6.09375 18.8125l-11.6719055 0l-2.640625 -13.34375l-0.46875 0l-2.640625 13.34375l-11.046875 0zm52.231903 0.671875q-6.8125 0 -10.65625 -3.578125q-3.84375 -3.578125 -3.84375 -10.4375q0 -6.859375 3.84375 -10.4375q3.84375 -3.578125 10.65625 -3.578125q6.765625 0 9.765625 3.53125q3.0 3.53125 3.0 8.75l0 3.46875l-15.546875 0l0 0.28125q0 1.78125 1.046875 2.625q1.0625 0.828125 3.5 0.828125q2.9375 0 5.578125 -0.421875q2.640625 -0.4375 4.609375 -1.109375l0 7.671875q-1.6875 0.921875 -4.9375 1.671875q-3.234375 0.734375 -7.015625 0.734375zm2.78125 -17.5625l0 -0.578125q0 -1.640625 -0.703125 -2.359375q-0.6875 -0.71875 -2.078125 -0.71875q-1.390625 0 -2.09375 0.75q-0.6875 0.734375 -0.6875 2.328125l0 0.578125l5.5625 0zm25.730774 17.5625q-6.8125 0 -10.65625 -3.578125q-3.84375 -3.578125 -3.84375 -10.4375q0 -6.859375 3.84375 -10.4375q3.84375 -3.578125 10.65625 -3.578125q6.765625 0 9.765625 3.53125q3.0 3.53125 3.0 8.75l0 3.46875l-15.546875 0l0 0.28125q0 1.78125 1.046875 2.625q1.0625 0.828125 3.5 0.828125q2.9375 0 5.578125 -0.421875q2.640625 -0.4375 4.609375 -1.109375l0 7.671875q-1.6875 0.921875 -4.9375 1.671875q-3.234375 0.734375 -7.015625 0.734375zm2.78125 -17.5625l0 -0.578125q0 -1.640625 -0.703125 -2.359375q-0.6875 -0.71875 -2.078125 -0.71875q-1.390625 0 -2.09375 0.75q-0.6875 0.734375 -0.6875 2.328125l0 0.578125l5.5625 0zm40.37146 9.015625l2.0625 0l0 7.875l-11.765625 0l-4.9375 -9.21875l-1.15625 0l0 9.21875l-13.15625 0l0 -7.875l2.109375 0l0 -21.59375l-2.109375 0l0 -7.875l13.15625 0l0 19.484375l1.15625 0l5.953125 -8.828125l10.125 0l0 7.875l-1.96875 0l-4.078125 4.5625l4.609375 6.375z" fill-rule="nonzero"/></g></g></svg>