<svg version="1.1" viewBox="0.0 0.0 961.0 130.0" fill="none" stroke="none" stroke-linecap="square" stroke-miterlimit="10" xmlns:xlink="http://www.w3.org/1999/xlink" xmlns="http://www.w3.org/2000/svg"><clipPath id="p.0"><path d="m0 0l961.0 0l0 130.0l-961.0 0l0 -130.0z" clip-rule="nonzero"/></clipPath><g clip-path="url(#p.0)"><defs><linearGradient id="p.1" gradientUnits="userSpaceOnUse" gradientTransform="matrix(11.401906805942371 0.0 0.0 11.401906805942371 0.0 0.0)" spreadMethod="pad" x1="1.1044871807729687E-9" y1="-3.051077861237517E-4" x2="-4.127368370648388E-5" y2="11.40160169808154"><stop offset="0.0" stop-color="#ffffff"/><stop offset="0.33" stop-color="#a4c2f4"/><stop offset="0.65" stop-color="#a4c2f4"/><stop offset="1.0" stop-color="#ffffff"/></linearGradient></defs><path fill="url(#p.1)" d="m0 0l961.0 0l0 130.0l-961.0 0z" fill-rule="evenodd"/><g filter="url(#shadowFilter-p.2)"><use xlink:href="#p.2" transform="matrix(1.0 0.0 0.0 1.0 0.0 2.0)"/></g><defs><filter id="shadowFilter-p.2" filterUnits="userSpaceOnUse"><feGaussianBlur in="SourceAlpha" stdDeviation="2.0" result="blur"/><feComponentTransfer in="blur" color-interpolation-filters="sRGB"><feFuncR type="linear" slope="0" intercept="0.0"/><feFuncG type="linear" slope="0" intercept="0.0"/><feFuncB type="linear" slope="0" intercept="0.0"/><feFuncA type="linear" slope="0.5" intercept="0"/></feComponentTransfer></filter></defs><g id="p.2"><path fill="#000000" fill-opacity="0.0" d="m0 24.238846l961.0079 0l0 73.480316l-961.0079 0z" fill-rule="evenodd"/><path fill="#ffffff" d="m439.3414 53.58447l-8.25 0l0 -3.734375l-3.078125 0l0 21.593746l3.359375 0l0 7.875l-20.15625 0l0 -7.875l3.359375 0l0 -21.593746l-3.078125 0l0 3.734375l-8.25 0l0 -11.609375l36.09375 0l0 11.609375zm12.486328 26.406246q-6.8125 0 -10.65625 -3.578125q-3.84375 -3.578125 -3.84375 -10.4375q0 -6.859371 3.84375 -10.437496q3.84375 -3.578125 10.65625 -3.578125q6.90625 0 10.6875 3.625q3.796875 3.625 3.796875 10.390621q0 6.859375 -3.84375 10.4375q-3.828125 3.578125 -10.640625 3.578125zm0 -8.546875q1.390625 0 2.078125 -0.734375q0.703125 -0.75 0.703125 -2.328125l0 -4.812496q0 -1.578125 -0.703125 -2.3125q-0.6875 -0.75 -2.078125 -0.75q-1.390625 0 -2.09375 0.75q-0.6875 0.734375 -0.6875 2.3125l0 4.812496q0 1.578125 0.6875 2.328125q0.703125 0.734375 2.09375 0.734375zm25.476685 8.546875q-4.890625 0 -7.359375 -3.640625q-2.46875 -3.65625 -2.46875 -10.375q0 -6.718746 2.46875 -10.359371q2.46875 -3.65625 7.359375 -3.65625q2.453125 0 4.34375 1.203125q1.90625 1.203125 3.109375 2.734375l0 -6.046875l-2.84375 0l0 -7.875l13.875 0l0 29.468746l2.109375 0l0 7.875l-13.140625 0l0 -3.265625q-1.203125 1.53125 -3.109375 2.734375q-1.890625 1.203125 -4.34375 1.203125zm4.65625 -8.546875q1.40625 0 2.09375 -0.734375q0.703125 -0.75 0.703125 -2.328125l0 -4.812496q0 -1.578125 -0.703125 -2.3125q-0.6875 -0.75 -2.09375 -0.75q-1.390625 0 -2.09375 0.75q-0.6875 0.734375 -0.6875 2.3125l0 4.812496q0 1.578125 0.6875 2.328125q0.703125 0.734375 2.09375 0.734375zm45.459076 0l0 7.875l-12.671875 0l0 -3.265625q-1.046875 1.53125 -2.953125 2.734375q-1.890625 1.203125 -4.625 1.203125q-3.609375 0 -5.671875 -1.921875q-2.0625 -1.921875 -2.0625 -5.421875q0 -9.078121 15.40625 -9.312496q-0.140625 -1.625 -1.25 -2.21875q-1.09375 -0.609375 -3.734375 -0.609375q-2.15625 0 -4.640625 0.453125q-2.46875 0.453125 -4.53125 1.21875l0 -8.828125q2.546875 -0.625 5.515625 -1.0q2.984375 -0.390625 5.8125 -0.390625q7.15625 0 10.21875 2.59375q3.078125 2.59375 3.078125 8.015625l0 8.874996l2.109375 0zm-12.671875 -3.359375q-2.15625 0 -3.34375 0.578125q-1.171875 0.578125 -1.171875 1.921875q0 0.8125 0.5 1.328125q0.515625 0.5 1.421875 0.5q1.25 0 1.921875 -1.0625q0.671875 -1.0625 0.671875 -2.96875l0 -0.296875zm43.11383 -15.453121l0 7.875l-1.828125 0l-6.296875 16.656246q-2.34375 6.28125 -5.375 9.421875q-3.015625 3.1562576 -7.96875 3.1562576q-2.015625 0 -4.078125 -0.421875q-2.0625 -0.40625 -3.734375 -1.1250076l0 -8.6875l6.625 0l0 0.484375q0 1.203125 1.25 1.203125q1.09375 0 1.671875 -1.0625l-7.578125 -19.624996l-1.828125 0l0 -7.875l14.25 0l0 7.875l-1.625 0l2.5 7.484371l2.296875 -7.484371l-1.625 0l0 -7.875l13.34375 0z" fill-rule="nonzero"/></g></g></svg>