<svg version="1.1" viewBox="0.0 0.0 961.0 130.0" fill="none" stroke="none" stroke-linecap="square" stroke-miterlimit="10" xmlns:xlink="http://www.w3.org/1999/xlink" xmlns="http://www.w3.org/2000/svg"><clipPath id="p.0"><path d="m0 0l961.0 0l0 130.0l-961.0 0l0 -130.0z" clip-rule="nonzero"/></clipPath><g clip-path="url(#p.0)"><defs><linearGradient id="p.1" gradientUnits="userSpaceOnUse" gradientTransform="matrix(11.401906805942371 0.0 0.0 11.401906805942371 0.0 0.0)" spreadMethod="pad" x1="1.1044871807729687E-9" y1="-3.051077861237517E-4" x2="-4.127368370648388E-5" y2="11.40160169808154"><stop offset="0.0" stop-color="#ffffff"/><stop offset="0.33" stop-color="#a4c2f4"/><stop offset="0.65" stop-color="#a4c2f4"/><stop offset="1.0" stop-color="#ffffff"/></linearGradient></defs><path fill="url(#p.1)" d="m0 0l961.0 0l0 130.0l-961.0 0z" fill-rule="evenodd"/><g filter="url(#shadowFilter-p.2)"><use xlink:href="#p.2" transform="matrix(1.0 0.0 0.0 1.0 0.0 2.0)"/></g><defs><filter id="shadowFilter-p.2" filterUnits="userSpaceOnUse"><feGaussianBlur in="SourceAlpha" stdDeviation="2.0" result="blur"/><feComponentTransfer in="blur" color-interpolation-filters="sRGB"><feFuncR type="linear" slope="0" intercept="0.0"/><feFuncG type="linear" slope="0" intercept="0.0"/><feFuncB type="linear" slope="0" intercept="0.0"/><feFuncA type="linear" slope="0.5" intercept="0"/></feComponentTransfer></filter></defs><g id="p.2"><path fill="#000000" fill-opacity="0.0" d="m0 18.277353l954.5197 0l0 84.69292l-954.5197 0z" fill-rule="evenodd"/><path fill="#ffffff" d="m378.23322 56.62298l-8.25 0l0 -3.734375l-3.078125 0l0 21.59375l3.359375 0l0 7.875l-20.15625 0l0 -7.875l3.359375 0l0 -21.59375l-3.078125 0l0 3.734375l-8.25 0l0 -11.609375l36.09375 0l0 11.609375zm12.486328 26.40625q-6.8125 0 -10.65625 -3.578125q-3.84375 -3.578125 -3.84375 -10.4375q0 -6.859375 3.84375 -10.4375q3.84375 -3.578125 10.65625 -3.578125q6.90625 0 10.6875 3.625q3.796875 3.625 3.796875 10.390625q0 6.859375 -3.84375 10.4375q-3.828125 3.578125 -10.640625 3.578125zm0 -8.546875q1.390625 0 2.078125 -0.734375q0.703125 -0.75 0.703125 -2.328125l0 -4.8125q0 -1.578125 -0.703125 -2.3125q-0.6875 -0.75 -2.078125 -0.75q-1.390625 0 -2.09375 0.75q-0.6875 0.734375 -0.6875 2.3125l0 4.8125q0 1.578125 0.6875 2.328125q0.703125 0.734375 2.09375 0.734375zm64.507935 0l0 7.875l-15.171875 0l0 -7.875l2.015625 0l0 -7.875q0 -1.578125 -0.671875 -2.3125q-0.671875 -0.75 -2.015625 -0.75q-2.875 0 -2.875 3.0625l0 7.875l2.015625 0l0 7.875l-15.078125 0l0 -7.875l2.015625 0l0 -7.875q0 -1.578125 -0.671875 -2.3125q-0.671875 -0.75 -2.015625 -0.75q-2.875 0 -2.875 3.0625l0 7.875l2.015625 0l0 7.875l-15.171875 0l0 -7.875l2.109375 0l0 -10.9375l-2.109375 0l0 -7.875l13.15625 0l0 3.75q3.453125 -4.421875 8.640625 -4.421875q2.921875 0 4.765625 1.375q1.859375 1.359375 2.625 3.859375q1.734375 -2.5 3.953125 -3.84375q2.234375 -1.34375 5.265625 -1.34375q3.984375 0 5.96875 2.5q2.0 2.5 2.0 6.859375l0 10.078125l2.109375 0zm15.844238 8.546875q-6.8125 0 -10.65625 -3.578125q-3.84375 -3.578125 -3.84375 -10.4375q0 -6.859375 3.84375 -10.4375q3.84375 -3.578125 10.65625 -3.578125q6.90625 0 10.6875 3.625q3.796875 3.625 3.796875 10.390625q0 6.859375 -3.84375 10.4375q-3.828125 3.578125 -10.640625 3.578125zm0 -8.546875q1.390625 0 2.078125 -0.734375q0.703125 -0.75 0.703125 -2.328125l0 -4.8125q0 -1.578125 -0.703125 -2.3125q-0.6875 -0.75 -2.078125 -0.75q-1.390625 0 -2.09375 0.75q-0.6875 0.734375 -0.6875 2.3125l0 4.8125q0 1.578125 0.6875 2.328125q0.703125 0.734375 2.09375 0.734375zm36.52356 -19.484375q0.953125 0 1.8125 0.203125q0.875 0.1875 1.453125 0.46875l0 9.171875q-1.96875 -0.828125 -4.21875 -0.828125q-3.03125 0 -4.671875 1.59375q-1.625 1.578125 -1.625 4.703125l0 4.171875l4.328125 0l0 7.875l-17.484375 0l0 -7.875l2.125 0l0 -10.9375l-2.125 0l0 -7.875l13.15625 0l0 3.5q1.34375 -2.015625 3.0625 -3.09375q1.734375 -1.078125 4.1875 -1.078125zm25.29602 0q0.953125 0 1.8125 0.203125q0.875 0.1875 1.453125 0.46875l0 9.171875q-1.96875 -0.828125 -4.21875 -0.828125q-3.03125 0 -4.671875 1.59375q-1.625 1.578125 -1.625 4.703125l0 4.171875l4.328125 0l0 7.875l-17.484375 0l0 -7.875l2.125 0l0 -10.9375l-2.125 0l0 -7.875l13.15625 0l0 3.5q1.34375 -2.015625 3.0625 -3.09375q1.734375 -1.078125 4.1875 -1.078125zm19.108582 28.03125q-6.8125 0 -10.65625 -3.578125q-3.84375 -3.578125 -3.84375 -10.4375q0 -6.859375 3.84375 -10.4375q3.84375 -3.578125 10.65625 -3.578125q6.90625 0 10.6875 3.625q3.796875 3.625 3.796875 10.390625q0 6.859375 -3.84375 10.4375q-3.828125 3.578125 -10.640625 3.578125zm0 -8.546875q1.390625 0 2.078125 -0.734375q0.703125 -0.75 0.703125 -2.328125l0 -4.8125q0 -1.578125 -0.703125 -2.3125q-0.6875 -0.75 -2.078125 -0.75q-1.390625 0 -2.09375 0.75q-0.6875 0.734375 -0.6875 2.3125l0 4.8125q0 1.578125 0.6875 2.328125q0.703125 0.734375 2.09375 0.734375zm23.99231 7.875l-6.328125 -18.8125l-2.015625 0l0 -7.875l14.828125 0l0 7.875l-2.015625 0l1.734375 7.484375l0.46875 0l3.515625 -15.359375l8.828125 0l3.5 15.359375l0.484375 0l1.671875 -7.484375l-2.015625 0l0 -7.875l13.921875 0l0 7.875l-2.015625 0l-6.09375 18.8125l-11.671875 0l-2.640625 -13.34375l-0.46875 0l-2.640625 13.34375l-11.046875 0z" fill-rule="nonzero"/></g></g></svg>