<?xml version="1.0" encoding="UTF-8" standalone="no"?>
<svg
   xmlns:dc="http://purl.org/dc/elements/1.1/"
   xmlns:cc="http://creativecommons.org/ns#"
   xmlns:rdf="http://www.w3.org/1999/02/22-rdf-syntax-ns#"
   xmlns:svg="http://www.w3.org/2000/svg"
   xmlns="http://www.w3.org/2000/svg"
   xmlns:sodipodi="http://sodipodi.sourceforge.net/DTD/sodipodi-0.dtd"
   xmlns:inkscape="http://www.inkscape.org/namespaces/inkscape"
   version="1.1"
   viewBox="0 0 329.08313 141.03065"
   fill="none"
   stroke="none"
   stroke-linecap="square"
   stroke-miterlimit="10"
   id="svg896"
   sodipodi:docname="LOGO_TEE_white.svg"
   width="329.08313"
   height="141.03065"
   inkscape:version="1.0.2 (e86c8708, 2021-01-15)">
  <metadata
     id="metadata902">
    <rdf:RDF>
      <cc:Work
         rdf:about="">
        <dc:format>image/svg+xml</dc:format>
        <dc:type
           rdf:resource="http://purl.org/dc/dcmitype/StillImage" />
      </cc:Work>
    </rdf:RDF>
  </metadata>
  <defs
     id="defs900">
    <filter
       inkscape:collect="always"
       style="color-interpolation-filters:sRGB"
       id="filter908"
       x="-0.0036755268"
       width="1.0073511"
       y="-0.0069157811"
       height="1.0138316">
      <feGaussianBlur
         inkscape:collect="always"
         stdDeviation="0.62245061"
         id="feGaussianBlur910" />
    </filter>
  </defs>
  <sodipodi:namedview
     pagecolor="#ffffff"
     bordercolor="#666666"
     borderopacity="1"
     objecttolerance="10"
     gridtolerance="10"
     guidetolerance="10"
     inkscape:pageopacity="0"
     inkscape:pageshadow="2"
     inkscape:window-width="1910"
     inkscape:window-height="961"
     id="namedview898"
     showgrid="false"
     inkscape:zoom="2.5338078"
     inkscape:cx="137.07133"
     inkscape:cy="40.493889"
     inkscape:window-x="0"
     inkscape:window-y="25"
     inkscape:window-maximized="0"
     inkscape:current-layer="g894" />
  <clipPath
     id="p.0">
    <path
       d="M 0,0 H 281 V 170 H 0 Z"
       clip-rule="nonzero"
       id="path833" />
  </clipPath>
  <g
     clip-path="url(#p.0)"
     id="g894"
     transform="translate(-3.428672,2.85344)"
     style="filter:url(#filter908)">
    <path
       fill="#000000"
       fill-opacity="0"
       d="M 0,0 H 281 V 170 H 0 Z"
       fill-rule="evenodd"
       id="path836" />
    <path
       fill="#000000"
       fill-opacity="0"
       d="m 128.80582,-24.372725 59.59055,-21.637793 54.20472,162.551178 -59.59056,21.63779 z"
       fill-rule="evenodd"
       id="path838" />
    <path
       fill="#ffffff"
       d="m 187.20477,82.1668 q -2.19049,1.72628 -3.86987,2.269585 -1.66469,0.537971 -4.13677,-0.160225 -3.14595,-1.534012 -3.19313,-4.24308 -0.0472,-2.709061 2.56407,-6.333565 1.8899,-2.282059 2.98632,-2.746674 1.09642,-0.464607 3.65994,-0.331558 4.82547,1.040527 5.36912,4.25087 0.5387,3.195518 -3.37968,7.294647 z"
       fill-rule="nonzero"
       id="path840" />
    <path
       fill="#000000"
       fill-opacity="0"
       d="M 142.01053,1.3096911 201.60109,-20.328103 243.1129,103.86087 183.52234,125.49866 Z"
       fill-rule="evenodd"
       id="path842" />
    <path
       fill="#3d7c76"
       d="m 185.82776,80.94487 q -1.61801,1.269058 -2.85187,1.667213 -1.21919,0.392823 -3.03967,-0.126388 -2.31279,-1.105118 -2.35425,-3.101463 -0.0268,-2.001679 1.90491,-4.648003 1.38122,-1.681778 2.17412,-2.019562 0.8076,-0.343117 2.68541,-0.243667 3.55178,0.771591 3.94256,3.123169 0.40547,2.346244 -2.46121,5.348701 z"
       fill-rule="nonzero"
       id="path844" />
    <path
       fill="#000000"
       fill-opacity="0"
       d="M 119.2,102.71265 251.07402,70.996117 263.89291,106.46069 132.01889,138.17722 Z"
       fill-rule="evenodd"
       id="path846" />
    <path
       fill="#ffffff"
       d="m 165.97621,94.4487 2.84087,-0.683243 1.69896,12.512113 7.03379,-1.69168 0.36528,2.56379 -9.88986,2.37858 z m 15.58328,-3.747871 2.55222,-0.613831 7.32058,13.811712 -2.9472,0.70883 -1.74905,-3.46842 -4.73984,1.13996 -0.71202,4.06032 -2.93202,0.70517 z m 4.41034,8.501261 -2.67419,-5.479716 -1.12375,6.393146 z m 5.01509,-10.768137 7.55033,-1.815903 q 0.82035,-0.197304 1.52224,0.09994 0.71173,0.278801 1.22568,0.878365 0.51393,0.599571 0.7865,1.353615 0.29927,0.827972 0.23845,1.710411 -0.0456,0.878784 -0.45389,1.668007 -0.39307,0.785568 -1.16112,1.35598 1.02375,0.09127 1.79763,0.724746 0.78373,0.615029 1.16316,1.664776 0.39013,1.07932 0.25953,2.04282 -0.13594,0.94872 -0.72283,1.70056 -0.58689,0.75183 -1.45229,1.28137 -0.86539,0.52954 -1.944,0.78896 l -6.76036,1.6259 z m 8.47083,10.963787 q 0.39499,-0.095 0.73118,-0.35264 0.33086,-0.27242 0.50194,-0.66711 0.18627,-0.39835 0.21892,-0.85619 0.0479,-0.46147 -0.11781,-0.91982 -0.15499,-0.42877 -0.42447,-0.717512 -0.25965,-0.307175 -0.60257,-0.433617 -0.34827,-0.141227 -0.71288,-0.05353 l -4.07141,0.979209 0.55762,3.96387 z m -1.27794,-6.185154 q 0.37981,-0.09134 0.68562,-0.341668 0.30582,-0.250328 0.49292,-0.600669 0.18175,-0.365128 0.19924,-0.819306 0.0327,-0.457825 -0.14905,-0.960525 -0.2298,-0.635765 -0.66724,-0.93232 -0.42225,-0.300209 -0.96916,-0.168678 l -3.60045,0.865936 0.51401,3.797585 z"
       fill-rule="nonzero"
       id="path848" />
    <path
       fill="#000000"
       fill-opacity="0"
       d="m 180.48096,5.019554 2.97885,59.619278"
       fill-rule="evenodd"
       id="path850" />
    <path
       stroke="#3d7c76"
       stroke-width="8"
       stroke-linejoin="round"
       stroke-linecap="butt"
       d="m 180.48096,5.019554 2.97885,59.619278"
       fill-rule="evenodd"
       id="path852" />
    <path
       fill="#000000"
       fill-opacity="0"
       d="m 188.31355,6.27274 -4.86473,58.397266"
       fill-rule="evenodd"
       id="path854" />
    <path
       stroke="#3d7c76"
       stroke-width="8"
       stroke-linejoin="round"
       stroke-linecap="butt"
       d="m 188.31355,6.27274 -4.86473,58.397266"
       fill-rule="evenodd"
       id="path856" />
    <path
       fill="#000000"
       fill-opacity="0"
       d="M 176,5.5013123 193.51181,5.869596"
       fill-rule="evenodd"
       id="path858" />
    <path
       stroke="#3d7c76"
       stroke-width="2"
       stroke-linejoin="round"
       stroke-linecap="butt"
       d="M 176,5.5013123 193.51181,5.869596"
       fill-rule="evenodd"
       id="path860" />
    <path
       fill="#000000"
       fill-opacity="0"
       d="M -73.92828,66.53279 224.56525,-5.1234 260.29296,92.33644 -38.200543,163.99263 Z"
       fill-rule="evenodd"
       id="path862" />
    <path
       fill="#ffffff"
       d="M 22.195798,40.25509 3.428672,41.952701 3.508892,25.111365 60.105947,19.991783 60.025727,36.833116 41.351964,38.522284 41.025552,92.0506 21.86939,93.7834 22.195798,40.255089 Z m 45.074593,-20.911378 46.575459,-4.213062 -0.0802,16.841331 -27.419294,2.480261 -0.02074,9.917194 23.388884,-2.115682 -0.13801,15.654211 -23.388878,2.115682 -0.07189,11.114169 28.290748,-2.559089 -0.0802,16.841343 -47.462464,4.2933 0.406622,-70.369662 z m 56.496629,-5.110499 46.57546,-4.213061 -0.0802,16.841333 -27.4193,2.480258 -0.0207,9.917193 23.38888,-2.115679 -0.138,15.654212 -23.38888,2.115679 -0.0719,11.114174 28.29075,-2.559089 -0.0802,16.841332 -47.46247,4.293295 0.40664,-70.369654 z"
       fill-rule="nonzero"
       id="path864" />
    <path
       fill="#000000"
       fill-opacity="0"
       d="m -71.85869,68.61676 185.64618,-44.5902 32.93195,89.96008 -185.646177,44.5902 z"
       fill-rule="evenodd"
       id="path866" />
    <path
       fill="#3d7c76"
       d="M 25.378426,36.852049 6.424773,38.568875 6.42862,27.711762 56.520415,23.174431 56.4232,34.040002 37.562916,35.748373 37.260698,88.60051 24.982839,89.71264 25.378423,36.852051 Z"
       fill-rule="nonzero"
       id="path868" />
    <path
       fill="#000000"
       fill-opacity="0"
       d="M -15.548119,55.17676 170.09806,10.586558 203.03002,100.54663 17.383821,145.13684 Z"
       fill-rule="evenodd"
       id="path870" />
    <path
       fill="#3d7c76"
       d="m 70.052516,22.031858 40.926204,-3.707107 -0.004,10.857115 -28.819508,2.610482 -0.06932,15.334402 24.820268,-2.248228 -0.0742,10.063349 -24.82025,2.248229 -0.07705,16.59022 29.53533,-2.675322 -0.0972,10.865576 -41.719827,3.778986 z"
       fill-rule="nonzero"
       id="path872" />
    <path
       fill="#000000"
       fill-opacity="0"
       d="M 39.501312,41.73676 225.14749,-2.85344 258.07947,87.106635 72.433258,131.69684 Z"
       fill-rule="evenodd"
       id="path874" />
    <path
       fill="#3d7c76"
       d="m 126.46831,16.709128 40.9262,-3.707108 -0.004,10.857114 -28.81951,2.61048 -0.0693,15.334404 24.82025,-2.248227 -0.0742,10.063351 -24.82027,2.248224 -0.077,16.590219 29.53533,-2.675321 -0.0972,10.865575 -41.71982,3.778996 z"
       fill-rule="nonzero"
       id="path876" />
    <path
       fill="#000000"
       fill-opacity="0"
       d="M 175.87401,4.750656 179.24935,65 l 8.37532,0.125984 5.62468,-59.9999998 z"
       fill-rule="evenodd"
       id="path878" />
    <path
       stroke="#ffffff"
       stroke-width="2"
       stroke-linejoin="round"
       stroke-linecap="butt"
       d="M 175.87401,4.750656 179.24935,65 l 8.37532,0.125984 5.62468,-59.9999998 z"
       fill-rule="evenodd"
       id="path880" />
    <path
       fill="#000000"
       fill-opacity="0"
       d="m 203,62 h 129.51181 v 53.32283 H 203 Z"
       fill-rule="evenodd"
       id="path882" />
    <path
       fill="#ffffff"
       d="M 219.40706,84.922385 V 76.21479 h -3.12581 v -1.786171 h 8.34694 v 1.786171 h -3.10865 v 8.707595 z m 6.57873,0 V 74.428619 h 2.12965 v 4.139119 h 4.13913 v -4.139119 h 2.12966 v 10.493766 h -2.12966 v -4.585651 h -4.13913 v 4.585651 z m 10.5798,0 V 74.428619 h 7.78017 v 1.786171 h -5.66765 v 2.3186 h 5.27262 v 1.768993 h -5.27262 v 2.851009 h 5.85658 v 1.768993 z m 9.34211,-5.186765 q 0,-1.597257 0.48089,-2.679259 0.36069,-0.80722 0.97898,-1.442681 0.61829,-0.63547 1.3568,-0.944614 0.97897,-0.412195 2.24991,-0.412195 2.31859,0 3.70974,1.44268 1.39113,1.425507 1.39113,4.001723 0,2.524668 -1.37397,3.967348 -1.374,1.425511 -3.69255,1.425511 -2.33579,0 -3.72694,-1.425511 -1.37399,-1.425498 -1.37399,-3.933002 z m 2.18122,-0.0687 q 0,1.786164 0.82439,2.7136 0.82436,0.910257 2.09532,0.910257 1.25372,0 2.06097,-0.910257 0.82438,-0.910267 0.82438,-2.730779 0,-1.803343 -0.79004,-2.696432 -0.79004,-0.893084 -2.09531,-0.893084 -1.32248,0 -2.12967,0.910254 -0.79004,0.893087 -0.79004,2.696441 z m 9.64348,5.255464 V 74.428619 h 4.46542 q 1.68313,0 2.43882,0.291977 0.77284,0.274794 1.2194,0.996133 0.4637,0.72134 0.4637,1.665948 0,1.167883 -0.70414,1.940751 -0.68701,0.772859 -2.061,0.978955 0.68701,0.395014 1.13354,0.875907 0.44654,0.480893 1.20225,1.700305 l 1.27093,2.04379 h -2.52468 l -1.52856,-2.284237 q -0.8244,-1.219412 -1.13355,-1.528555 -0.29195,-0.326317 -0.63545,-0.446547 -0.32632,-0.120216 -1.04766,-0.120216 h -0.42937 v 4.379555 z m 2.12965,-6.045502 h 1.56289 q 1.52856,0 1.90642,-0.120229 0.37782,-0.1374 0.58393,-0.446543 0.22326,-0.326317 0.22326,-0.790038 0,-0.532412 -0.29195,-0.858738 -0.2748,-0.326315 -0.79004,-0.412196 -0.25764,-0.03431 -1.54572,-0.03431 h -1.64879 z m 8.45012,6.045502 V 74.428619 h 7.78019 v 1.786175 h -5.66768 v 2.318596 h 5.27266 v 1.768996 h -5.27266 v 2.851009 h 5.85661 v 1.768994 z m 12.14161,0 v -8.70759 h -3.12581 v -1.786178 h 8.34694 v 1.786175 h -3.10864 v 8.707591 z m 6.51003,0 V 74.428619 h 2.12968 v 10.493766 z m 10.8543,-3.847145 2.0438,0.63546 q -0.46372,1.717474 -1.56291,2.559044 -1.09919,0.824387 -2.78233,0.824387 -2.09531,0 -3.4521,-1.425511 -1.33963,-1.425498 -1.33963,-3.898651 0,-2.610562 1.35679,-4.053241 1.35682,-1.459859 3.5552,-1.459859 1.92355,0 3.1258,1.133535 0.72133,0.669822 1.08199,1.940752 l -2.09531,0.498061 q -0.18893,-0.824387 -0.79004,-1.288099 -0.58395,-0.480892 -1.4255,-0.480892 -1.1679,0 -1.90639,0.841556 -0.72136,0.841566 -0.72136,2.71361 0,1.99226 0.72136,2.833826 0.72133,0.84156 1.85487,0.84156 0.85871,0 1.45986,-0.532412 0.60111,-0.532422 0.8759,-1.683126 z m 13.32777,3.847145 h -2.3014 l -0.92746,-2.387297 h -4.19063 l -0.85875,2.387297 h -2.24988 l 4.08759,-10.493768 h 2.23273 z m -3.89867,-4.156289 -1.44267,-3.881483 -1.42549,3.881483 z m 5.06671,4.156289 V 74.514503 h 2.12968 v 8.638892 h 5.25549 v 1.768996 z"
       fill-rule="nonzero"
       id="path884"
       style="stroke-width:1.09919" />
    <path
       fill="#ffffff"
       d="M 217.03693,97.233257 V 86.739479 h 7.78015 v 1.786174 h -5.66764 v 2.318597 h 5.27263 v 1.768994 h -5.27263 v 2.85101 h 5.85658 v 1.769003 z m 12.45073,0 -3.7441,-10.493778 h 2.28426 l 2.66209,7.762988 2.55905,-7.762988 h 2.24989 l -3.76129,10.493778 z m 6.66285,-5.186775 q 0,-1.597256 0.48092,-2.67926 0.36067,-0.807218 0.97893,-1.442678 0.61829,-0.635471 1.35684,-0.944618 0.97896,-0.412193 2.24987,-0.412193 2.31861,0 3.70974,1.44268 1.39117,1.425507 1.39117,4.001721 0,2.524683 -1.374,3.96736 -1.37394,1.425511 -3.69255,1.425511 -2.33576,0 -3.72693,-1.425511 -1.37399,-1.425498 -1.37399,-3.933012 z m 2.18121,-0.0687 q 0,1.786175 0.82439,2.713611 0.82439,0.910257 2.09532,0.910257 1.25376,0 2.06096,-0.910257 0.82439,-0.910267 0.82439,-2.730792 0,-1.803343 -0.79003,-2.696428 -0.79004,-0.893089 -2.09532,-0.893089 -1.32246,0 -2.12967,0.910257 -0.79004,0.893088 -0.79004,2.696441 z m 9.69499,5.255475 V 86.825362 h 2.12967 v 8.638896 h 5.25546 v 1.769005 z m 8.88016,-10.49378 h 2.12967 v 5.684849 q 0,1.3568 0.0686,1.751824 0.13741,0.652642 0.65265,1.047654 0.51524,0.377846 1.39115,0.377846 0.91026,0 1.35683,-0.360666 0.46369,-0.377843 0.54958,-0.910267 0.10301,-0.53241 0.10301,-1.78617 V 86.73948 h 2.11251 v 5.513102 q 0,1.889223 -0.17177,2.67926 -0.17173,0.772859 -0.63547,1.305281 -0.46372,0.532413 -1.23657,0.858739 -0.77287,0.309144 -2.00944,0.309144 -1.5114,0 -2.28426,-0.343494 -0.77286,-0.343496 -1.21939,-0.893087 -0.44654,-0.566772 -0.60112,-1.167884 -0.2061,-0.893087 -0.2061,-2.662093 z m 12.96711,10.49378 v -8.70761 h -3.12581 v -1.786171 h 8.34691 v 1.786174 h -3.10861 v 8.707605 z m 6.51002,0 V 86.739482 h 2.12966 v 10.493781 z m 3.70961,-5.186777 q 0,-1.597256 0.48088,-2.67926 0.36067,-0.807218 0.97897,-1.442678 0.6183,-0.635471 1.35679,-0.944618 0.97897,-0.412193 2.24989,-0.412193 2.3186,0 3.70975,1.44268 1.39117,1.425507 1.39117,4.001722 0,2.524683 -1.37399,3.96736 -1.37398,1.42551 -3.69258,1.42551 -2.33575,0 -3.72691,-1.42551 -1.37397,-1.425499 -1.37397,-3.933013 z m 2.18118,-0.0687 q 0,1.786175 0.82439,2.713611 0.8244,0.910257 2.09531,0.910257 1.25377,0 2.061,-0.910257 0.82436,-0.910267 0.82436,-2.73079 0,-1.803344 -0.79004,-2.69643 -0.79003,-0.893088 -2.09532,-0.893088 -1.32244,0 -2.12967,0.910256 -0.79003,0.89309 -0.79003,2.696441 z m 9.66065,5.255476 V 86.73949 h 2.06097 l 4.29369,7.007297 V 86.73949 h 1.9751 v 10.493777 h -2.12967 l -4.22499,-6.835545 v 6.835551 z m 20.02594,0 h -2.30141 l -0.92745,-2.387298 h -4.19065 l -0.85875,2.387298 h -2.24988 l 4.0876,-10.493779 h 2.2327 z m -3.89868,-4.156291 -1.44267,-3.881493 -1.42553,3.881493 z m 5.01518,4.156291 V 86.73949 h 4.46543 q 1.68314,0 2.43882,0.291975 0.77284,0.274794 1.21941,0.996133 0.46373,0.721341 0.46373,1.665949 0,1.167882 -0.70418,1.940752 -0.687,0.772857 -2.06099,0.978953 0.68701,0.395024 1.13355,0.875919 0.44652,0.480893 1.20225,1.700294 l 1.27091,2.043802 h -2.52468 l -1.52856,-2.284249 q -0.8244,-1.219401 -1.13354,-1.528545 -0.29196,-0.326326 -0.63547,-0.446544 -0.32631,-0.12023 -1.04763,-0.12023 h -0.42937 v 4.379568 z m 2.12968,-6.045512 h 1.56287 q 1.52857,0 1.90642,-0.120231 0.37783,-0.137398 0.58396,-0.446542 0.22324,-0.326316 0.22324,-0.790039 0,-0.53241 -0.29195,-0.858737 -0.2748,-0.326316 -0.79004,-0.412195 -0.25764,-0.03431 -1.54573,-0.03431 h -1.64877 z m 10.65425,6.045512 v -4.413918 l -3.83,-6.079861 h 2.47318 l 2.47316,4.15629 2.42164,-4.15629 h 2.43882 l -3.86433,6.097042 v 4.396737 z"
       fill-rule="nonzero"
       id="path886"
       style="stroke-width:1.09919" />
    <path
       fill="#ffffff"
       d="M 217.03693,109.54412 V 99.05035 h 7.78015 v 1.78617 h -5.66764 v 2.31859 h 5.27263 v 1.76901 h -5.27263 v 2.85101 h 5.85658 v 1.76899 z m 16.48684,-3.84714 2.04375,0.63547 q -0.46369,1.71747 -1.56288,2.55903 -1.09919,0.82439 -2.78232,0.82439 -2.09531,0 -3.45211,-1.4255 -1.33964,-1.42551 -1.33964,-3.89868 0,-2.61056 1.35681,-4.05324 1.35678,-1.459845 3.55515,-1.459845 1.92359,0 3.12584,1.133535 0.72132,0.66981 1.08199,1.94074 l -2.09531,0.49807 q -0.18893,-0.82438 -0.79005,-1.28811 -0.58393,-0.48089 -1.4255,-0.48089 -1.16789,0 -1.9064,0.84157 -0.72134,0.84155 -0.72134,2.71361 0,1.99227 0.72134,2.83382 0.72135,0.84157 1.85487,0.84157 0.85874,0 1.45984,-0.53242 0.60115,-0.53241 0.87596,-1.68312 z m 3.43508,-1.33964 q 0,-1.59724 0.48089,-2.67926 0.36068,-0.80721 0.97897,-1.44267 0.6183,-0.635466 1.35683,-0.944612 0.97894,-0.412193 2.24988,-0.412193 2.31857,0 3.70974,1.442675 1.39116,1.4255 1.39116,4.00171 0,2.5247 -1.374,3.96738 -1.37397,1.4255 -3.69257,1.4255 -2.33576,0 -3.72691,-1.4255 -1.37399,-1.42551 -1.37399,-3.93303 z m 2.18119,-0.0687 q 0,1.78618 0.8244,2.71361 0.82438,0.91027 2.09531,0.91027 1.25375,0 2.06099,-0.91027 0.82439,-0.91025 0.82439,-2.73078 0,-1.80335 -0.79003,-2.69644 -0.79004,-0.89308 -2.09535,-0.89308 -1.32244,0 -2.12967,0.91026 -0.79004,0.89309 -0.79004,2.69643 z m 9.69501,5.25549 V 99.136223 h 2.12967 v 8.638907 h 5.25546 v 1.769 z m 8.46796,-5.18679 q 0,-1.59725 0.48089,-2.67926 0.36067,-0.80721 0.97896,-1.44268 0.61831,-0.635459 1.3568,-0.944605 0.97897,-0.412193 2.2499,-0.412193 2.31858,0 3.70974,1.442678 1.39117,1.4255 1.39117,4.00171 0,2.5247 -1.37398,3.96738 -1.37399,1.4255 -3.69258,1.4255 -2.33577,0 -3.72691,-1.4255 -1.37399,-1.42551 -1.37399,-3.93303 z m 2.1812,-0.0687 q 0,1.78618 0.82438,2.71361 0.8244,0.91027 2.09532,0.91027 1.25375,0 2.06095,-0.91027 0.8244,-0.91026 0.8244,-2.73078 0,-1.80335 -0.79004,-2.69644 -0.79004,-0.89309 -2.09531,-0.89309 -1.32245,0 -2.12967,0.91027 -0.79003,0.89309 -0.79003,2.69643 z m 14.5211,1.40833 v -1.76899 h 4.56848 v 4.17346 q -0.66982,0.63547 -1.94074,1.13353 -1.25376,0.48089 -2.54188,0.48089 -1.64878,0 -2.88536,-0.68698 -1.2194,-0.68699 -1.8377,-1.95793 -0.60111,-1.2881 -0.60111,-2.79947 0,-1.64878 0.687,-2.91971 0.68698,-1.27093 2.00946,-1.957921 1.01329,-0.515245 2.50749,-0.515245 1.95793,0 3.05712,0.824388 1.09916,0.807208 1.40831,2.267068 l -2.11248,0.37784 q -0.20609,-0.77286 -0.82439,-1.21941 -0.6183,-0.44654 -1.52856,-0.44654 -1.39114,0 -2.21554,0.89309 -0.80723,0.87591 -0.80723,2.61056 0,1.85487 0.8244,2.79949 0.82439,0.92743 2.1812,0.92743 0.66982,0 1.32245,-0.25762 0.66981,-0.25762 1.15071,-0.63546 v -1.32246 z m 9.26563,3.84714 v -4.4139 l -3.82999,-6.079864 h 2.47317 l 2.47317,4.156294 2.42163,-4.156294 h 2.43883 l -3.86433,6.097034 v 4.39673 z"
       fill-rule="nonzero"
       id="path888"
       style="stroke-width:1.09919" />
    <path
       fill="#000000"
       fill-opacity="0"
       d="m 210,65 0.50394,46.99213"
       fill-rule="evenodd"
       id="path890" />
    <path
       stroke="#ffffff"
       stroke-width="2"
       stroke-linejoin="round"
       stroke-linecap="butt"
       d="m 210,65 0.50394,46.99213"
       fill-rule="evenodd"
       id="path892" />
  </g>
</svg>
