<?xml version="1.0" encoding="UTF-8" standalone="no"?>
<!-- Generator: Adobe Illustrator 24.1.0, SVG Export Plug-In . SVG Version: 6.00 Build 0)  -->

<svg
   version="1.1"
   x="0px"
   y="0px"
   viewBox="0 0 820 235"
   style="enable-background:new 0 0 820 235;"
   xml:space="preserve"
   id="svg166"
   sodipodi:docname="Logo_UniVie.svg"
   inkscape:version="1.4 (e7c3feb1, 2024-10-09)"
   xmlns:inkscape="http://www.inkscape.org/namespaces/inkscape"
   xmlns:sodipodi="http://sodipodi.sourceforge.net/DTD/sodipodi-0.dtd"
   xmlns="http://www.w3.org/2000/svg"
   xmlns:svg="http://www.w3.org/2000/svg"><defs
   id="defs166" /><sodipodi:namedview
   id="namedview166"
   pagecolor="#ffffff"
   bordercolor="#000000"
   borderopacity="0.25"
   inkscape:showpageshadow="2"
   inkscape:pageopacity="0.0"
   inkscape:pagecheckerboard="0"
   inkscape:deskcolor="#d1d1d1"
   inkscape:zoom="0.59493924"
   inkscape:cx="284.90304"
   inkscape:cy="131.94625"
   inkscape:window-width="1384"
   inkscape:window-height="644"
   inkscape:window-x="0"
   inkscape:window-y="33"
   inkscape:window-maximized="0"
   inkscape:current-layer="svg166" />
<style
   type="text/css"
   id="style1">
	.st0{fill:#006599;}
	.st1{fill-rule:evenodd;clip-rule:evenodd;fill:#FFFFFF;}
	.st2{fill:#FFFFFF;}
</style>

<g
   id="Layer_1">
	<g
   id="g166">
		<path
   class="st1"
   d="M155.2,36.4c0.7,0.3,1.6,0,1.9-0.7c0.3-0.7,0-1.6-0.7-1.9c-0.7-0.3-1.6,0-1.9,0.7S154.5,36,155.2,36.4    L155.2,36.4z M158.3,30.2c0.7,0.3,1.6,0,1.9-0.7c0.3-0.7,0-1.6-0.7-1.9c-0.7-0.4-1.6,0-1.9,0.7C157.2,29,157.5,29.8,158.3,30.2    L158.3,30.2z"
   id="path1" />
		<path
   class="st2"
   d="M118.6,184.2c-30.1,0-38.3-6.8-38.7-7.1l-0.3-0.2v-7.7l1.2,1.1c0.1,0.1,8.4,6.8,37.7,6.8    c29.4,0,38.5-6.2,38.6-6.2l1.2-0.8l0,7.6l-0.3,0.2C157.6,178,148.6,184.2,118.6,184.2z M81.2,176.2c1.6,1.1,10.9,6.6,37.4,6.6    c26.4,0,36.4-5,38.2-6v-4c-3.3,1.7-13.8,5.8-38.2,5.8c-24.1,0-34.2-4.4-37.4-6.3V176.2z"
   id="path2" />
		<path
   class="st2"
   d="M168.5,200.7c-2.3,0-4.1-1.9-4.1-4.1c0-2.3,1.9-4.1,4.1-4.1s4.1,1.9,4.1,4.1    C172.6,198.9,170.7,200.7,168.5,200.7z M168.5,194c-1.5,0-2.6,1.2-2.6,2.6c0,1.5,1.2,2.6,2.6,2.6c1.5,0,2.6-1.2,2.6-2.6    C171.1,195.1,169.9,194,168.5,194z M185.7,187c-2.3,0-4.1-1.9-4.1-4.1c0-2.3,1.9-4.1,4.1-4.1c2.3,0,4.1,1.9,4.1,4.1    C189.8,185.1,187.9,187,185.7,187z M185.7,180.2c-1.5,0-2.6,1.2-2.6,2.6c0,1.5,1.2,2.6,2.6,2.6c1.5,0,2.6-1.2,2.6-2.6    C188.3,181.4,187.1,180.2,185.7,180.2z"
   id="path3" />
		<path
   class="st2"
   d="M113.1,114.2c0-0.7,0.5-1.2,1.2-1.2c0.7,0,1.2,0.5,1.2,1.2s-0.5,1.2-1.2,1.2    C113.7,115.5,113.1,114.9,113.1,114.2L113.1,114.2z"
   id="path4" />
		<path
   class="st2"
   d="M115.1,116.1c0-0.7,0.5-1.2,1.2-1.2s1.2,0.5,1.2,1.2c0,0.7-0.5,1.2-1.2,1.2S115.1,116.8,115.1,116.1    L115.1,116.1z"
   id="path5" />
		<path
   class="st2"
   d="M117,117.9c0-0.7,0.5-1.2,1.2-1.2s1.2,0.5,1.2,1.2c0,0.7-0.5,1.2-1.2,1.2S117,118.6,117,117.9L117,117.9z"
   id="path6" />
		<path
   class="st2"
   d="M118.6,120.2c0-0.7,0.5-1.2,1.2-1.2c0.7,0,1.2,0.5,1.2,1.2c0,0.7-0.5,1.2-1.2,1.2    C119.1,121.4,118.6,120.9,118.6,120.2L118.6,120.2z"
   id="path7" />
		<path
   class="st2"
   d="M119.3,123c0-0.7,0.5-1.2,1.2-1.2c0.7,0,1.2,0.5,1.2,1.2c0,0.7-0.5,1.2-1.2,1.2    C119.8,124.2,119.3,123.7,119.3,123L119.3,123z"
   id="path8" />
		<path
   class="st2"
   d="M119.5,125.6c0-0.7,0.5-1.2,1.2-1.2c0.7,0,1.2,0.5,1.2,1.2c0,0.7-0.5,1.2-1.2,1.2    C120,126.8,119.5,126.2,119.5,125.6L119.5,125.6z"
   id="path9" />
		<path
   class="st2"
   d="M119.1,128.5c0-0.7,0.5-1.2,1.2-1.2c0.7,0,1.2,0.5,1.2,1.2c0,0.7-0.5,1.2-1.2,1.2    C119.6,129.7,119.1,129.2,119.1,128.5L119.1,128.5z"
   id="path10" />
		<path
   class="st2"
   d="M118.7,131.4c0-0.7,0.5-1.2,1.2-1.2c0.7,0,1.2,0.5,1.2,1.2s-0.5,1.2-1.2,1.2    C119.2,132.6,118.7,132.1,118.7,131.4L118.7,131.4z"
   id="path11" />
		<path
   class="st2"
   d="M121,130c0-0.7,0.5-1.2,1.2-1.2c0.7,0,1.2,0.5,1.2,1.2c0,0.7-0.5,1.2-1.2,1.2C121.5,131.2,121,130.6,121,130    L121,130z"
   id="path12" />
		<path
   class="st2"
   d="M122.5,127.8c0-0.7,0.5-1.2,1.2-1.2c0.7,0,1.2,0.5,1.2,1.2c0,0.7-0.5,1.2-1.2,1.2    C123.1,129,122.5,128.4,122.5,127.8L122.5,127.8z"
   id="path13" />
		<path
   class="st2"
   d="M123.9,125.2c0-0.7,0.5-1.2,1.2-1.2c0.7,0,1.2,0.5,1.2,1.2c0,0.7-0.5,1.2-1.2,1.2    C124.5,126.4,123.9,125.9,123.9,125.2L123.9,125.2z"
   id="path14" />
		<path
   class="st2"
   d="M125.4,122.6c0-0.7,0.5-1.2,1.2-1.2c0.7,0,1.2,0.5,1.2,1.2c0,0.7-0.5,1.2-1.2,1.2    C125.9,123.9,125.4,123.3,125.4,122.6L125.4,122.6z"
   id="path15" />
		<path
   class="st2"
   d="M126.1,119.9c0-0.7,0.5-1.2,1.2-1.2s1.2,0.5,1.2,1.2c0,0.7-0.5,1.2-1.2,1.2    C126.6,121.1,126.1,120.5,126.1,119.9L126.1,119.9z"
   id="path16" />
		<path
   class="st2"
   d="M126.3,117.3c0-0.7,0.5-1.2,1.2-1.2c0.7,0,1.2,0.5,1.2,1.2c0,0.7-0.5,1.2-1.2,1.2    C126.8,118.5,126.3,118,126.3,117.3L126.3,117.3z"
   id="path17" />
		<path
   class="st2"
   d="M125.9,114.4c0-0.7,0.5-1.2,1.2-1.2c0.7,0,1.2,0.5,1.2,1.2c0,0.7-0.5,1.2-1.2,1.2    C126.4,115.6,125.9,115.1,125.9,114.4L125.9,114.4z"
   id="path18" />
		<path
   class="st2"
   d="M80.6,92.5H59.5v-8.2h21.2V92.5z M61,91h18.2v-5.2H61V91z"
   id="path19" />
		<path
   class="st2"
   d="M149.8,168.7c-0.1,0-0.2,0-0.3-0.1c-0.4-0.2-0.5-0.6-0.4-1c2.3-5.1,3.3-20.2,4.4-41c0-0.4,0.4-0.7,0.8-0.7    c0.4,0,0.7,0.4,0.7,0.8c-1.2,21.6-2.1,36.2-4.5,41.5C150.4,168.5,150.1,168.7,149.8,168.7z M86.4,167.5c-0.3,0-0.6-0.2-0.7-0.5    c-0.2-0.7-0.4-1.2-0.5-1.8c-1.2-3.7-1.5-4.6-1.6-19.1c-0.1-5.1-0.2-9.8-0.3-14.7c-0.3-10.2-0.5-20.8-0.3-35.1    c0-0.4,0.4-0.7,0.8-0.7c0.4,0,0.7,0.4,0.7,0.8c-0.3,14.2,0,24.8,0.3,35c0.1,5,0.3,9.7,0.3,14.7c0.2,14.2,0.5,15.2,1.6,18.6    c0.2,0.5,0.3,1.1,0.6,1.8c0.1,0.4-0.1,0.8-0.5,0.9C86.6,167.5,86.5,167.5,86.4,167.5z M142.4,167.2c-0.2,0-0.5-0.1-0.6-0.3    c-0.2-0.3-0.2-0.8,0.2-1c2.2-1.6,6-17.2,7.2-38.1c0-0.4,0.4-0.7,0.8-0.7c0.4,0,0.7,0.4,0.7,0.8c-1,18.7-4.7,37-7.8,39.3    C142.7,167.2,142.6,167.2,142.4,167.2z M92.5,166.7c-0.3,0-0.7-0.2-0.7-0.6l-0.3-1.3c-2.7-12.4-3.8-17.6-5.1-33.5    c-1.1-12.9-1.5-19.4-1.5-32.1c0-0.4,0.3-0.7,0.8-0.7c0,0,0,0,0,0c0.4,0,0.7,0.3,0.7,0.8c-0.1,12.6,0.4,19.1,1.4,31.9    c1.3,15.8,2.4,20.9,5.1,33.3l0.3,1.3c0.1,0.4-0.2,0.8-0.6,0.9C92.6,166.7,92.5,166.7,92.5,166.7z"
   id="path20" />
		<path
   class="st2"
   d="M64.6,199.6c-2.3,0-4.1-1.9-4.1-4.1s1.9-4.1,4.1-4.1c2.3,0,4.1,1.9,4.1,4.1S66.9,199.6,64.6,199.6z     M64.6,192.8c-1.5,0-2.6,1.2-2.6,2.6s1.2,2.6,2.6,2.6c1.5,0,2.6-1.2,2.6-2.6S66.1,192.8,64.6,192.8z M48.9,186.5    c-2.3,0-4.1-1.9-4.1-4.1c0-2.3,1.9-4.1,4.1-4.1c2.3,0,4.1,1.9,4.1,4.1C53,184.6,51.2,186.5,48.9,186.5z M48.9,179.7    c-1.5,0-2.6,1.2-2.6,2.6c0,1.5,1.2,2.6,2.6,2.6c1.5,0,2.6-1.2,2.6-2.6C51.5,180.9,50.3,179.7,48.9,179.7z"
   id="path21" />
		<path
   class="st2"
   d="M113.4,109c-0.6,0-1.1-0.1-1.8-0.4c-0.9-0.4-1.5-1-2-1.9c-0.8-1.4-0.3-2.7,0.2-3.8c0.2-0.5,0.5-1.1,0.6-1.6    c0.6-3,1-4.8,1.7-7.8l0.4-0.5l5.1-2.6l1.1,0.5c0.9,3.1,0.2,5.6-2.1,7.8c-0.3,0.2,0,0.8,0.5,1.8c0.5,0.9,1,2,1,3.2    c0,0.3,0,0.5,0,0.8c0,0.9,0.1,1.9-0.7,2.8c-0.6,0.8-1.3,1.1-2.3,1.4C114.5,108.9,113.9,109,113.4,109z M113.4,94.2    c-0.7,2.8-1,4.4-1.6,7.4c-0.1,0.7-0.4,1.4-0.7,1.9c-0.5,1.1-0.7,1.7-0.3,2.4c0.4,0.7,0.7,1,1.4,1.3c0.8,0.4,1.3,0.4,2.3,0.1    c0.8-0.2,1.1-0.4,1.5-0.9c0.4-0.5,0.4-1,0.4-1.8c0-0.3,0-0.6,0-0.9c0-0.8-0.4-1.6-0.8-2.5c-0.6-1.2-1.3-2.5-0.2-3.6    c1.7-1.6,2.3-3.3,1.9-5.4L113.4,94.2z"
   id="path22" />
		<path
   class="st2"
   d="M128.1,108.7c-0.6,0-1.2-0.1-1.9-0.4l0.5-1.4c1.2,0.4,2.1,0.4,3.1-0.3c0.7-0.4,1-0.8,1.4-1.6    c0.3-0.7,0.3-0.7,0.3-1.6c0-0.3,0-0.8,0-1.4c0-0.8-0.4-1.4-0.9-2.1c-0.6-0.8-1.3-1.8-1.3-3.4l1.5-0.1c0.1,1.2,0.5,1.9,1.1,2.6    c0.5,0.8,1.1,1.6,1.1,2.9c0,0.6,0,1,0,1.3c0,1,0,1.3-0.5,2.3c-0.5,0.9-0.9,1.6-2,2.3C129.8,108.5,129,108.7,128.1,108.7z"
   id="path23" />
		<path
   class="st2"
   d="M125,115.8l-1.3-0.7c0.5-1.1,0.8-1.7,1-2.9c0.4-1.6,0.4-2.5,0.3-4.1l1.5-0.1c0.2,1.8,0.1,2.8-0.3,4.6    C125.9,113.9,125.6,114.6,125,115.8z M116,113.3l-1.3-0.7c0.5-1,0.7-1.6,0.8-2.8c0.1-1,0-1.5-0.2-2.4l1.5-0.4    c0.3,1.1,0.3,1.8,0.3,2.9C116.8,111.2,116.6,112.1,116,113.3z"
   id="path24" />
		<path
   class="st2"
   d="M123.8,109.5c-0.7,0-1.4-0.2-2.1-0.6c-2.6-1.3-4.5-4.6-5.5-6.2l1.3-0.8c0.9,1.5,2.7,4.6,4.9,5.6    c1,0.6,1.9,0.6,2.9,0c0.5-0.3,0.7-0.5,1-1c0.6-0.9,0.9-1.5,1.4-2.4c0.2-0.3,0.4-0.6,0.5-0.9c0.5-0.8,0.8-1.4,1.1-2.5    c0.4-1.6,0.4-2.5,0.1-4.1l0-0.2l0-0.2c0.1-0.5,0.1-0.7,0.2-1.2c0.1-1.2,0.1-2-0.1-3.1c-1.7-0.3-2.8-0.4-4.6-0.4    c-2.4,0-3.7,0.1-6,0.5l-0.3-1.5c2.4-0.5,3.8-0.6,6.3-0.6c2.1,0,3.3,0.2,5.4,0.6l0.5,0.1l0.1,0.5c0.4,1.5,0.4,2.5,0.3,4.1    c0,0.5-0.1,0.8-0.2,1.3c0.4,1.7,0.3,2.9-0.1,4.6c-0.3,1.2-0.7,2-1.2,2.8c-0.2,0.3-0.3,0.6-0.5,0.9c-0.5,1-0.9,1.6-1.5,2.5    c-0.4,0.7-0.8,1.1-1.6,1.5C125.2,109.3,124.5,109.5,123.8,109.5z"
   id="path25" />
		<polygon
   class="st2"
   points="119.8,95 124.2,94.9 123.8,96.4 120.4,96.9   "
   id="polygon25" />
		<polygon
   class="st2"
   points="129.8,94.8 126.5,94.7 126.9,96.2 129.3,96.7   "
   id="polygon26" />
		<polygon
   class="st2"
   points="126,95.2 126,98.5 126.6,99.9 125.9,100.5 127,100.8 127.1,96.3 126.9,95.2   "
   id="polygon27" />
		<polygon
   class="st2"
   points="127.4,103 123.2,103 123.8,103.8 124.9,104.3 127.2,104.4   "
   id="polygon28" />
		<path
   class="st2"
   d="M112.2,94.4l-1.5-4.4l-0.3,0.3l-5.7-5.8l0.5-0.5c1.5-1.5,3.1-2.2,5.2-2.1c2,0.1,3.4,0.8,4.6,2.2l1.5-0.9    c-0.2-1-0.3-1.7-0.1-2.8c0.3-1.9,2.1-4.3,2.2-4.4l0.2-0.3h0.4c0.4,0,3.2,1.1,4.4,2.6c0.8,1.1,1.2,2.1,1.2,3.3l1.9,0.2    c0.3-1.5,1.1-2.5,2.4-3.4c2.1-1.4,4.4-1.5,6.6-0.1l0.7,0.5l-0.5,0.7c-1.3,1.6-2,2.6-3,4.5c-0.4,0.7-0.6,1.2-0.8,1.9    c-0.1,0.3-0.3,0.7-0.5,1.1l-1,4.9l-0.8-0.2c-4.1-1-6.6-1-10.7,0c-2.5,0.6-3.9,1.1-6.1,2.4L112.2,94.4z M112.5,90.5l0.6,1.8    c1.9-1,3.4-1.5,5.7-2.1c4.1-0.9,6.8-1,10.7-0.2l0.4-2.2c-3.9-1.1-6.7-1.2-10.8-0.2C116.4,88.3,114.7,89,112.5,90.5z M106.8,84.6    l4.7,4.7l-0.1,0.1c2.6-1.7,4.3-2.5,7.4-3.3c4.3-1.1,7.3-1,11.5,0.1c0.2-0.4,0.3-0.7,0.5-1.1c0.3-0.6,0.5-1.2,0.9-2    c0.9-1.7,1.5-2.7,2.6-4c-1.4-0.6-2.8-0.4-4.1,0.5c-1.2,0.8-1.7,1.7-1.9,3.1l-0.1,0.7l-4.7-0.5l0-0.7c0-1.3-0.2-2-1-3.1    c-0.6-0.9-2.1-1.6-2.9-1.9c-0.6,0.8-1.5,2.2-1.6,3.2c-0.2,1.1-0.1,1.7,0.2,2.7l0.2,0.6l-3.6,2.3l-0.4-0.6c-1.1-1.4-2.2-2-3.9-2.1    C108.8,83.4,107.8,83.7,106.8,84.6z"
   id="path28" />
		<path
   class="st2"
   d="M135.1,87.2c-0.3,0-0.6-0.2-0.7-0.5c-0.1-0.4,0.1-0.8,0.5-0.9c2.5-0.8,4.8-1.7,6.9-2.4c8-3,13.8-5.1,15.8,0    c0.2,0.4,0,0.8-0.4,1s-0.8,0-1-0.4c-1.4-3.6-5.7-2.2-13.9,0.9c-2.1,0.8-4.4,1.6-6.9,2.5C135.3,87.2,135.2,87.2,135.1,87.2z     M102,85.6c-0.1,0-0.2,0-0.3,0c-2.2-0.8-4.1-1.6-5.9-2.3c-8-3.2-11.4-4.3-13.3,0c-0.2,0.4-0.6,0.5-1,0.4c-0.4-0.2-0.5-0.6-0.4-1    c2.6-5.8,7.6-3.8,15.2-0.7c1.7,0.7,3.7,1.5,5.9,2.2c0.4,0.1,0.6,0.6,0.5,1C102.6,85.4,102.3,85.6,102,85.6z M137.1,83.1    c-0.3,0-0.6-0.2-0.7-0.5c-0.1-0.4,0.1-0.8,0.5-0.9c1.3-0.4,2.6-0.7,3.9-1c4.9-1.3,9.6-2.5,10.8-5.1c0.6-1.3,0.4-2.8-0.6-4.8    c-0.8-1.7-1.9-2.5-3.2-2.6c-3.2-0.3-7.6,3.7-10.6,7.8c-0.2,0.3-0.7,0.4-1,0.2c-0.3-0.2-0.4-0.7-0.2-1c1.1-1.5,6.7-8.9,12-8.4    c1.9,0.2,3.4,1.3,4.5,3.5c1.2,2.4,1.4,4.4,0.6,6.1c-1.5,3.3-6.5,4.6-11.8,5.9c-1.3,0.3-2.6,0.7-3.9,1    C137.2,83.1,137.1,83.1,137.1,83.1z M102.7,82.2c-0.1,0-0.2,0-0.3,0c-1.7-0.6-3.6-1.2-5.4-1.7c-4.8-1.4-9.3-2.7-10.8-5.8    c-0.8-1.6-0.7-3.5,0.2-5.7c0.9-2.2,2.2-3.5,4-3.8c5-0.8,11.7,6,17.7,12.8l0.3,0.3c0.3,0.3,0.2,0.8-0.1,1.1    c-0.3,0.3-0.8,0.2-1.1-0.1l-0.3-0.3c-3.1-3.6-11.5-13.1-16.3-12.3c-1.3,0.2-2.2,1.1-2.9,2.8c-0.7,1.9-0.8,3.3-0.2,4.5    c1.2,2.5,5.4,3.8,9.9,5c1.8,0.5,3.7,1.1,5.5,1.7c0.4,0.1,0.6,0.6,0.4,1C103.3,82,103.1,82.2,102.7,82.2z M110.5,78.5    c-0.2,0-0.4-0.1-0.5-0.2c-9.8-9.8-13.2-14.7-12.5-18.3c0.3-1.8,1.7-3.2,4.4-4.4c1.1-0.5,2.3-0.5,3.4-0.1c3.8,1.6,6.5,8.9,9.4,16.7    c0.3,0.9,0.6,1.7,1,2.6c0.1,0.4-0.1,0.8-0.4,1c-0.4,0.1-0.8-0.1-1-0.4c-0.3-0.9-0.6-1.7-1-2.6c-2.6-7.1-5.4-14.5-8.6-15.8    c-0.7-0.3-1.4-0.3-2.2,0c-2.2,0.9-3.3,2-3.5,3.3c-0.5,2.9,3,7.8,12.1,17c0.3,0.3,0.3,0.8,0,1.1C110.9,78.4,110.7,78.5,110.5,78.5z     M125.3,76.1c-0.1,0-0.1,0-0.2,0c-0.4-0.1-0.6-0.5-0.5-0.9c0.4-1.5,0.8-3,1.1-4.5c1.7-6.8,3.1-12.7,6.7-14.5    c1.4-0.7,3.1-0.7,4.9,0c3,1.2,4.7,2.9,5.1,5.1c0.6,3.6-2.4,8.2-9.2,14.1c-0.3,0.3-0.8,0.2-1.1-0.1c-0.3-0.3-0.2-0.8,0.1-1.1    c6.2-5.3,9.2-9.7,8.7-12.7c-0.3-1.6-1.7-3-4.2-4c-1.4-0.6-2.6-0.6-3.7-0.1c-2.9,1.5-4.4,7.3-5.9,13.5c-0.4,1.5-0.7,3-1.1,4.5    C125.9,75.9,125.6,76.1,125.3,76.1z M122.4,74.7c-0.1,0-0.2,0-0.2,0c-0.4-0.1-0.6-0.6-0.5-1c3.1-9.1,4.7-15.7,2.5-18.7    c-1-1.3-2.8-1.9-5.6-1.8c-1.7,0.1-2.8,0.6-3.5,1.6c-2.2,3.3,0.1,11.4,2.7,18.8c0.1,0.4-0.1,0.8-0.5,1c-0.4,0.1-0.8-0.1-1-0.5    c-3.3-9.5-5-16.5-2.5-20.1c1-1.4,2.6-2.2,4.7-2.3c3.3-0.1,5.5,0.6,6.9,2.4c2.6,3.5,1.1,10.3-2.3,20.1    C123,74.5,122.7,74.7,122.4,74.7z"
   id="path29" />
		<path
   class="st2"
   d="M103.5,197.5c-2.3-1.4-4.6-2.6-6.8-3.7c-3.8-1.9-7.3-3.6-10.5-6.6c-2.3-2.2-3.1-5.2-1.8-7.3l1.3,0.8    c-0.9,1.6-0.3,3.8,1.5,5.5c3,2.8,6.4,4.5,10.1,6.3c2.3,1.1,4.6,2.3,7,3.7L103.5,197.5z"
   id="path30" />
		<path
   class="st2"
   d="M121.3,198.8c-0.3,0-0.6-0.2-0.7-0.4c-0.2-0.4,0-0.8,0.4-1c5.1-2.4,8.8-4.7,9.7-8.6c0.5-2,0.4-2.8-1-4    c-0.3-0.3-0.3-0.8-0.1-1.1c0.3-0.3,0.8-0.3,1.1-0.1c1.9,1.7,2,3.2,1.4,5.5c-1.1,4.4-5,7-10.5,9.6    C121.5,198.8,121.4,198.8,121.3,198.8z M113.6,198.7c-0.1,0-0.3,0-0.4-0.1c-0.8-0.5-1.5-1-2.1-1.4c-3.4-2.2-5.6-3.6-6.5-7.4    c-0.6-2.6-0.1-4.7,1.7-6.3c0.3-0.3,0.8-0.3,1.1,0.1c0.3,0.3,0.3,0.8-0.1,1.1c-1.3,1.2-1.8,2.8-1.3,4.8c0.8,3.2,2.6,4.4,5.9,6.5    c0.7,0.4,1.4,0.9,2.2,1.4c0.3,0.2,0.4,0.7,0.2,1C114.1,198.6,113.9,198.7,113.6,198.7z M126.6,198.3c-0.3,0-0.5-0.2-0.7-0.4    c-0.2-0.4,0-0.8,0.4-1c1.5-0.7,2.8-1.3,3.9-1.8c4.2-1.8,6.7-2.9,9.9-7.1c1.8-2.4,2.1-2.8,0.5-4.3c-0.3-0.3-0.3-0.8,0-1.1    c0.3-0.3,0.8-0.3,1.1,0c2.5,2.4,1.4,3.9-0.4,6.2c-3.4,4.5-6.2,5.7-10.5,7.6c-1.1,0.5-2.4,1.1-3.9,1.7    C126.8,198.2,126.7,198.3,126.6,198.3z M109.6,198.3c-0.1,0-0.2,0-0.3-0.1c-1.4-0.7-2.6-1.2-3.7-1.7c-4-1.7-6.2-2.7-9.6-7.2    c-2-2.7-1.8-4-0.9-6.5c0.1-0.4,0.6-0.6,1-0.4c0.4,0.1,0.6,0.6,0.4,1c-0.8,2.2-1,2.9,0.6,5.1c3.2,4.2,5.1,5.1,9,6.8    c1.1,0.5,2.3,1,3.7,1.7c0.4,0.2,0.5,0.6,0.4,1C110.1,198.1,109.9,198.3,109.6,198.3z M132.2,197.7c-0.3,0-0.5-0.1-0.6-0.4    c-0.2-0.4-0.1-0.8,0.2-1c2.7-1.7,5.1-2.7,7.5-3.6c3.1-1.3,6.1-2.5,8.9-5.1c2.1-2,0.5-5,0-6c-0.2-0.4-0.1-0.8,0.3-1    c0.4-0.2,0.8-0.1,1,0.3c0.7,1.1,2.6,5.1-0.3,7.8c-3,2.8-6.1,4.1-9.4,5.4c-2.3,0.9-4.7,1.9-7.3,3.5    C132.5,197.6,132.4,197.7,132.2,197.7z M119.1,197.1c-0.2,0-0.3-0.1-0.5-0.2c-0.3-0.3-0.4-0.7-0.1-1.1c0.8-1,1.4-1.7,2-2.3    c1.3-1.5,1.8-2,2.1-4c0.2-1.6-0.5-3.4-1.7-4.2c-0.4-0.2-0.5-0.7-0.3-1c0.2-0.4,0.7-0.5,1-0.3c1.8,1,2.8,3.4,2.5,5.7    c-0.4,2.5-1.1,3.3-2.4,4.8c-0.5,0.6-1.1,1.3-1.9,2.3C119.5,197,119.3,197.1,119.1,197.1z M117.1,197.1c-0.2,0-0.4-0.1-0.6-0.3    c-0.8-1-1.4-1.7-1.9-2.3c-1.4-1.6-2.1-2.3-2.4-4.8c-0.3-2.3,0.7-4.6,2.5-5.7c0.4-0.2,0.8-0.1,1,0.3c0.2,0.4,0.1,0.8-0.3,1    c-1.2,0.7-2,2.5-1.7,4.2c0.3,2,0.7,2.5,2.1,4c0.5,0.6,1.2,1.3,2,2.3c0.3,0.3,0.2,0.8-0.1,1.1C117.4,197,117.2,197.1,117.1,197.1z"
   id="path31" />
		<path
   class="st2"
   d="M65.2,189.9c0-0.7,0.6-1.3,1.3-1.3s1.3,0.6,1.3,1.3c0,0.7-0.6,1.3-1.3,1.3S65.2,190.7,65.2,189.9L65.2,189.9z    "
   id="path32" />
		<path
   class="st2"
   d="M68.3,193.6c0-0.7,0.6-1.3,1.3-1.3c0.7,0,1.3,0.6,1.3,1.3c0,0.7-0.6,1.3-1.3,1.3    C68.9,195,68.3,194.4,68.3,193.6L68.3,193.6z"
   id="path33" />
		<path
   class="st2"
   d="M67.3,199.3c0-0.7,0.6-1.3,1.3-1.3c0.7,0,1.3,0.6,1.3,1.3s-0.6,1.3-1.3,1.3C67.9,200.7,67.3,200.1,67.3,199.3    L67.3,199.3z"
   id="path34" />
		<path
   class="st2"
   d="M61.4,201c0-0.7,0.6-1.3,1.3-1.3s1.3,0.6,1.3,1.3c0,0.7-0.6,1.3-1.3,1.3S61.4,201.7,61.4,201L61.4,201z"
   id="path35" />
		<path
   class="st2"
   d="M58.1,196.8c0-0.7,0.6-1.3,1.3-1.3s1.3,0.6,1.3,1.3c0,0.7-0.6,1.3-1.3,1.3S58.1,197.6,58.1,196.8L58.1,196.8z    "
   id="path36" />
		<path
   class="st2"
   d="M59.5,191.5c0-0.7,0.6-1.3,1.3-1.3c0.7,0,1.3,0.6,1.3,1.3c0,0.7-0.6,1.3-1.3,1.3    C60.1,192.8,59.5,192.2,59.5,191.5L59.5,191.5z"
   id="path37" />
		<path
   class="st2"
   d="M49.5,176.8c0-0.7,0.6-1.3,1.3-1.3s1.3,0.6,1.3,1.3c0,0.7-0.6,1.3-1.3,1.3S49.5,177.5,49.5,176.8L49.5,176.8z    "
   id="path38" />
		<path
   class="st2"
   d="M52.6,180.5c0-0.7,0.6-1.3,1.3-1.3c0.7,0,1.3,0.6,1.3,1.3s-0.6,1.3-1.3,1.3C53.2,181.8,52.6,181.2,52.6,180.5    L52.6,180.5z"
   id="path39" />
		<path
   class="st2"
   d="M51.6,186.2c0-0.7,0.6-1.3,1.3-1.3c0.7,0,1.3,0.6,1.3,1.3c0,0.7-0.6,1.3-1.3,1.3    C52.2,187.6,51.6,187,51.6,186.2L51.6,186.2z"
   id="path40" />
		<path
   class="st2"
   d="M45.7,187.8c0-0.7,0.6-1.3,1.3-1.3c0.7,0,1.3,0.6,1.3,1.3c0,0.7-0.6,1.3-1.3,1.3    C46.3,189.2,45.7,188.6,45.7,187.8L45.7,187.8z"
   id="path41" />
		<path
   class="st2"
   d="M42.4,183.7c0-0.7,0.6-1.3,1.3-1.3s1.3,0.6,1.3,1.3c0,0.7-0.6,1.3-1.3,1.3S42.4,184.4,42.4,183.7L42.4,183.7z    "
   id="path42" />
		<path
   class="st2"
   d="M43.8,178.3c0-0.7,0.6-1.3,1.3-1.3s1.3,0.6,1.3,1.3c0,0.7-0.6,1.3-1.3,1.3S43.8,179.1,43.8,178.3L43.8,178.3z    "
   id="path43" />
		<path
   class="st2"
   d="M169,191.1c0-0.7,0.6-1.3,1.3-1.3s1.3,0.6,1.3,1.3c0,0.7-0.6,1.3-1.3,1.3S169,191.8,169,191.1L169,191.1z"
   id="path44" />
		<path
   class="st2"
   d="M172.1,194.8c0-0.7,0.6-1.3,1.3-1.3s1.3,0.6,1.3,1.3c0,0.7-0.6,1.3-1.3,1.3S172.1,195.5,172.1,194.8    L172.1,194.8z"
   id="path45" />
		<path
   class="st2"
   d="M171.2,200.5c0-0.7,0.6-1.3,1.3-1.3s1.3,0.6,1.3,1.3c0,0.7-0.6,1.3-1.3,1.3S171.2,201.2,171.2,200.5    L171.2,200.5z"
   id="path46" />
		<path
   class="st2"
   d="M165.2,202.1c0-0.7,0.6-1.3,1.3-1.3s1.3,0.6,1.3,1.3c0,0.7-0.6,1.3-1.3,1.3S165.2,202.8,165.2,202.1    L165.2,202.1z"
   id="path47" />
		<path
   class="st2"
   d="M161.9,198c0-0.7,0.6-1.3,1.3-1.3c0.7,0,1.3,0.6,1.3,1.3c0,0.7-0.6,1.3-1.3,1.3S161.9,198.7,161.9,198    L161.9,198z"
   id="path48" />
		<path
   class="st2"
   d="M163.4,192.6c0-0.7,0.6-1.3,1.3-1.3s1.3,0.6,1.3,1.3s-0.6,1.3-1.3,1.3S163.4,193.3,163.4,192.6L163.4,192.6z"
   id="path49" />
		<path
   class="st2"
   d="M82.4,25.2c0-0.7,0.6-1.3,1.3-1.3c0.7,0,1.3,0.6,1.3,1.3c0,0.7-0.6,1.3-1.3,1.3C83,26.5,82.4,25.9,82.4,25.2    L82.4,25.2z"
   id="path50" />
		<path
   class="st2"
   d="M85.5,28.9c0-0.7,0.6-1.3,1.3-1.3c0.7,0,1.3,0.6,1.3,1.3s-0.6,1.3-1.3,1.3C86.1,30.2,85.5,29.6,85.5,28.9    L85.5,28.9z"
   id="path51" />
		<path
   class="st2"
   d="M84.5,34.6c0-0.7,0.6-1.3,1.3-1.3c0.7,0,1.3,0.6,1.3,1.3s-0.6,1.3-1.3,1.3C85.1,35.9,84.5,35.3,84.5,34.6    L84.5,34.6z"
   id="path52" />
		<path
   class="st2"
   d="M78.6,36.2c0-0.7,0.6-1.3,1.3-1.3c0.7,0,1.3,0.6,1.3,1.3c0,0.7-0.6,1.3-1.3,1.3    C79.2,37.5,78.6,36.9,78.6,36.2L78.6,36.2z"
   id="path53" />
		<path
   class="st2"
   d="M75.3,32.1c0-0.7,0.6-1.3,1.3-1.3c0.7,0,1.3,0.6,1.3,1.3c0,0.7-0.6,1.3-1.3,1.3    C75.9,33.4,75.3,32.8,75.3,32.1L75.3,32.1z"
   id="path54" />
		<path
   class="st2"
   d="M76.7,26.7c0-0.7,0.6-1.3,1.3-1.3c0.7,0,1.3,0.6,1.3,1.3c0,0.7-0.6,1.3-1.3,1.3    C77.3,28.1,76.7,27.5,76.7,26.7L76.7,26.7z"
   id="path55" />
		<g
   id="g57">
			<path
   class="st2"
   d="M154.1,27.2l0.9-3c-0.5-0.3-1.7-1-3-1.4c-2.8-1-4.8-0.3-5.6,1.8c-0.5,1.5,0.1,2.8,1,4     c1.4,1.8,3.4,3.2,2.8,5.1c-0.4,1.2-1.7,1.8-3.4,1.2c-2.5-0.9-2.4-2.8-2.3-3.9l-0.6-0.2l-1,3.2c0.6,0.4,1.7,1.2,3.3,1.7     c2.9,1,5.4,0.7,6.3-2c0.5-1.3,0.1-2.4-0.6-3.5c-1.1-1.6-4-3.6-3.4-5.5c0.3-1,1.5-1.5,3.1-1c2.1,0.7,2.1,2.3,1.9,3.4L154.1,27.2     L154.1,27.2z"
   id="path56" />
			<path
   class="st2"
   d="M149,36.9c-0.8,0-1.8-0.2-3-0.6c-1.6-0.5-2.8-1.3-3.4-1.8l-0.5-0.3l0.1-0.6l1.2-4l1.9,0.6l-0.1,0.6     c-0.1,1.3-0.1,2.5,1.7,3.1c1.2,0.4,2.1,0.1,2.4-0.7c0.3-1-0.4-1.9-1.6-3.2c-0.4-0.4-0.7-0.8-1-1.2c-0.9-1.1-1.8-2.7-1.1-4.7     c0.9-2.5,3.3-3.3,6.5-2.2c1.2,0.4,2.3,1,3,1.4l0.7,0.4l-1.3,4.4l-1.9-0.7l0.1-0.6c0.2-1.3-0.2-2.1-1.4-2.5     c-1.1-0.4-1.9-0.2-2.1,0.5c-0.3,0.9,0.9,2.1,1.9,3.2c0.6,0.6,1.1,1.1,1.4,1.7c0.6,1,1.3,2.4,0.7,4.1     C152.8,35.2,151.7,36.9,149,36.9z M148.9,23.1c-0.8,0.2-1.5,0.6-1.8,1.6c-0.4,1-0.1,2,0.9,3.3c0.3,0.4,0.6,0.7,1,1.1     c1.2,1.3,2.6,2.8,1.9,4.7c-0.2,0.7-0.7,1.2-1.3,1.6c1.7-0.2,2.2-1.5,2.4-2c0.3-0.9,0.2-1.7-0.5-2.8c-0.3-0.4-0.8-0.9-1.3-1.5     c-1.3-1.4-2.8-3-2.2-4.7C148,23.9,148.4,23.4,148.9,23.1z M143.9,33.6c0.1,0.1,0.3,0.2,0.5,0.3c-0.1-0.2-0.3-0.5-0.3-0.7     L143.9,33.6z M153.9,24.4c0.1,0.1,0.1,0.2,0.2,0.3l0.1-0.2C154,24.5,153.9,24.5,153.9,24.4z"
   id="path57" />
		</g>
		<path
   class="st2"
   d="M184.1,46.2l1.9-2.5c-0.4-0.5-1.3-1.5-2.3-2.4c-2.3-1.9-4.4-2-5.8-0.3c-1.1,1.3-0.9,2.7-0.5,4.1    c0.7,2.1,2,4.2,0.7,5.8c-0.8,1-2.2,1-3.6-0.1c-2.1-1.7-1.2-3.5-0.7-4.4l-0.5-0.4l-2.1,2.7c0.4,0.6,1.2,1.7,2.4,2.8    c2.4,2,4.8,2.6,6.6,0.4c0.9-1.1,0.9-2.2,0.7-3.5c-0.4-1.9-2.5-4.9-1.2-6.4c0.7-0.8,1.9-0.9,3.2,0.2c1.7,1.4,1.1,2.8,0.5,3.8    L184.1,46.2L184.1,46.2z"
   id="path58" />
		<path
   class="st2"
   d="M177.7,53.8c-1.2,0-2.6-0.5-4.4-2c-1.3-1.1-2.1-2.2-2.5-2.8l-0.3-0.5l0.3-0.5l2.6-3.3l1.5,1.3l-0.3,0.5    c-0.6,1.1-1,2.3,0.5,3.5c1,0.8,1.9,0.9,2.5,0.2c0.7-0.8,0.3-1.9-0.3-3.6c-0.2-0.5-0.4-1-0.5-1.5c-0.4-1.4-0.7-3.1,0.6-4.8    c1.7-2,4.3-1.9,6.9,0.3c1,0.8,1.8,1.8,2.2,2.3l0.6,0.7l-2.8,3.6l-1.5-1.3l0.3-0.6c0.7-1.2,0.6-2-0.4-2.8c-0.9-0.7-1.7-0.8-2.1-0.3    c-0.6,0.7,0,2.3,0.6,3.7c0.3,0.7,0.6,1.4,0.7,2.1c0.3,1.2,0.4,2.7-0.8,4.1C180.3,52.9,179.2,53.8,177.7,53.8z M176.9,52.2    c1.7,0.4,2.6-0.6,2.9-1c0.6-0.7,0.8-1.6,0.5-2.8c-0.1-0.5-0.4-1.2-0.7-1.8c-0.7-1.8-1.6-3.8-0.4-5.2c0.3-0.4,0.8-0.7,1.4-0.8    c-0.8-0.1-1.6,0.1-2.3,0.9c-0.7,0.8-0.8,1.8-0.3,3.4c0.1,0.5,0.3,0.9,0.5,1.4c0.6,1.7,1.4,3.6,0.1,5.1    C178.2,51.8,177.6,52.1,176.9,52.2z M172.3,48.5c0.1,0.1,0.2,0.3,0.3,0.4c-0.1-0.3-0.1-0.5-0.1-0.8L172.3,48.5z M184.9,43.5    c0,0.1,0,0.2,0,0.4l0.1-0.2C185,43.7,185,43.6,184.9,43.5z"
   id="path59" />
		<path
   class="st1"
   d="M180.3,56.6l3.2,3.8l0.4-0.3c-0.7-0.8-0.8-1.3-0.4-1.7c0.2-0.2,0.5-0.3,0.7-0.4l2.1-0.7l3.4,4.1l-1.2,2    c-0.1,0.2-0.3,0.5-0.5,0.6c-0.5,0.4-1-0.1-1.5-0.7l-0.4,0.3l3.7,4.5l0.4-0.3c-0.9-1.1-0.9-1.7-0.1-3.1l5.9-10.4l-1.1-1.3L184,56.9    c-1.7,0.6-2.4,0.5-3.3-0.6L180.3,56.6L180.3,56.6z M193.6,54.8l-3.3,5.7l-3-3.5L193.6,54.8L193.6,54.8z"
   id="path60" />
		<path
   class="st2"
   d="M189.9,69.2l-4.7-5.6l1.5-1.3l0.5,0.6c0.3,0.3,0.5,0.5,0.6,0.6c0.1-0.1,0.2-0.2,0.2-0.3l0.9-1.6l-2.7-3.3    l-1.6,0.6c-0.2,0.1-0.4,0.1-0.5,0.2l0,0c0,0.1,0.1,0.3,0.5,0.6l0.5,0.6l-1.5,1.3l-4.2-5l1.5-1.3l0.5,0.6c0.6,0.7,0.9,0.9,2.5,0.4    l11.5-4.1l1.7,2.1l-6.2,10.9c-0.7,1.2-0.6,1.4,0.1,2.3l0.5,0.6L189.9,69.2z M188.2,64.9l0.7,0.9c0.1-0.4,0.3-0.9,0.6-1.4l5.7-10    l-0.3-0.4l-5.6,9.8c-0.2,0.3-0.4,0.6-0.6,0.8C188.5,64.7,188.3,64.8,188.2,64.9z M188.6,57.3l1.6,1.9l1.7-3L188.6,57.3z M182.4,58    l0.2,0.3c0.1-0.1,0.2-0.2,0.3-0.4C182.8,58,182.6,58,182.4,58z"
   id="path61" />
		<path
   class="st1"
   d="M191.5,70.6l2.8,5l0.4-0.2c-0.7-1.3-0.6-1.7,0.8-2.4l3.2-1.8l0.4,0.7c1.2,2.2,3,4.9,6.2,3.2    c2.5-1.4,2.3-3.7,1-5.9l-2.8-5.1l-0.4,0.2c0.7,1.3,0.6,1.7-0.8,2.4l-7.7,4.3c-1.4,0.8-1.8,0.7-2.5-0.6L191.5,70.6L191.5,70.6z     M203.3,68.6c1.1-0.6,1.4-0.6,1.9,0.4c0.9,1.5,1.1,2.7-1,3.9c-2.4,1.3-3.4-0.1-4.2-1.6l-0.3-0.6L203.3,68.6L203.3,68.6z"
   id="path62" />
		<path
   class="st2"
   d="M194,76.6l-3.5-6.3l1.8-1l0.4,0.7c0.3,0.6,0.5,0.7,0.5,0.7c0.1,0,0.3,0,1-0.4l7.7-4.3    c0.7-0.4,0.8-0.6,0.8-0.6c0,0,0-0.2-0.3-0.8l-0.4-0.7l1.8-1l3.2,5.7c0.8,1.4,1.1,2.6,1,3.7c-0.1,1.3-0.9,2.5-2.3,3.2    c-4,2.2-6.2-1.8-7.2-3.5l0,0l-2.5,1.4c-0.7,0.4-0.8,0.6-0.8,0.6c0,0,0,0.2,0.3,0.8l0.4,0.7L194,76.6z M201.7,74.1    c0.9,0.8,1.9,0.9,3.2,0.2c0.9-0.5,1.4-1.2,1.5-2c0-0.2,0-0.4,0-0.6c-0.2,0.7-0.8,1.3-1.9,1.9C203.5,74.2,202.5,74.3,201.7,74.1z     M193.3,72.2l0.6,1.1c0.3-0.4,0.7-0.7,1.3-1l3.3-1.9l0,0l4.4-2.4c0.6-0.4,1.2-0.6,1.6-0.5l-0.7-1.2c-0.3,0.4-0.7,0.7-1.3,1    l-7.7,4.3C194.3,71.9,193.7,72.1,193.3,72.2z M200.6,71c0.4,0.6,0.7,1.3,1.2,1.6c0.3,0.2,0.8,0.3,2-0.3c1.5-0.9,1.5-1.5,0.7-2.9    c-0.2-0.3-0.3-0.4-0.3-0.4c0,0-0.1,0.1-0.6,0.3l0,0L200.6,71z"
   id="path63" />
		<path
   class="st2"
   d="M198,82.9l2.1,5.3l0.5-0.2c-0.5-1.3-0.4-1.7,1.1-2.3l8.2-3.3c1.5-0.6,1.9-0.4,2.4,0.9l0.5-0.2l-2.1-5.3    l-0.5,0.2c0.5,1.3,0.4,1.7-1.1,2.3l-8.2,3.3c-1.5,0.6-1.9,0.4-2.4-0.9L198,82.9L198,82.9z"
   id="path64" />
		<path
   class="st2"
   d="M199.8,89.2l-2.7-6.7l1.9-0.8l0.3,0.7c0.4,0.9,0.4,0.9,1.4,0.5l8.2-3.3c0.8-0.3,0.9-0.5,0.9-0.5    c0,0,0.1-0.2-0.2-0.8l-0.3-0.7l1.9-0.8l2.7,6.7l-1.9,0.8l-0.3-0.7c-0.4-0.9-0.4-0.9-1.4-0.5l-8.2,3.3c-0.8,0.3-0.9,0.5-0.9,0.5    c0,0,0,0.2,0.2,0.8l0.3,0.7L199.8,89.2z M199.6,84.7l0.5,1.2c0.3-0.4,0.8-0.6,1.4-0.9l8.2-3.3c0.7-0.3,1.2-0.4,1.6-0.4l-0.5-1.2    c-0.3,0.4-0.8,0.6-1.4,0.9l-8.2,3.3C200.5,84.6,200,84.8,199.6,84.7z"
   id="path65" />
		<path
   class="st2"
   d="M201.4,91.3l2.4,9.7l2.9-0.6l-0.1-0.6c-1.3,0.3-2.1-0.1-2.5-1.8l-0.5-1.8c-0.3-1-0.2-1.2,1.1-1.5l4.1-1    l0.6,2.6c0.3,1.3,0,1.6-1.2,1.9l0.1,0.5l4.1-1l-0.1-0.5c-1.3,0.3-1.6,0.2-2-1.1l-0.6-2.6l3.5-0.9c1.1-0.3,1.5-0.1,1.7,0.8l0.3,1.3    c0.6,2.2-0.3,2.7-1.3,3.1l0.1,0.6l2.9-0.8l-2.3-9.3l-0.5,0.1c0.3,1.4,0.1,1.8-1.4,2.1l-8.5,2.1c-1.5,0.4-1.9,0.2-2.3-1.2    L201.4,91.3L201.4,91.3z"
   id="path66" />
		<path
   class="st2"
   d="M203.2,101.9l-2.8-11.1l1.9-0.5l0.2,0.7c0.2,1,0.2,1,1.4,0.7l8.5-2.1c0.8-0.2,0.9-0.3,1-0.4    c0,0,0.1-0.2-0.1-0.9l-0.2-0.7l2-0.5l2.7,10.8l-4.3,1.3l-0.3-1l-5.5,1.4l-0.5-2l0.7-0.2c0.9-0.2,0.9-0.2,0.7-1l-0.5-1.9l-3.4,0.8    c-0.4,0.1-0.6,0.2-0.7,0.2c0,0.1,0,0.2,0.1,0.4l0.5,1.8c0.4,1.4,0.9,1.4,1.7,1.3l0.7-0.1l0.5,2L203.2,101.9z M204.3,100.1    L204.3,100.1L204.3,100.1C204.3,100.1,204.3,100.1,204.3,100.1z M212.9,96.1l0.2,1l0.6-0.2c0.8-0.3,1.3-0.4,0.8-2.2l-0.3-1.3    c-0.1-0.3-0.1-0.4-0.2-0.4c0,0-0.1,0-0.7,0.1l-2.8,0.7l0.5,1.9c0.1,0.6,0.2,0.7,0.2,0.7c0,0,0.2,0,0.8-0.1L212.9,96.1z M216,96.8    C216,96.8,216,96.9,216,96.8L216,96.8L216,96.8z M202.6,93.3l0.3,1.3c0.3-0.4,0.9-0.6,1.5-0.7l4.8-1.2v0l3.7-0.9    c0.6-0.2,1.2-0.2,1.7,0l-0.3-1.4c-0.4,0.3-0.9,0.5-1.6,0.7l-8.5,2.1C203.6,93.3,203.1,93.4,202.6,93.3z"
   id="path67" />
		<path
   class="st1"
   d="M204.7,105l0.3,4.8l0.5,0c-0.1-1.4,0.2-1.8,1.8-1.9l9.1-0.6l0,0l-11.1,7.5l0.1,1.9l11.2-0.8    c1.6-0.1,1.9,0.1,2,1.6l0.5,0l-0.3-4.8l-0.5,0c0.1,1.4-0.2,1.8-1.8,1.9l-8.6,0.6l0,0l10.5-7.2l-0.3-4l-0.5,0    c0.1,1.4-0.2,1.8-1.8,1.9l-8.8,0.6c-1.6,0.1-1.9-0.2-2-1.6L204.7,105L204.7,105z"
   id="path68" />
		<path
   class="st2"
   d="M218,118.3l-0.1-0.7c-0.1-0.7-0.2-0.8-0.2-0.9c0,0-0.2-0.1-1.1,0l-11.9,0.8l-0.2-3.1l9.2-6.2l-6.4,0.4    c-1.1,0.1-1.1,0.1-1.1,1.1l0.1,0.7l-2,0.1l-0.4-6.3l2-0.1l0.1,0.7c0.1,1,0.1,1,1.2,0.9l8.8-0.6c0.8-0.1,1-0.2,1-0.2    c0,0,0.1-0.2,0.1-0.9l-0.1-0.7l2-0.1l0.4,5.2l-8.6,5.9l5.9-0.4c0.8-0.1,1-0.2,1-0.2c0,0,0.1-0.1,0.1-0.9l-0.1-0.7l2-0.1l0.4,6.3    L218,118.3z M206.1,115.1l0.1,0.8l1.1-0.1l0-1l0.3-0.3l10.2-6.9l-0.1-1.3c-0.2,0.1-0.3,0.2-0.5,0.2l0,1.1l-0.3,0.3L206.1,115.1z     M217.9,115.2c0.2,0,0.3,0.1,0.5,0.1l0-0.3C218.2,115.1,218,115.1,217.9,115.2z M205.6,107.1l0,0.3c0.1-0.1,0.3-0.1,0.5-0.2    C205.9,107.2,205.7,107.2,205.6,107.1z"
   id="path69" />
		<path
   class="st2"
   d="M205.3,123.5l-0.5,5.7l0.5,0c0.1-1.4,0.5-1.7,2-1.6l10.2,0.9l-0.1,0.8c-0.2,2.1-0.9,2.5-2.5,2.6l-0.1,0.6    l3.2,0.2l0.9-10.4L216,122l-0.1,0.6c1.5,0.4,2.2,0.8,2,3l-0.1,0.8l-10.2-0.9c-1.6-0.1-1.9-0.5-1.7-1.9L205.3,123.5L205.3,123.5z"
   id="path70" />
		<path
   class="st2"
   d="M218.9,133.6l-4.7-0.3l0.2-2l0.7,0c1.1-0.1,1.6-0.1,1.8-1.9l0,0l-9.5-0.8c-1.1-0.1-1.1-0.1-1.2,0.9l-0.1,0.7    l-2-0.2l0.6-7.2l2,0.2l-0.1,0.7c-0.1,1-0.1,1,1.1,1.1l9.5,0.8l0,0c0.2-1.7-0.2-1.9-1.4-2.2l-0.6-0.2l0.2-2l4.6,0.6L218.9,133.6z     M217.4,132l0.1,0l0-0.2C217.5,131.9,217.5,131.9,217.4,132z M206.9,126.9c0.2,0,0.4,0,0.6,0l10.4,0.9l0.1-0.7l-10.4-0.9    c-0.7-0.1-1.2-0.2-1.6-0.4l-0.1,1.3C206.1,127,206.4,126.9,206.9,126.9z M218.2,123c0,0.1,0.1,0.1,0.1,0.2l0-0.2L218.2,123z"
   id="path71" />
		<path
   class="st2"
   d="M204,134.5l-1.2,5.6l0.5,0.1c0.3-1.4,0.7-1.6,2.2-1.3l8.6,1.8c1.6,0.3,1.8,0.7,1.5,2.1l0.5,0.1l1.2-5.6    l-0.5-0.1c-0.3,1.4-0.7,1.6-2.2,1.3l-8.6-1.8c-1.6-0.3-1.8-0.7-1.5-2.1L204,134.5L204,134.5z"
   id="path72" />
		<path
   class="st2"
   d="M216.7,143.8l-2-0.4l0.2-0.7c0.1-0.7,0.1-0.8,0.1-0.9c0,0-0.2-0.2-1-0.3l-8.6-1.8c-1.1-0.2-1.1-0.2-1.3,0.7    l-0.2,0.7l-2-0.4l1.5-7.1l2,0.4l-0.2,0.7c-0.1,0.7-0.1,0.8-0.1,0.9c0,0,0.2,0.2,1,0.3l8.6,1.8c1.1,0.2,1.1,0.2,1.3-0.7l0.2-0.7    l2,0.4L216.7,143.8z M204.6,138c0.3,0,0.7,0,1.1,0.1l8.6,1.8c0.7,0.1,1.2,0.3,1.6,0.6l0.3-1.3c-0.4,0.1-1,0.1-1.7-0.1l-8.6-1.8    c-0.7-0.1-1.2-0.3-1.6-0.6l-0.3,1.3C204.2,138.1,204.4,138,204.6,138z"
   id="path73" />
		<path
   class="st1"
   d="M202.3,142.8l-1.8,4.7l0.5,0.2c0.4-1,0.7-1.4,1.3-1.1c0.2,0.1,0.5,0.3,0.7,0.5l1.7,1.5l-1.9,4.9l-2.4,0    c-0.3,0-0.5,0-0.8-0.1c-0.6-0.2-0.4-0.9-0.1-1.7l-0.5-0.2l-2.1,5.4l0.5,0.2c0.5-1.3,1-1.6,2.6-1.6l12,0.1l0.6-1.6l-8.8-7.8    c-1.4-1.2-1.6-1.8-1.1-3.2L202.3,142.8L202.3,142.8z M210.3,153.5l-6.6-0.1l1.6-4.3L210.3,153.5L210.3,153.5z"
   id="path74" />
		<path
   class="st2"
   d="M197.8,158l-1.9-0.7l2.6-6.8l1.9,0.7l-0.3,0.7c-0.2,0.4-0.2,0.6-0.2,0.7c0.1,0,0.2,0,0.4,0l1.9,0l1.5-4    l-1.3-1.1c-0.2-0.2-0.3-0.3-0.4-0.3c-0.1,0.1-0.2,0.3-0.3,0.7l-0.3,0.7l-1.9-0.7l2.3-6.1l1.9,0.7l-0.3,0.7    c-0.3,0.9-0.4,1.2,0.9,2.3l9.2,8.1l-1,2.5l-12.5-0.1c-1.4,0-1.6,0.2-1.9,1.2L197.8,158z M198.9,153.7l-0.4,1.1    c0.4-0.1,0.9-0.2,1.5-0.2l11.5,0.1l0.2-0.5l-11.3-0.2c-0.4,0-0.7,0-1-0.2C199.1,153.9,199,153.8,198.9,153.7z M204.8,152.7    l3.5,0.1l-2.6-2.3L204.8,152.7z M202,145.7c0.1,0,0.3,0,0.4,0.1c-0.1-0.1-0.2-0.3-0.3-0.4L202,145.7z"
   id="path75" />
		<path
   class="st2"
   d="M195.4,159.3l-5.1,8.5l2.5,1.6l0.3-0.5c-1.1-0.7-1.4-1.6-0.5-3.1l1-1.6c0.5-0.9,0.7-1,1.9-0.3l3.6,2.2    l-1.4,2.3c-0.7,1.1-1.2,1.1-2.2,0.5l-0.3,0.5l3.6,2.2l0.3-0.5c-1.2-0.7-1.3-1-0.6-2.2l1.4-2.3l3.1,1.9c1,0.6,1.1,1,0.6,1.8    l-0.7,1.1c-1.2,2-2.1,1.7-3.1,1.2l-0.3,0.5l2.6,1.4l5-8.3l-0.4-0.3c-0.7,1.2-1.2,1.3-2.5,0.5l-7.5-4.5c-1.4-0.8-1.5-1.2-0.7-2.5    L195.4,159.3L195.4,159.3z"
   id="path76" />
		<path
   class="st2"
   d="M202.4,175.6l-3.9-2.1l0.5-0.9l-4.9-2.9l1.1-1.8l0.6,0.4c0.8,0.5,0.8,0.5,1.2-0.2l1-1.7l-3-1.8    c-0.3-0.2-0.5-0.3-0.6-0.3c-0.1,0.1-0.1,0.2-0.2,0.4l-1,1.6c-0.8,1.3-0.4,1.7,0.3,2.1l0.6,0.4l-1.1,1.8l-3.7-2.5l5.9-9.8l1.7,1    l-0.4,0.6c-0.4,0.6-0.4,0.8-0.3,0.8c0,0,0.1,0.2,0.8,0.7l7.5,4.5c0.7,0.4,0.9,0.4,1,0.4c0,0,0.2-0.1,0.5-0.7l0.4-0.6l1.7,1    L202.4,175.6z M201.9,173.6L201.9,173.6L201.9,173.6C201.9,173.6,201.9,173.6,201.9,173.6z M199.6,171.7l0.6,0.3    c0.7,0.4,1.2,0.6,2.1-0.9l0.7-1.1c0.2-0.3,0.2-0.4,0.2-0.4c0,0-0.1-0.1-0.6-0.4l-2.5-1.5l-1,1.7c-0.3,0.5-0.3,0.6-0.3,0.7    c0,0,0.1,0.1,0.7,0.5l0.6,0.4L199.6,171.7z M200.1,165.9l3.3,2c0.5,0.3,1,0.7,1.2,1.2l0.7-1.2c-0.5,0-1-0.3-1.6-0.6l-7.5-4.5    c-0.6-0.4-1-0.7-1.3-1.1l-0.7,1.2c0.5,0,1,0.2,1.6,0.6L200.1,165.9z M191.3,167.6L191.3,167.6    C191.3,167.6,191.3,167.6,191.3,167.6L191.3,167.6z"
   id="path77" />
		<path
   class="st2"
   d="M150.1,211.1l1.3,2.9c0.6-0.1,2-0.4,3.2-0.9c2.8-1.1,3.9-2.9,3-5c-0.6-1.5-1.9-2.1-3.3-2.3    c-2.2-0.4-4.7-0.2-5.4-2.1c-0.5-1.2,0.1-2.4,1.8-3.1c2.5-1,3.6,0.6,4.3,1.5l0.6-0.2l-1.4-3.1c-0.7,0.1-2.1,0.2-3.6,0.9    c-2.9,1.2-4.6,3-3.5,5.7c0.5,1.3,1.5,1.9,2.7,2.2c1.9,0.5,5.4,0.1,6.2,2c0.4,1-0.1,2.1-1.7,2.7c-2,0.8-3-0.3-3.6-1.3L150.1,211.1    L150.1,211.1z"
   id="path78" />
		<path
   class="st2"
   d="M151,214.8l-1.9-4.2l1.9-0.8l0.3,0.6c0.7,1.2,1.5,1.5,2.7,1c1-0.4,1.5-1.1,1.3-1.8c-0.4-0.9-2-1-3.5-1.2    c-0.8-0.1-1.5-0.2-2.2-0.3c-1.1-0.3-2.5-0.9-3.2-2.6c-0.7-1.6-1-4.7,3.9-6.6c1.5-0.6,2.9-0.8,3.7-0.9l0.6-0.1l0.3,0.5l1.7,3.8    l-1.8,0.7l-0.3-0.5c-0.7-1-1.6-1.9-3.4-1.2c-0.6,0.3-1.1,0.6-1.3,1c-0.2,0.3-0.2,0.7,0,1.1c0.4,1,1.5,1.2,3.3,1.4    c0.5,0.1,1.1,0.1,1.6,0.2c1.4,0.3,3.1,0.8,3.9,2.8c0.5,1.2,0.4,2.4-0.2,3.5c-0.6,1-1.7,1.8-3.2,2.4c-1.2,0.5-2.5,0.8-3.1,0.9    L151,214.8z M151.7,212.9l0.1,0.2c0.1,0,0.2,0,0.3-0.1C152,213,151.9,213,151.7,212.9z M148.1,201.9c-1.2,1.3-0.7,2.5-0.5,3    c0.4,0.9,1,1.4,2.3,1.8c0.5,0.1,1.2,0.2,1.9,0.3c1.9,0.2,4.1,0.4,4.8,2.1c0.2,0.5,0.2,1,0.1,1.6c0-0.1,0.1-0.1,0.1-0.2    c0.4-0.7,0.4-1.4,0.1-2.2c-0.4-1-1.2-1.6-2.8-1.9c-0.5-0.1-1-0.2-1.5-0.2c-1.8-0.2-3.8-0.5-4.5-2.3    C147.9,203.3,147.9,202.6,148.1,201.9z M153,199.7c0.3,0.1,0.5,0.2,0.7,0.3l-0.2-0.4C153.4,199.6,153.2,199.6,153,199.7z"
   id="path79" />
		<path
   class="st2"
   d="M138.8,203.6l-5.6,1.2l0.1,0.5c1.4-0.3,1.8-0.1,2.1,1.5l2.1,10l-0.8,0.2c-2.1,0.4-2.7-0.2-3.2-1.6l-0.6,0.1    l0.8,3.1l10.2-2.2l-0.5-3.1l-0.6,0.1c0.1,1.5-0.2,2.3-2.3,2.8l-0.8,0.2l-2.1-10.1c-0.3-1.6-0.1-1.9,1.3-2.2L138.8,203.6    L138.8,203.6z"
   id="path80" />
		<path
   class="st2"
   d="M133.2,219.5L132,215l2-0.4l0.2,0.6c0.4,1.1,0.6,1.5,2.4,1.1l0,0l-2-9.3c-0.2-0.8-0.3-1-0.3-1    c0,0-0.2-0.1-0.9,0.1l-0.7,0.2l-0.4-2l7.1-1.5l0.4,2l-0.7,0.2c-1,0.2-1,0.2-0.7,1.3l2,9.3l0,0c1.7-0.4,1.8-0.8,1.7-2l0-0.6l2-0.4    l0.8,4.6L133.2,219.5z M134.2,217.6l0,0.1l0.2,0C134.4,217.7,134.3,217.7,134.2,217.6z M135.5,205.1c0.3,0.4,0.5,0.9,0.6,1.6    l2.2,10.2l0.7-0.2l-2.2-10.2c-0.1-0.7-0.2-1.2-0.1-1.7L135.5,205.1z M143,215.8c0,0.1-0.1,0.1-0.1,0.2l0.2,0L143,215.8z"
   id="path81" />
		<path
   class="st2"
   d="M116,217.4c0.1,1.6-0.2,1.9-1.7,2l0,0.5l5-0.2l0-0.5c-1.4,0.1-1.7-0.2-1.8-1.8l-0.2-6.8    c-0.1-2.6,0.6-3.7,3-3.8c2.6-0.1,3,1.5,3,3.5l0.2,6.8c0.1,1.6-0.2,1.9-1.7,2l0,0.5l5.7-0.2l0-0.5c-1.4,0.1-1.7-0.2-1.8-1.8    l-0.2-6.8c-0.1-3-1.5-4.5-5.1-4.4c-4.2,0.1-4.8,2.4-4.8,4.8L116,217.4L116,217.4z"
   id="path82" />
		<path
   class="st2"
   d="M113.7,220.7l-0.1-2l0.8,0c1,0,1,0,0.9-1.2l-0.2-6.8c-0.1-3.6,1.7-5.4,5.5-5.5c2-0.1,3.4,0.3,4.4,1.3    c0.9,0.9,1.4,2.1,1.5,3.9l0.2,6.8c0,0.8,0.1,1,0.2,1c0,0,0.2,0.1,0.9,0.1l0.7,0l0.1,2l-7.2,0.3l-0.1-2l0.7,0c1,0,1,0,0.9-1.2    l-0.2-6.8c0-0.7-0.1-1.6-0.5-2.2c-0.2-0.3-0.6-0.7-1.8-0.6c-1.9,0.1-2.4,0.7-2.3,3l0.2,6.8c0,0.8,0.1,1,0.2,1c0,0,0.2,0.1,0.9,0.1    l0.8,0l0.1,2L113.7,220.7z M116.8,217.6c0,0.6-0.1,1.1-0.2,1.4l0.5,0C116.9,218.7,116.8,218.2,116.8,217.6z M123.1,206.9    c0.1,0.1,0.2,0.3,0.3,0.4c0.6,0.8,0.7,2,0.7,3l0.2,6.8c0,0.7,0,1.3-0.2,1.7l1.3,0c-0.2-0.4-0.3-1-0.3-1.7l-0.2-6.8    c0-1.3-0.4-2.3-1-2.8C123.7,207.2,123.4,207.1,123.1,206.9z"
   id="path83" />
		<path
   class="st1"
   d="M110,206l-5.2-0.8c-3.9-0.6-6.8-0.1-7.7,5.7c-0.9,5.6,1.7,7.1,5.5,7.7l5.2,0.8l0.1-0.5    c-1.4-0.2-1.7-0.6-1.4-2.2l1.4-8.7c0.2-1.6,0.6-1.8,2-1.6L110,206L110,206z M104.3,216.4c-0.2,1.3-0.5,1.4-1.5,1.3    c-3.8-0.6-3.9-2.7-3.3-6.4c0.6-4,1.7-5.7,5.1-5.2c1.2,0.2,1.2,0.6,1.1,1.7L104.3,216.4L104.3,216.4z"
   id="path84" />
		<path
   class="st2"
   d="M108.5,220.3l-6-0.9c-1.6-0.3-3.7-0.7-5-2.2c-1.2-1.4-1.6-3.5-1.2-6.4c0.5-3,1.5-4.9,3.1-5.8    c1.6-1,3.7-0.8,5.5-0.5l6,0.9l-0.3,2l-0.7-0.1c-1-0.2-1-0.2-1.2,1l-1.4,8.7c-0.2,1.1-0.2,1.1,0.8,1.3l0.7,0.1L108.5,220.3z     M104.4,218.1l1.4,0.2c-0.1-0.4-0.1-1,0-1.7l1.4-8.7c0.1-0.7,0.3-1.2,0.5-1.6l-1.4-0.2c0.3,0.5,0.2,1.2,0.1,1.7l-1.4,8.7    C104.9,217.3,104.7,217.8,104.4,218.1z M103.4,206.7c-1.9,0-2.6,1.2-3.2,4.6c-0.6,3.8-0.3,5.1,2.7,5.6c0.4,0.1,0.5,0,0.5,0    c0,0,0-0.1,0.1-0.7l1.4-8.7c0-0.2,0.1-0.6,0.1-0.7c0,0-0.1-0.1-0.5-0.1C104.1,206.7,103.7,206.7,103.4,206.7z M101,205.9    c-0.3,0.1-0.6,0.2-0.9,0.4c-1.2,0.7-2,2.3-2.4,4.8c-0.4,2.4-0.1,4.1,0.8,5.1c0.2,0.2,0.3,0.3,0.5,0.5c-0.9-1.4-0.8-3.3-0.4-5.5    C99.1,208.6,99.7,206.8,101,205.9z"
   id="path85" />
		<path
   class="st2"
   d="M93.4,202.7l-5.4-1.9l-0.2,0.5c1.4,0.5,1.5,0.9,1,2.4l-2.9,8.3c-0.5,1.5-0.9,1.7-2.3,1.2l-0.2,0.5l5.4,1.9    l0.2-0.5c-1.4-0.5-1.5-0.9-1-2.4l2.9-8.3c0.5-1.5,0.9-1.7,2.3-1.2L93.4,202.7L93.4,202.7z"
   id="path86" />
		<path
   class="st2"
   d="M89.4,216.5l-6.8-2.4l0.7-1.9l0.7,0.2c0.7,0.2,0.8,0.2,0.8,0.2c0.1,0,0.2-0.2,0.5-0.9l2.9-8.3    c0.4-1.1,0.4-1.1-0.6-1.4l-0.7-0.2l0.7-1.9l6.8,2.4l-0.7,1.9l-0.7-0.2c-0.7-0.2-0.8-0.2-0.8-0.2c0,0-0.2,0.1-0.5,0.9l-2.9,8.3    c-0.4,1.1-0.4,1.1,0.6,1.4l0.7,0.2L89.4,216.5z M85.9,213.7l1.2,0.4c0-0.4,0.1-1,0.3-1.7l2.9-8.3c0.2-0.6,0.4-1.2,0.8-1.5    l-1.2-0.4c0,0.4-0.1,1-0.3,1.7l-2.9,8.3C86.4,212.9,86.2,213.4,85.9,213.7z"
   id="path87" />
		<path
   class="st2"
   d="M84.2,199.4l-5.2-2.3l-0.2,0.5c1.3,0.6,1.5,1,0.8,2.4l-3.6,8c-0.6,1.5-1.1,1.6-2.4,1l-0.2,0.5l5.2,2.3    l0.2-0.5c-1.3-0.6-1.5-1-0.8-2.4l3.6-8c0.6-1.5,1-1.6,2.4-1L84.2,199.4L84.2,199.4z"
   id="path88" />
		<path
   class="st2"
   d="M79.1,212.9l-6.6-2.9l0.8-1.8l0.7,0.3c0.9,0.4,0.9,0.4,1.4-0.7l3.6-8c0.3-0.8,0.3-1,0.3-1    c0,0-0.1-0.2-0.7-0.4l-0.7-0.3l0.8-1.8l6.6,2.9l-0.8,1.8l-0.7-0.3c-0.9-0.4-0.9-0.4-1.4,0.6l-3.6,8c-0.3,0.8-0.3,1-0.3,1    c0,0,0.1,0.2,0.7,0.5l0.7,0.3L79.1,212.9z M75.8,209.8l1.2,0.5c0-0.5,0.2-1,0.4-1.6l3.6-8c0.3-0.7,0.6-1.1,0.9-1.4l-1.2-0.5    c0,0.5-0.2,1-0.4,1.6l-3.6,8C76.4,209,76.1,209.5,75.8,209.8z"
   id="path89" />
		<path
   class="st1"
   d="M43.4,164.6l-0.9-1.5l-12,2.2c-1.4,0.3-1.9,0.1-2.6-1.1l-0.4,0.3l2.6,4.4l0.4-0.3c-0.6-1.1-0.7-1.6-0.2-1.8    c0.2-0.1,0.5-0.2,1-0.3l9.3-1.7l0,0l-6,7.2c-0.4,0.4-0.6,0.6-0.8,0.7c-0.5,0.3-0.9,0-1.4-0.9l-0.4,0.3l3,5l0.4-0.3    c-0.8-1.3-0.6-1.7,0.5-3.1L43.4,164.6L43.4,164.6z"
   id="path90" />
		<path
   class="st2"
   d="M34.7,178.1l-3.8-6.3l1.7-1l0.4,0.6c0.2,0.3,0.3,0.5,0.4,0.6c0.1-0.1,0.3-0.3,0.5-0.5l4.7-5.6l-7.3,1.4    c-0.3,0.1-0.5,0.1-0.7,0.2c0,0.1,0.1,0.4,0.4,0.8l0.4,0.6l-1.7,1l-3.4-5.7l1.7-1l0.4,0.6c0.5,0.9,0.7,1,1.8,0.7l12.5-2.3l1.5,2.4    l-7.8,9.6c-1,1.2-1,1.3-0.4,2.2l0.4,0.6L34.7,178.1z M33.7,173.6l0.7,1.1c0.2-0.4,0.5-0.8,0.9-1.3l7.2-8.7l-0.4-0.6l-1.1,0.2    l0.4,0.7l-0.3,0.5l-6,7.2c-0.4,0.4-0.6,0.7-0.9,0.9C34,173.5,33.8,173.5,33.7,173.6z M29.3,166.2l0.2,0.3c0.1-0.1,0.2-0.2,0.3-0.3    C29.6,166.2,29.4,166.2,29.3,166.2z"
   id="path91" />
		<path
   class="st2"
   d="M37.9,154.1l-2.1-5.3l-0.5,0.2c0.5,1.3,0.4,1.7-1.1,2.3l-8.2,3.3c-1.5,0.6-1.9,0.4-2.4-0.9l-0.5,0.2l2.1,5.3    l0.5-0.2c-0.5-1.3-0.4-1.7,1.1-2.3l8.2-3.3c1.5-0.6,1.9-0.4,2.4,0.9L37.9,154.1L37.9,154.1z"
   id="path92" />
		<path
   class="st2"
   d="M24.8,160.2l-2.7-6.7l1.9-0.8l0.3,0.7c0.4,0.9,0.4,0.9,1.4,0.5l8.2-3.3c1.1-0.4,1.1-0.4,0.7-1.4l-0.3-0.7    l1.9-0.7l2.7,6.7l-1.9,0.8l-0.3-0.7c-0.3-0.7-0.4-0.7-0.4-0.8c0,0-0.2,0-1,0.3l-8.2,3.3c-1.1,0.4-1.1,0.4-0.7,1.3l0.3,0.7    L24.8,160.2z M24.6,155.7l0.5,1.2c0.3-0.3,0.8-0.6,1.4-0.9l8.2-3.3c0.6-0.3,1.2-0.4,1.6-0.4l-0.5-1.2c-0.3,0.3-0.8,0.6-1.4,0.9    l-8.2,3.3C25.6,155.6,25,155.7,24.6,155.7z"
   id="path93" />
		<path
   class="st2"
   d="M34.3,145l-2.4-9.7l-2.9,0.6l0.1,0.6c1.3-0.3,2.1,0.1,2.5,1.8l0.5,1.8c0.3,1,0.2,1.2-1.1,1.5l-4.1,1l-0.6-2.6    c-0.3-1.3,0-1.6,1.2-1.9l-0.1-0.5l-4.1,1l0.1,0.5c1.3-0.3,1.6-0.2,2,1.1l0.6,2.6l-3.5,0.9c-1.1,0.3-1.5,0.1-1.7-0.8l-0.3-1.3    c-0.6-2.2,0.3-2.7,1.3-3.1l-0.1-0.6l-2.9,0.8l2.3,9.3l0.5-0.1c-0.3-1.4-0.1-1.8,1.4-2.1l8.5-2.1c1.5-0.4,1.9-0.2,2.3,1.2L34.3,145    L34.3,145z"
   id="path94" />
		<path
   class="st2"
   d="M20.5,149.2l-2.7-10.8l4.3-1.3l0.3,1l5.5-1.4l0.5,2l-0.7,0.2c-0.9,0.2-0.9,0.2-0.7,1l0.5,1.9l3.4-0.8    c0.4-0.1,0.6-0.2,0.7-0.2c0-0.1,0-0.2-0.1-0.4l-0.5-1.8c-0.4-1.4-0.9-1.4-1.7-1.3l-0.7,0.1l-0.5-2l4.4-0.9l2.8,11.1l-1.9,0.5    l-0.2-0.7c-0.2-1-0.2-1-1.4-0.7l-8.5,2.1c-1.1,0.3-1.1,0.3-0.9,1.2l0.2,0.7L20.5,149.2z M20.9,144.5l0.4,1.4    c0.3-0.3,0.9-0.5,1.6-0.7l8.5-2.1c0.7-0.2,1.2-0.2,1.7-0.1l-0.3-1.3c-0.3,0.4-0.9,0.6-1.5,0.7l-4.8,1.2l0,0l-3.7,0.9    C22,144.7,21.4,144.8,20.9,144.5C20.9,144.5,20.9,144.5,20.9,144.5z M22.6,139.2l-0.6,0.2c-0.8,0.2-1.3,0.4-0.8,2.2l0.3,1.3    c0.1,0.3,0.1,0.4,0.2,0.4c0,0,0.1,0,0.7-0.1l2.8-0.7l-0.5-1.9c-0.1-0.6-0.2-0.7-0.2-0.7c0,0-0.2,0-0.8,0.1l-0.7,0.2L22.6,139.2z     M19.6,139.4L19.6,139.4C19.6,139.5,19.7,139.4,19.6,139.4L19.6,139.4z M31.3,136.2C31.3,136.2,31.3,136.2,31.3,136.2L31.3,136.2    L31.3,136.2z"
   id="path95" />
		<path
   class="st1"
   d="M30.8,130.4l-0.2-4.8l-0.5,0c0.1,1.5-0.2,1.8-1.8,1.8l-9.1,0.5l0,0l11.2-7.3l-0.1-1.9L19,119.2    c-1.6,0.1-1.9-0.2-2-1.6l-0.5,0l0.2,4.8l0.5,0c-0.1-1.4,0.2-1.8,1.8-1.8l8.6-0.5l0,0l-10.6,7l0.2,4l0.5,0    c-0.1-1.4,0.2-1.8,1.8-1.8l8.8-0.5c1.6-0.1,1.9,0.2,2,1.6L30.8,130.4L30.8,130.4z"
   id="path96" />
		<path
   class="st2"
   d="M16.5,131.9l-0.3-5.2L25,121l-5.9,0.3c-0.8,0-1,0.2-1,0.2c0,0-0.1,0.2-0.1,0.9l0,0.7l-2,0.1l-0.3-6.3l2-0.1    l0,0.8c0.1,1,0.1,1,1.2,0.9l12-0.6l0.2,3.1l-9.3,6.1l6.4-0.3c0.8,0,1-0.1,1-0.2c0,0,0.1-0.1,0.1-0.9l0-0.8l2-0.1l0.3,6.3l-2,0.1    l0-0.8c-0.1-1,0-1-1.2-0.9l-8.8,0.5c-1.2,0.1-1.2,0.1-1.1,1l0,0.8L16.5,131.9z M17.8,127.5l0.1,1.4c0.2-0.1,0.3-0.2,0.6-0.2    l-0.1-1.1l0.4-0.3l10.8-7.1l0-0.8l-1.1,0.1l0,1l-0.4,0.3L17.8,127.5z M29.5,128.1c0.2,0,0.3,0.1,0.5,0.1l0-0.3    C29.8,128,29.7,128,29.5,128.1z M17.4,119.8l0,0.3c0.1-0.1,0.3-0.1,0.5-0.2C17.7,119.9,17.5,119.9,17.4,119.8z"
   id="path97" />
		<path
   class="st2"
   d="M30.2,113.1l0.7-4.7l-0.5-0.1c-0.2,1.4-0.5,1.7-2.1,1.5l-9.1-1.3l0,0l12.4-5.1l0.3-1.9l-11.1-1.6    c-1.6-0.2-1.8-0.5-1.6-2l-0.5-0.1l-0.7,4.7l0.5,0.1c0.2-1.4,0.5-1.7,2.1-1.5l8.5,1.2l0,0l-11.8,4.8l-0.6,4l0.5,0.1    c0.2-1.4,0.5-1.7,2.1-1.5l8.7,1.2c1.6,0.2,1.8,0.6,1.6,2L30.2,113.1L30.2,113.1z"
   id="path98" />
		<path
   class="st2"
   d="M30.8,113.9l-2-0.3l0.1-0.7c0.1-0.7,0-0.8,0-0.9c0,0-0.2-0.2-1-0.3l-8.7-1.2c-1.1-0.2-1.1-0.2-1.3,0.8    l-0.1,0.7l-2-0.3l0.7-5.1l9.7-4l-5.8-0.8c-1.1-0.2-1.1-0.2-1.3,0.8l-0.1,0.7l-2-0.3l0.9-6.2l2,0.3L19.8,98c-0.1,0.7,0,0.9,0,0.9    c0,0,0.2,0.2,1,0.3l11.9,1.7l-0.4,3.1L22,108.1l6.4,0.9c1.1,0.2,1.1,0.2,1.3-0.8l0.1-0.7l2,0.3L30.8,113.9z M29.3,110.5    c0.2,0.1,0.3,0.1,0.4,0.2l0-0.3C29.7,110.5,29.5,110.5,29.3,110.5z M17.9,107.7l-0.2,1.3c0.2-0.1,0.4-0.1,0.6-0.1l0.1-1l0.4-0.2    l12-4.9l0.1-0.8l-1.1-0.2l-0.1,1l-0.4,0.2L17.9,107.7z M19,100.1l0,0.3c0.1,0,0.3-0.1,0.5-0.1C19.3,100.3,19.2,100.2,19,100.1z"
   id="path99" />
		<path
   class="st2"
   d="M33.1,96l3.1-9.5l-2.8-1L33.2,86c1.2,0.5,1.7,1.2,1.2,2.9l-0.6,1.8c-0.3,1-0.5,1.1-1.8,0.7l-4-1.3l0.8-2.5    c0.4-1.3,0.9-1.3,2.1-0.9l0.2-0.5l-4-1.3l-0.2,0.5c1.3,0.4,1.5,0.7,1.1,2l-0.8,2.6l-3.4-1.1c-1.1-0.4-1.3-0.7-1-1.6l0.4-1.2    c0.7-2.2,1.7-2.1,2.7-1.9l0.2-0.6l-2.9-0.8l-3,9.2l0.5,0.2c0.4-1.4,0.8-1.6,2.3-1.1l8.4,2.7c1.5,0.5,1.7,0.9,1.3,2.2L33.1,96    L33.1,96z"
   id="path100" />
		<path
   class="st2"
   d="M33.6,96.9l-1.9-0.6l0.2-0.7c0.2-0.7,0.2-0.8,0.2-0.8c0-0.1-0.2-0.2-1-0.4l-8.4-2.7c-1.1-0.4-1.1-0.4-1.4,0.6    l-0.2,0.7l-1.9-0.6l3.4-10.6l4.3,1.2l-0.3,1l5.4,1.8l-0.6,2l-0.7-0.2c-0.9-0.3-0.9-0.3-1.1,0.5L29,89.7l3.3,1.1    c0.4,0.1,0.6,0.2,0.7,0.2c0-0.1,0.1-0.2,0.2-0.4l0.6-1.8c0.5-1.4,0-1.7-0.7-2l-0.7-0.3l0.6-2l4.2,1.6L33.6,96.9z M21.8,89.9    c0.4,0,0.8,0.1,1.4,0.3l8.4,2.7c0.6,0.2,1.2,0.4,1.5,0.8l0.4-1.3c-0.4,0.1-0.9,0.1-1.7-0.2l-4.2-1.4v0l-4.2-1.4    c-0.7-0.2-1.2-0.5-1.5-0.9l-0.4,1.4C21.7,89.9,21.8,89.9,21.8,89.9z M23.3,87.8c0,0,0.1,0.1,0.6,0.3l2.7,0.9l0.6-1.8    c0.2-0.5,0.2-0.7,0.2-0.7c0,0-0.2-0.1-0.7-0.3L26,85.8l0.3-1l-0.6-0.1c-0.8-0.2-1.3-0.3-1.9,1.4l-0.4,1.2    C23.3,87.7,23.3,87.8,23.3,87.8C23.3,87.8,23.3,87.8,23.3,87.8z M23.6,83.5L23.6,83.5C23.6,83.6,23.7,83.5,23.6,83.5L23.6,83.5z"
   id="path101" />
		<path
   class="st2"
   d="M38,81.9l2.3-4.2l-0.4-0.2c-0.7,1.3-1.1,1.4-2.5,0.6l-8-4.4l0,0l13.4-0.3l0.9-1.7l-9.8-5.4    c-1.4-0.8-1.5-1.2-0.8-2.4l-0.4-0.2l-2.3,4.2l0.4,0.2c0.7-1.3,1.1-1.4,2.5-0.6l7.5,4.2l0,0l-12.7,0.3l-1.9,3.5l0.4,0.2    c0.7-1.3,1.1-1.4,2.5-0.6l7.7,4.3c1.4,0.8,1.5,1.2,0.8,2.4L38,81.9L38,81.9z"
   id="path102" />
		<path
   class="st2"
   d="M38.3,82.9l-1.8-1l0.4-0.7c0.3-0.6,0.3-0.8,0.3-0.8c0-0.1-0.1-0.2-0.8-0.6l-7.7-4.3c-1-0.6-1-0.6-1.5,0.3    l-0.4,0.7l-1.8-1l2.5-4.5l10.5-0.2L32.9,68c-1-0.6-1-0.6-1.5,0.3l-0.4,0.7l-1.8-1l3-5.5l1.8,1l-0.4,0.7c-0.4,0.7-0.3,0.8-0.3,0.8    c0,0.1,0.1,0.2,0.9,0.6l10.5,5.8L43.2,74l-11.1,0.2l5.6,3.1c1,0.6,1,0.6,1.5-0.3l0.4-0.7l1.8,1L38.3,82.9z M38.1,79.2    c0.1,0.1,0.2,0.2,0.3,0.4l0.2-0.3C38.5,79.3,38.3,79.2,38.1,79.2z M27.8,73.7c0.2,0,0.4,0,0.6,0.1l0.6-0.9l0.4,0l12.9-0.3l0.4-0.7    l-1-0.5l-0.5,0.8l-0.4,0l-12.3,0.3L27.8,73.7z M32.1,66.1c0.2,0,0.3,0,0.5,0.1c-0.1-0.1-0.2-0.2-0.3-0.4L32.1,66.1z"
   id="path103" />
		<path
   class="st2"
   d="M44.8,53.2l-2.5-1.9c-0.5,0.4-1.5,1.3-2.4,2.4c-1.9,2.3-2,4.4-0.2,5.8c1.3,1,2.7,0.9,4.1,0.4    c2.1-0.7,4.2-2.1,5.8-0.8c1,0.8,1.1,2.2,0,3.6c-1.7,2.1-3.5,1.2-4.4,0.8l-0.4,0.5l2.7,2c0.6-0.4,1.7-1.2,2.7-2.5    c2-2.4,2.5-4.8,0.3-6.6c-1.1-0.9-2.2-0.9-3.5-0.6c-1.9,0.4-4.8,2.6-6.4,1.3c-0.8-0.7-0.9-1.9,0.1-3.2c1.4-1.7,2.8-1.2,3.8-0.6    L44.8,53.2L44.8,53.2z"
   id="path104" />
		<path
   class="st2"
   d="M47.3,66.8l-0.5-0.3L43.5,64l1.2-1.5l0.5,0.3c1.2,0.6,2.3,0.9,3.5-0.6c0.8-1,0.8-1.9,0.1-2.5    c-0.8-0.7-1.9-0.3-3.6,0.4c-0.5,0.2-1,0.4-1.5,0.6c-1.4,0.4-3.1,0.8-4.8-0.5c-1-0.8-1.6-1.9-1.5-3.2c0-1.2,0.6-2.4,1.6-3.7    c0.8-1,1.7-1.8,2.3-2.3l0.6-0.6l3.7,2.7l-1.3,1.6L44,54.3c-1.2-0.7-2-0.6-2.8,0.4c-0.7,0.9-0.8,1.7-0.3,2.1    c0.7,0.6,2.3-0.1,3.7-0.7c0.7-0.3,1.4-0.6,2.1-0.8c1.2-0.3,2.7-0.4,4.1,0.7c1.4,1.1,3.2,3.6-0.2,7.7c-1,1.3-2.2,2.1-2.8,2.6    L47.3,66.8z M46.9,64.7l0.3,0.3c0.1-0.1,0.3-0.2,0.4-0.3C47.4,64.7,47.2,64.7,46.9,64.7z M47.9,57.8c0.7,0,1.3,0.2,1.9,0.7    c0.6,0.5,0.9,1.1,1,1.8c0.4-1.7-0.6-2.5-1.1-2.9c-0.8-0.6-1.6-0.7-2.8-0.4c-0.5,0.1-1.1,0.4-1.8,0.7c-1.8,0.8-3.8,1.6-5.2,0.5    c-0.4-0.3-0.7-0.8-0.8-1.4c0,0.1,0,0.2,0,0.3c0,0.8,0.3,1.4,0.9,2c0.9,0.7,1.8,0.8,3.4,0.3c0.5-0.2,0.9-0.3,1.4-0.5    C45.8,58.3,46.9,57.8,47.9,57.8z M42.2,52.3c-0.1,0.1-0.1,0.1-0.2,0.2c0.1,0,0.2,0,0.3-0.1L42.2,52.3z"
   id="path105" />
		<path
   class="st2"
   d="M56.7,55.7l4.3-3.8l-0.3-0.4c-1.1,1-1.5,0.9-2.6-0.3l-5.9-6.5c-1.1-1.2-1-1.6,0-2.6l-0.3-0.4l-4.3,3.8    l0.3,0.4c1.1-1,1.5-0.9,2.6,0.2l5.9,6.5c1.1,1.2,1.1,1.6,0,2.6L56.7,55.7L56.7,55.7z"
   id="path106" />
		<path
   class="st2"
   d="M56.6,56.8l-1.3-1.5l0.6-0.5c0.5-0.5,0.6-0.6,0.6-0.7c0,0,0-0.2-0.6-0.9l-5.9-6.5c-0.5-0.6-0.7-0.7-0.8-0.7    c0,0-0.2,0-0.7,0.5L47.9,47l-1.3-1.5l5.4-4.8l1.3,1.5l-0.6,0.5c-0.5,0.5-0.6,0.6-0.6,0.7c0,0,0,0.2,0.6,0.9l5.9,6.5    c0.5,0.6,0.7,0.7,0.8,0.7c0,0,0.2,0,0.7-0.5l0.6-0.5l1.3,1.5L56.6,56.8z M49.7,44.7c0.4,0.2,0.8,0.6,1.3,1.1l5.9,6.5    c0.5,0.5,0.8,1,0.9,1.4l0.9-0.9c-0.5-0.2-0.9-0.6-1.3-1.1l-5.9-6.5c-0.5-0.5-0.8-1-0.9-1.4L49.7,44.7z"
   id="path107" />
		<path
   class="st2"
   d="M65.7,35.5l-1.9-2.5c-0.6,0.3-1.8,0.8-2.9,1.6c-2.4,1.7-3.1,3.7-1.8,5.5c0.9,1.3,2.3,1.6,3.8,1.5    c2.2-0.1,4.6-0.9,5.8,0.8c0.7,1,0.4,2.4-1,3.4c-2.2,1.5-3.7,0.2-4.5-0.5l-0.5,0.3l2,2.7c0.7-0.2,2-0.7,3.3-1.6    c2.5-1.8,3.8-3.9,2.1-6.3c-0.8-1.1-1.9-1.5-3.2-1.5c-1.9-0.1-5.3,1.1-6.5-0.5c-0.6-0.9-0.3-2.1,1-3c1.8-1.2,3-0.4,3.8,0.5    L65.7,35.5L65.7,35.5z"
   id="path108" />
		<path
   class="st2"
   d="M64.4,49.2L64,48.8l-2.5-3.3l1.6-1.1l0.4,0.4c1,0.9,2,1.5,3.5,0.4c0.6-0.4,1-0.9,1.1-1.4c0.1-0.3,0-0.7-0.2-1    c-0.6-0.8-1.7-0.8-3.6-0.6c-0.5,0.1-1,0.1-1.6,0.1c-1.4,0-3.2-0.1-4.4-1.8c-0.6-0.9-0.9-1.9-0.7-2.9c0.2-1.3,1.2-2.6,2.7-3.7    c1-0.7,2.1-1.2,2.8-1.6L64,32l2.8,3.6l-1.7,1.2l-0.4-0.5c-0.9-1-1.8-1.1-2.8-0.4c-0.9,0.6-1.2,1.4-0.8,2c0.5,0.8,2.2,0.6,3.7,0.4    c0.8-0.1,1.5-0.2,2.2-0.2c1.2,0.1,2.7,0.3,3.7,1.8c1,1.4,2,4.3-2.3,7.3C67,48.3,65.7,48.8,65,49L64.4,49.2z M64.7,47.1l0.2,0.3    c0.2-0.1,0.3-0.1,0.5-0.2C65.1,47.2,64.9,47.2,64.7,47.1z M66.1,40.6c1.2,0,2.4,0.3,3.1,1.4c0.4,0.6,0.6,1.3,0.5,2    c0.8-1.5,0.1-2.6-0.2-3.1c-0.6-0.8-1.3-1.1-2.6-1.2c-0.5,0-1.2,0.1-1.9,0.2c-1.9,0.2-4.1,0.5-5.1-1c-0.3-0.4-0.5-1-0.4-1.6    c-0.1,0.2-0.2,0.4-0.2,0.6c-0.1,0.6,0,1.2,0.5,1.8c0.6,0.9,1.6,1.3,3.1,1.2c0.5,0,1-0.1,1.5-0.1C64.8,40.7,65.4,40.6,66.1,40.6z     M63.3,34c0.1,0,0.2,0,0.3,0l-0.1-0.2C63.5,33.9,63.4,33.9,63.3,34z"
   id="path109" />
		<path
   class="st2"
   d="M167.4,32.1c0-0.7,0.6-1.3,1.3-1.3c0.7,0,1.3,0.6,1.3,1.3c0,0.7-0.6,1.3-1.3,1.3    C168,33.4,167.4,32.8,167.4,32.1L167.4,32.1z"
   id="path110" />
		<path
   class="st2"
   d="M170.5,35.8c0-0.7,0.6-1.3,1.3-1.3c0.7,0,1.3,0.6,1.3,1.3s-0.6,1.3-1.3,1.3C171.1,37.1,170.5,36.5,170.5,35.8    L170.5,35.8z"
   id="path111" />
		<path
   class="st2"
   d="M169.5,41.5c0-0.7,0.6-1.3,1.3-1.3c0.7,0,1.3,0.6,1.3,1.3c0,0.7-0.6,1.3-1.3,1.3    C170.1,42.8,169.5,42.2,169.5,41.5L169.5,41.5z"
   id="path112" />
		<path
   class="st2"
   d="M163.5,43.1c0-0.7,0.6-1.3,1.3-1.3c0.7,0,1.3,0.6,1.3,1.3c0,0.7-0.6,1.3-1.3,1.3    C164.1,44.4,163.5,43.8,163.5,43.1L163.5,43.1z"
   id="path113" />
		<path
   class="st2"
   d="M160.3,39c0-0.7,0.6-1.3,1.3-1.3c0.7,0,1.3,0.6,1.3,1.3c0,0.7-0.6,1.3-1.3,1.3    C160.9,40.3,160.3,39.7,160.3,39L160.3,39z"
   id="path114" />
		<path
   class="st2"
   d="M161.7,33.6c0-0.7,0.6-1.3,1.3-1.3c0.7,0,1.3,0.6,1.3,1.3s-0.6,1.3-1.3,1.3C162.3,34.9,161.7,34.3,161.7,33.6    L161.7,33.6z"
   id="path115" />
		<path
   class="st2"
   d="M186.2,177.3c0-0.7,0.6-1.3,1.3-1.3c0.7,0,1.3,0.6,1.3,1.3c0,0.7-0.6,1.3-1.3,1.3    C186.8,178.6,186.2,178,186.2,177.3L186.2,177.3z"
   id="path116" />
		<path
   class="st2"
   d="M189.4,181c0-0.7,0.6-1.3,1.3-1.3s1.3,0.6,1.3,1.3c0,0.7-0.6,1.3-1.3,1.3S189.4,181.7,189.4,181L189.4,181z"
   id="path117" />
		<path
   class="st2"
   d="M188.4,186.7c0-0.7,0.6-1.3,1.3-1.3c0.7,0,1.3,0.6,1.3,1.3c0,0.7-0.6,1.3-1.3,1.3    C189,188,188.4,187.4,188.4,186.7L188.4,186.7z"
   id="path118" />
		<path
   class="st2"
   d="M182.4,188.3c0-0.7,0.6-1.3,1.3-1.3s1.3,0.6,1.3,1.3c0,0.7-0.6,1.3-1.3,1.3S182.4,189.1,182.4,188.3    L182.4,188.3z"
   id="path119" />
		<path
   class="st2"
   d="M179.2,184.2c0-0.7,0.6-1.3,1.3-1.3c0.7,0,1.3,0.6,1.3,1.3c0,0.7-0.6,1.3-1.3,1.3    C179.8,185.5,179.2,184.9,179.2,184.2L179.2,184.2z"
   id="path120" />
		<path
   class="st2"
   d="M180.6,178.8c0-0.7,0.6-1.3,1.3-1.3c0.7,0,1.3,0.6,1.3,1.3s-0.6,1.3-1.3,1.3    C181.2,180.2,180.6,179.6,180.6,178.8L180.6,178.8z"
   id="path121" />
		<path
   class="st2"
   d="M167.7,148.2c-0.3,0-0.5-0.1-0.6-0.4l-3.5-6c-0.1-0.2-0.1-0.5,0-0.8c0.1-0.2,0.4-0.4,0.6-0.4h6.9    c0.3,0,0.5,0.1,0.6,0.4c0.1,0.2,0.1,0.5,0,0.8l-3.5,6C168.2,148.1,168,148.2,167.7,148.2z M165.5,142.2l2.2,3.8l2.2-3.8H165.5z     M171.2,132.6h-6.9c-0.3,0-0.5-0.1-0.6-0.4c-0.1-0.2-0.1-0.5,0-0.8l3.5-6c0.1-0.2,0.4-0.4,0.6-0.4l0,0c0.3,0,0.5,0.1,0.6,0.4    l3.5,6c0.1,0.2,0.1,0.5,0,0.8C171.7,132.5,171.4,132.6,171.2,132.6z M165.5,131.1h4.3l-2.2-3.8L165.5,131.1z"
   id="path122" />
		<path
   class="st2"
   d="M167.7,160c-0.4,0-0.8-0.3-0.8-0.8v-10.1c0-0.4,0.3-0.8,0.8-0.8s0.8,0.3,0.8,0.8v10.1    C168.4,159.6,168.1,160,167.7,160z M167.7,140.5c-2.2,0-3.9-1.8-3.9-3.9c0-2.2,1.8-3.9,3.9-3.9c2.2,0,3.9,1.8,3.9,3.9    S169.9,140.5,167.7,140.5z M167.7,134.1c-1.3,0-2.4,1.1-2.4,2.4c0,1.3,1.1,2.4,2.4,2.4c1.3,0,2.4-1.1,2.4-2.4    S169,134.1,167.7,134.1z M167.7,122.7c-0.4,0-0.8-0.3-0.8-0.8v-8.6c0-0.4,0.3-0.8,0.8-0.8s0.8,0.3,0.8,0.8v8.6    C168.4,122.4,168.1,122.7,167.7,122.7z"
   id="path123" />
		<path
   class="st2"
   d="M174.3,165.9h-13.8c-0.4,0-0.8-0.3-0.8-0.8s0.3-0.8,0.8-0.8h13.8c0.4,0,0.8,0.3,0.8,0.8    S174.7,165.9,174.3,165.9z M174.3,109.9h-13.8c-0.4,0-0.8-0.3-0.8-0.8s0.3-0.8,0.8-0.8h13.8c0.4,0,0.8,0.3,0.8,0.8    S174.7,109.9,174.3,109.9z"
   id="path124" />
		<path
   class="st2"
   d="M176.1,171.2h-16.3v-66h-2.2v-8.2h21.2v8.2h-2.6V171.2z M161.3,169.7h13.3v-64.1h-13.3V169.7z M159.1,103.8    h18.2v-5.2h-18.2V103.8z M179.1,92.9H158v-8.2h21.2V92.9z M159.5,91.4h18.2v-5.2h-18.2V91.4z"
   id="path125" />
		<path
   class="st2"
   d="M164.9,97.6l-0.4-0.2c-0.8-0.4-1.3-0.9-1.7-1.7c-0.1-0.1-0.1-0.2-0.1-0.3c-0.1,0.2-0.3,0.4-0.5,0.6    c-0.8,0.8-1.6,1.1-2.6,1l-0.7,0v-4.6h18.7v5l-0.8,0c-1.3,0-2.2-0.5-3-1.5c-0.3-0.4-0.6-0.7-0.7-1.1c-0.1,0.2-0.2,0.4-0.4,0.7    c-0.6,1-1.3,1.5-2.4,1.9l-0.3,0.1l-0.3-0.2c-0.8-0.4-1.3-0.9-1.7-1.7c-0.2-0.3-0.3-0.5-0.4-0.8c-0.1,0.2-0.2,0.4-0.3,0.6    c-0.5,0.9-1,1.4-1.9,1.9L164.9,97.6z M168.8,94c0.1,0.3,0.2,0.6,0.4,0.9c0.3,0.5,0.5,0.7,0.9,1c0.6-0.3,0.9-0.6,1.3-1.2    c0.2-0.3,0.3-0.5,0.4-0.7H168.8z M174.3,94c0.1,0.4,0.3,0.7,0.6,1.1c0.4,0.4,0.7,0.7,1.2,0.8V94H174.3z M163.7,94    c0.1,0.3,0.2,0.6,0.4,0.9c0.3,0.4,0.5,0.7,0.8,0.9c0.4-0.3,0.7-0.6,1-1.1c0.2-0.3,0.3-0.5,0.4-0.8H163.7z M160.3,94v1.5    c0.3-0.1,0.5-0.2,0.8-0.5c0.3-0.3,0.5-0.6,0.6-1H160.3z"
   id="path126" />
		<path
   class="st2"
   d="M178.8,177.9h-22.4v-8.2h22.4V177.9z M157.9,176.4h19.4v-5.2h-19.4V176.4z"
   id="path127" />
		<path
   class="st2"
   d="M67,97.6l-0.4-0.2c-0.8-0.4-1.3-0.9-1.7-1.7c-0.1-0.1-0.1-0.2-0.1-0.3c-0.1,0.2-0.3,0.4-0.5,0.6    c-0.8,0.8-1.6,1.1-2.7,1l-0.7,0v-4.5h18.7v5l-0.8,0c-1.3,0-2.2-0.5-3-1.5c-0.3-0.4-0.6-0.7-0.7-1.1c-0.1,0.2-0.2,0.4-0.4,0.7    c-0.6,1-1.3,1.5-2.4,1.9L72,97.5l-0.3-0.2c-0.8-0.4-1.3-0.9-1.7-1.7c-0.2-0.3-0.3-0.5-0.4-0.8c-0.1,0.2-0.2,0.4-0.3,0.6    c-0.5,0.9-1,1.4-1.9,1.9L67,97.6z M70.8,94c0.1,0.3,0.2,0.6,0.4,0.9c0.3,0.5,0.5,0.7,0.9,1c0.6-0.3,0.9-0.6,1.3-1.2    c0.2-0.3,0.3-0.5,0.4-0.7H70.8z M76.3,94c0.1,0.4,0.3,0.7,0.6,1.1c0.4,0.4,0.7,0.7,1.2,0.8V94H76.3z M65.7,94    c0.1,0.3,0.2,0.6,0.4,0.9c0.3,0.4,0.5,0.7,0.8,0.9c0.4-0.3,0.7-0.6,1-1.1c0.2-0.3,0.3-0.5,0.4-0.8H65.7z M62.3,94v1.5    c0.3-0.1,0.5-0.2,0.8-0.5c0.3-0.3,0.5-0.6,0.6-1H62.3z"
   id="path128" />
		<path
   class="st2"
   d="M77.1,165.9H63.3c-0.4,0-0.8-0.3-0.8-0.8s0.3-0.8,0.8-0.8h13.8c0.4,0,0.8,0.3,0.8,0.8S77.5,165.9,77.1,165.9z    "
   id="path129" />
		<path
   class="st2"
   d="M78.4,170.8H62.1v-65.6h-3v-8.2h21.2v8.2h-1.8V170.8z M63.6,169.3h13.3v-63.7H63.6V169.3z M60.6,103.8h18.2    v-5.2H60.6V103.8z"
   id="path130" />
		<path
   class="st2"
   d="M70.2,147.2c-0.3,0-0.5-0.1-0.6-0.4l-3.5-6c-0.1-0.2-0.1-0.5,0-0.8c0.1-0.2,0.4-0.4,0.6-0.4h6.9    c0.3,0,0.5,0.1,0.6,0.4c0.1,0.2,0.1,0.5,0,0.8l-3.5,6C70.7,147.1,70.5,147.2,70.2,147.2z M68.1,141.2l2.2,3.8l2.2-3.8H68.1z     M73.7,131.6h-6.9c-0.3,0-0.5-0.1-0.6-0.4c-0.1-0.2-0.1-0.5,0-0.8l3.5-6c0.1-0.2,0.4-0.4,0.6-0.4l0,0c0.3,0,0.5,0.1,0.6,0.4l3.5,6    c0.1,0.2,0.1,0.5,0,0.8C74.2,131.5,74,131.6,73.7,131.6z M68.1,130.1h4.3l-2.2-3.8L68.1,130.1z"
   id="path131" />
		<path
   class="st2"
   d="M70.2,159c-0.4,0-0.8-0.3-0.8-0.8v-10.1c0-0.4,0.3-0.8,0.8-0.8s0.8,0.3,0.8,0.8v10.1    C71,158.6,70.6,159,70.2,159z M70.2,139.5c-2.2,0-3.9-1.8-3.9-3.9c0-2.2,1.8-3.9,3.9-3.9c2.2,0,3.9,1.8,3.9,3.9    C74.2,137.7,72.4,139.5,70.2,139.5z M70.2,133.1c-1.3,0-2.4,1.1-2.4,2.4c0,1.3,1.1,2.4,2.4,2.4c1.3,0,2.4-1.1,2.4-2.4    C72.7,134.2,71.6,133.1,70.2,133.1z M70.2,121.8c-0.4,0-0.8-0.3-0.8-0.8v-8.6c0-0.4,0.3-0.8,0.8-0.8s0.8,0.3,0.8,0.8v8.6    C71,121.4,70.6,121.8,70.2,121.8z"
   id="path132" />
		<path
   class="st2"
   d="M80.6,177.9H58.3v-8.2h22.4V177.9z M59.8,176.4h19.4v-5.2H59.8V176.4z"
   id="path133" />
		<path
   class="st2"
   d="M77.1,109.9H63.3c-0.4,0-0.8-0.3-0.8-0.8s0.3-0.8,0.8-0.8h13.8c0.4,0,0.8,0.3,0.8,0.8S77.5,109.9,77.1,109.9z    "
   id="path134" />
		<path
   class="st2"
   d="M166.3,82.7c-0.6,0-1.2-0.1-1.8-0.4c-1-0.5-1.8-1.3-2.2-2.4c-0.4-1.1-0.3-2.3,0.2-3.3l1.3,0.7    c-0.3,0.7-0.4,1.4-0.1,2.1c0.2,0.7,0.7,1.2,1.4,1.5c0.7,0.3,1.4,0.3,2.1,0.1c1.4-0.5,2.1-2.1,1.6-3.4l1.4-0.5    c0.8,2.2-0.3,4.6-2.5,5.4C167.3,82.6,166.8,82.7,166.3,82.7z M72.4,81.4c-0.5,0-1-0.1-1.4-0.3c-2.2-0.8-3.3-3.2-2.5-5.4l1.4,0.5    c-0.5,1.4,0.2,2.9,1.6,3.4c1.4,0.5,2.9-0.2,3.4-1.6c0.3-0.7,0.2-1.5-0.1-2.1l1.3-0.7c0.5,1,0.6,2.2,0.2,3.3    C75.7,80.3,74.1,81.4,72.4,81.4z M163.1,75.2c-0.3,0-0.7,0-1-0.1c-1.1-0.3-2-0.9-2.6-1.9c-0.6-1-0.8-2.2-0.4-3.3l1.4,0.4    c-0.2,0.7-0.1,1.5,0.3,2.1c0.8,1.3,2.4,1.7,3.7,0.9c0.6-0.4,1-1,1.2-1.7c0.2-0.7,0.1-1.4-0.3-2l1.3-0.8c0.6,1,0.7,2.1,0.5,3.2    c-0.3,1.1-0.9,2-1.9,2.6C164.6,75,163.9,75.2,163.1,75.2z M75.6,73.9c-0.8,0-1.5-0.2-2.1-0.6c-1-0.6-1.6-1.5-1.9-2.6    c-0.3-1.1-0.1-2.2,0.5-3.2l1.3,0.8c-0.4,0.6-0.5,1.3-0.3,2c0.2,0.7,0.6,1.3,1.2,1.7c0.6,0.4,1.3,0.5,2,0.3    c0.7-0.2,1.3-0.6,1.7-1.2c0.4-0.6,0.5-1.4,0.3-2.1l1.4-0.4c0.3,1.1,0.1,2.3-0.5,3.3c-0.6,1-1.5,1.6-2.6,1.9    C76.3,73.8,76,73.9,75.6,73.9z M158.7,68c0,0-0.1,0-0.1,0c-1.1,0-2.2-0.5-2.9-1.3c-0.8-0.8-1.2-2-1.1-3.1l1.5,0.1    c0,0.7,0.2,1.5,0.7,2c0.5,0.5,1.2,0.8,1.9,0.9c0.7,0,1.4-0.2,1.9-0.7c0.5-0.5,0.8-1.2,0.9-1.9c0-0.7-0.2-1.4-0.7-1.9l1.1-1    c0.8,0.8,1.2,1.9,1.1,3c0,1.1-0.5,2.2-1.3,2.9C160.8,67.6,159.8,68,158.7,68z M80,66.7c-1,0-2-0.4-2.9-1.1    c-0.8-0.8-1.3-1.8-1.3-2.9c0-1.1,0.4-2.2,1.1-3l1.1,1c-0.5,0.5-0.7,1.2-0.7,1.9c0,0.7,0.3,1.4,0.9,1.9c1.1,1,2.8,1,3.8-0.1    c0.5-0.5,0.8-1.3,0.7-2l1.5-0.1c0.1,1.1-0.3,2.3-1.1,3.1C82.2,66.3,81.1,66.7,80,66.7z M152.9,61.4c-0.9,0-1.7-0.3-2.4-0.8    c-0.9-0.7-1.6-1.7-1.7-2.8l1.5-0.2c0.1,0.7,0.5,1.4,1.1,1.8c0.6,0.4,1.3,0.6,2,0.4c0.7-0.1,1.3-0.5,1.7-1.1c0.4-0.6,0.6-1.3,0.4-2    c-0.1-0.7-0.5-1.3-1.1-1.7l0.9-1.2c0.9,0.6,1.5,1.6,1.7,2.7c0.2,1.1-0.1,2.2-0.7,3.1c-0.6,0.9-1.6,1.5-2.7,1.7    C153.4,61.4,153.1,61.4,152.9,61.4z M85.8,60.1c-1.3,0-2.6-0.6-3.4-1.8c-1.3-1.9-0.9-4.5,1-5.8l0.9,1.2c-1.2,0.8-1.5,2.5-0.7,3.7    c0.9,1.2,2.5,1.5,3.7,0.7c0.6-0.4,1-1.1,1.1-1.8l1.5,0.2c-0.2,1.1-0.8,2.2-1.7,2.8C87.5,59.9,86.7,60.1,85.8,60.1z M146.4,56.5    c-0.5,0-1.1-0.1-1.6-0.3c-1.1-0.4-1.9-1.3-2.3-2.4l1.4-0.5c0.3,0.7,0.8,1.2,1.5,1.5c1.4,0.6,2.9-0.1,3.5-1.4    c0.3-0.7,0.3-1.4,0-2.1c-0.3-0.7-0.8-1.2-1.4-1.5l0.6-1.4c1,0.4,1.8,1.2,2.2,2.3c0.4,1,0.4,2.2,0,3.2    C149.6,55.6,148,56.5,146.4,56.5z M92.4,55.2c-1.6,0-3.2-1-3.9-2.6c-0.4-1-0.4-2.2,0-3.2c0.4-1,1.2-1.8,2.2-2.3l0.6,1.4    c-0.7,0.3-1.2,0.8-1.4,1.5s-0.3,1.4,0,2.1c0.6,1.4,2.2,2,3.5,1.4c0.7-0.3,1.2-0.8,1.5-1.5l1.4,0.5c-0.4,1.1-1.2,1.9-2.3,2.4    C93.5,55.1,92.9,55.2,92.4,55.2z M139.4,52.1c-0.3,0-0.5,0-0.8-0.1c-1.1-0.2-2.1-0.9-2.7-1.9l1.3-0.8c0.4,0.6,1,1.1,1.8,1.2    c1.5,0.3,2.9-0.7,3.1-2.1c0.3-1.5-0.7-2.9-2.1-3.2l0.3-1.5c2.3,0.4,3.8,2.6,3.3,4.9C143.1,50.7,141.4,52.1,139.4,52.1z M99.3,51.3    c-0.8,0-1.6-0.2-2.3-0.7c-0.9-0.6-1.6-1.6-1.8-2.7c-0.2-1.1,0-2.2,0.6-3.1c0.6-0.9,1.6-1.6,2.7-1.8l0.3,1.5    c-0.7,0.1-1.3,0.5-1.7,1.1c-0.4,0.6-0.5,1.3-0.4,2c0.1,0.7,0.5,1.3,1.1,1.7c0.6,0.4,1.3,0.5,2,0.4c0.7-0.1,1.4-0.6,1.8-1.2    l1.3,0.8c-0.6,1-1.6,1.6-2.7,1.9C99.8,51.2,99.6,51.3,99.3,51.3z M131.2,48.6c-1.1,0-2.2-0.4-2.9-1.2l1-1.1c0.5,0.5,1.2,0.8,2,0.8    c0.7,0,1.4-0.3,1.9-0.9c0.5-0.5,0.7-1.2,0.7-1.9c0-0.7-0.3-1.4-0.9-1.9c-0.5-0.5-1.2-0.7-1.9-0.7l-0.1-1.5c1.1,0,2.2,0.4,3,1.1    s1.3,1.8,1.3,2.9c0,1.1-0.4,2.2-1.1,3c-0.8,0.8-1.8,1.3-2.9,1.3C131.3,48.6,131.2,48.6,131.2,48.6z M107.5,48.2c0,0-0.1,0-0.2,0    c-1.1,0-2.2-0.5-2.9-1.3c-0.8-0.8-1.2-1.9-1.1-3c0.1-2.3,2-4.1,4.3-4l-0.1,1.5c-1.5,0-2.7,1.1-2.8,2.6c0,0.7,0.2,1.4,0.7,1.9    c0.5,0.5,1.2,0.8,1.9,0.9c0.7,0,1.5-0.2,2-0.8l1.1,1.1C109.7,47.8,108.6,48.2,107.5,48.2z"
   id="path135" />
		<path
   class="st2"
   d="M118.9,49.6c-2.9,0-5.2-3.4-5.2-7.6c0-4.3,2.3-7.6,5.2-7.6c2.9,0,5.2,3.4,5.2,7.6    C124.1,46.3,121.8,49.6,118.9,49.6z M118.9,35.9c-2,0-3.7,2.8-3.7,6.1c0,3.3,1.7,6.1,3.7,6.1c2,0,3.7-2.8,3.7-6.1    C122.6,38.7,120.9,35.9,118.9,35.9z"
   id="path136" />
		<path
   class="st2"
   d="M77.3,85.8l-15-0.1l0.1-0.8c3.5-24.6,26.7-46.5,52.9-49.9l0.2,1.5c-25.2,3.2-47.7,24.1-51.5,47.7l12,0.1    c4-20.4,21.8-35.1,42.6-35.1v1.5c-20.3,0-37.7,14.5-41.3,34.5L77.3,85.8z M160,85.7l-0.1-0.6c-3.4-19.9-20.7-34.4-41.1-34.4v-1.5    c20.9,0,38.7,14.7,42.5,35l12,0c-3.8-25.9-25.1-45.8-50.9-47.3l0.1-1.5c26.8,1.6,48.8,22.4,52.4,49.4l0.1,0.8L160,85.7z"
   id="path137" />
		<path
   class="st2"
   d="M109.6,124.7l-1.2-5.6l-2.6-4.6l2.1-1.5l5.5-1.6c0.4-0.1,0.8,0.1,0.9,0.5c0.1,0.4-0.1,0.8-0.5,0.9l-1.9,0.6    l2.2,4.4l0.3,1.8h2.9c0.4,0,0.8,0.3,0.8,0.8s-0.3,0.8-0.8,0.8h-4.2l-0.4-3l-2.2-4.4l-1.9,0.6l-0.7,0.5l2.1,3.8l1,4.5l7.7-0.7    c0.4,0,0.8,0.3,0.8,0.7s-0.3,0.8-0.7,0.8L109.6,124.7z M130.8,124h-2.3c-0.4,0-0.8-0.3-0.8-0.8s0.3-0.8,0.8-0.8h1.3l2.1-4.6    l-0.2-0.9l-2.5-1.3c-0.4-0.2-0.5-0.6-0.3-1c0.2-0.4,0.6-0.5,1-0.3l3.1,1.6l0.5,2L130.8,124z M124.2,123.8h-1.8    c-0.4,0-0.8-0.3-0.8-0.8s0.3-0.8,0.8-0.8h1.8c0.4,0,0.8,0.3,0.8,0.8S124.6,123.8,124.2,123.8z M121.8,120.2    c-0.4,0-0.7-0.3-0.7-0.7c0-0.4,0.3-0.8,0.7-0.8l3.4-0.4c0.4,0,0.8,0.3,0.8,0.7c0,0.4-0.3,0.8-0.7,0.8L121.8,120.2    C121.8,120.2,121.8,120.2,121.8,120.2z"
   id="path138" />
		<path
   class="st2"
   d="M116.2,176.2c-4.5,0-8.4-0.3-10.1-0.4c-1.2-0.1-3.9-0.7-6.2-1.3c-1.2-0.3-1.9-0.5-3-0.9    c-0.3-0.1-0.5-0.4-0.5-0.8c0.2-3,0.5-4.7,1.1-7.6c0.6-2.6,1-4,1.9-6.5c0.1-0.4,0.6-0.6,1-0.4c0.4,0.1,0.6,0.6,0.4,1    c-0.9,2.4-1.3,3.8-1.9,6.3c-0.6,2.6-0.9,4.2-1.1,6.8c0.8,0.2,1.4,0.4,2.3,0.7c2.4,0.6,5,1.1,5.9,1.2c3.3,0.3,14.9,1.1,23.1-0.7    c0,0,0.1,0,0.1,0c1.5-0.1,3.2-0.3,5-0.4c0.2,0,0.5-0.1,0.7-0.2c-0.1-1-0.2-1.7-0.2-2.3c0-0.7-0.1-1.3-0.2-2.2l-0.1-0.8    c-0.3-1.9-0.4-3.1-1.1-4.9c-0.4-1.2-0.7-1.8-1.3-2.9c-0.2-0.4-0.1-0.8,0.3-1c0.4-0.2,0.8-0.1,1,0.3c0.6,1.2,1,1.9,1.4,3.1    c0.7,2,0.9,3.4,1.2,5.3l0.1,0.8c0.1,1,0.2,1.6,0.2,2.3c0,0.7,0.1,1.4,0.2,2.5c0,0.3,0,0.6-0.2,0.8c-0.5,0.6-1.5,0.8-1.9,0.8    c-1.8,0.1-3.5,0.2-5,0.4C125.5,175.9,120.5,176.2,116.2,176.2z M119.8,173.1c-0.4,0-0.7-0.3-0.7-0.7l-0.5-9.9    c0-0.4,0.3-0.8,0.7-0.8c0.4,0,0.8,0.3,0.8,0.7l0.5,9.9C120.6,172.8,120.3,173.1,119.8,173.1C119.8,173.1,119.8,173.1,119.8,173.1z     M126.1,173.1c-0.4,0-0.8-0.3-0.8-0.8v-2.8l-0.8-7.5c0-0.4,0.3-0.8,0.7-0.8c0.4,0,0.8,0.3,0.8,0.7l0.8,7.6l0,2.9    C126.9,172.8,126.6,173.1,126.1,173.1z M131.5,172.8C131.5,172.8,131.5,172.8,131.5,172.8c-0.5,0-0.8-0.4-0.7-0.8l0.2-4.1    l-2.1-6.4c-0.1-0.4,0.1-0.8,0.5-0.9c0.4-0.1,0.8,0.1,0.9,0.5l2.1,6.6c0,0.1,0,0.2,0,0.3l-0.2,4.3    C132.3,172.5,131.9,172.8,131.5,172.8z M104.3,172.3c-0.4,0-0.7-0.3-0.7-0.7c0-0.5,0-0.7,0-1.2c0.1-1.5,0.4-2.5,0.7-3.6    c0.1-0.4,0.3-0.9,0.4-1.4c0.4-1.6,0.7-2.5,1.3-4.1c0.1-0.4,0.6-0.6,1-0.5c0.4,0.1,0.6,0.6,0.5,1c-0.6,1.6-0.8,2.4-1.3,4    c-0.1,0.5-0.3,1-0.4,1.4c-0.3,1.1-0.6,1.9-0.7,3.2c0,0.4,0,0.6,0,1.1C105,172,104.7,172.3,104.3,172.3    C104.3,172.3,104.3,172.3,104.3,172.3z M113.1,172C113.1,172,113.1,172,113.1,172c-0.5,0-0.8-0.4-0.7-0.8l0.2-4c0-0.1,0-0.1,0-0.2    l1.5-4.8c0.1-0.4,0.5-0.6,0.9-0.5c0.4,0.1,0.6,0.5,0.5,0.9l-1.5,4.7l-0.2,3.9C113.8,171.7,113.5,172,113.1,172z M125.7,117.7h-5.9    c-0.4,0-0.8-0.3-0.8-0.8s0.3-0.8,0.8-0.8h5.9c0.4,0,0.8,0.3,0.8,0.8S126.1,117.7,125.7,117.7z"
   id="path139" />
		<path
   class="st2"
   d="M139.4,122.1l-4-4.3l0-23.1l0.4,0.4h14.9l5.3,2.8h0.3v23.6h-16.8L139.4,122.1z M151.6,120.1h3.1v-4.2h-3.1    L151.6,120.1z M144.3,120.1h5.8l0-4.2h-5.8V120.1z M139.4,120.1h3.4v-4.2h-3.4L139.4,120.1z M136.9,117.2l1.1,1.1l0-2.7l-1.1-1.3    L136.9,117.2z M151.6,114.4h3.1v-10.1h-3.1L151.6,114.4z M144.3,114.4h5.8l0-10.1h-5.8V114.4z M139.4,114.4h3.4v-10.1h-3.4    L139.4,114.4z M136.9,111.9l1.1,1.3l0-9.4l-1.1-1.2L136.9,111.9z M151.6,102.8h3.1v-3.4h-3.1L151.6,102.8z M144.3,102.8h5.8l0-3.4    h-5.8V102.8z M139.4,102.8h3.4v-3.4h-3.4L139.4,102.8z M136.8,100.4l1.1,1.2l0-2.7l-1.1-0.9L136.8,100.4z M151.6,97.9h1.1    l-2.4-1.3h-0.5L151.6,97.9z M143.9,97.9h5.2l-1.8-1.3h-4.8L143.9,97.9z M139,97.9h2.6l-1.4-1.3h-2.7L139,97.9z"
   id="path140" />
		<path
   class="st2"
   d="M166.8,41.7c-2.3,0-4.1-1.9-4.1-4.1c0-2.3,1.9-4.1,4.1-4.1c2.3,0,4.1,1.9,4.1,4.1    C170.9,39.9,169.1,41.7,166.8,41.7z M166.8,35c-1.5,0-2.6,1.2-2.6,2.6c0,1.5,1.2,2.6,2.6,2.6c1.5,0,2.6-1.2,2.6-2.6    C169.4,36.1,168.2,35,166.8,35z M81.8,34.8c-2.3,0-4.1-1.9-4.1-4.1s1.9-4.1,4.1-4.1c2.3,0,4.1,1.9,4.1,4.1S84.1,34.8,81.8,34.8z     M81.8,28.1c-1.5,0-2.6,1.2-2.6,2.6s1.2,2.6,2.6,2.6c1.5,0,2.6-1.2,2.6-2.6S83.3,28.1,81.8,28.1z"
   id="path141" />
		<path
   class="st2"
   d="M120.8,161.1c-0.4,0-0.8,0-1.3,0l-0.9,0c-3.4,0-5.5-0.3-8.5-0.9c-1.4-0.3-2-0.4-3.1-0.7    c-2.1,0.6-3.6,0.5-5.7-0.1c-1-0.3-1.6-0.5-2.5-1.1c-0.2-0.1-0.4-0.4-0.4-0.7c0.2-2.4,0.4-3.8,0.9-6.2c0.4-1.6,0.7-2.5,1.2-3.9    c-1.8-0.4-3.1-0.9-4.7-2.1c-1.5-1-2.3-1.8-3.3-3.3c0,0,0,0,0,0c-0.6-0.1-1.1-0.3-1.6-0.7c-1.1-0.8-1.2-1.9-1.3-3l0-0.5    c-0.1-1.3,0.1-2.1,0.5-3.2l0.1-0.2c0.4-1.3,0.7-2,1.3-3c0.7-1.1,1.6-1.8,2.3-2.3c0.8-0.6,1.5-1.1,2-2c0.4-0.8,0.6-1.3,0.8-2.1    c-0.2-0.2-0.3-0.5-0.2-0.8l0.5-1.6c0,0,0-0.1,0.1-0.1l2-3.8c0.1-0.1,0.1-0.2,0.3-0.3l2.5-1.6c0,0,0,0,0,0l-4.2-11.2    c-0.2-0.1-0.4-0.4-0.4-0.7c0-0.1,0-0.1,0-0.2l-0.8-2.2c-0.3-0.1-0.5-0.3-0.6-0.6c-0.2-0.6-0.3-0.9-0.8-1.3    c-0.4-0.3-0.7-0.4-1.3-0.5l-0.2,0c-1.4-0.3-2.2-0.1-3.5,0.5c-0.3,0.1-0.6,0.1-0.8-0.1c-0.2-0.2-0.3-0.5-0.2-0.8    c0.4-1.5,1.3-2.4,2.7-3c0.8-0.3,1.5-0.5,2.2-0.4c-0.1-0.5-0.1-1-0.1-1.6c0-1.1,0.2-1.9,0.8-2.9c0.1-0.2,0.3-0.3,0.5-0.4    c0.2-0.1,0.4,0,0.6,0.1c1.1,0.7,1.7,1.2,2.5,2.2c0.2,0.3,0.4,0.5,0.5,0.7c0.5-0.4,1-0.7,1.8-0.9c1.7-0.4,3.1,0,4.4,1.2    c0.2,0.2,0.3,0.6,0.1,0.9c-0.1,0.3-0.5,0.4-0.8,0.4c-1.3-0.2-2.3,0.2-3.1,1.3c-0.6,0.8-0.8,1.5-0.6,2.6c0,0.2,0,0.5-0.2,0.6    c0,0,0,0,0,0l12.6,33.1l5.8-0.6l4.5,0.1l6,0.7c0.4-0.8,0.7-1.4,1.1-2.4c0.1-0.3,0.2-0.5,0.3-0.8c0.3-0.5,0.4-0.9,0.5-1.6    c0.1-1.3-0.1-2.1-0.9-3.2c-0.2-0.3-0.2-0.8,0.2-1c0.3-0.2,0.8-0.2,1,0.2c1,1.3,1.3,2.5,1.1,4.2c-0.1,0.9-0.3,1.5-0.6,2.1    c-0.1,0.2-0.2,0.4-0.3,0.7c-0.1,0.2-0.1,0.3-0.2,0.4c0,0,0,0,0,0l3.5-4.3c0.1-0.1,0.2-0.2,0.3-0.2l0.9-0.4    c-0.1-0.1-0.1-0.2-0.1-0.3l-1.4-6.1l-2.3-1.7c-0.3-0.3-0.4-0.7-0.1-1.1c0.3-0.3,0.7-0.4,1.1-0.1l2.5,1.9c0.1,0.1,0.2,0.3,0.3,0.4    l1.4,6.3c0,0,0,0,0,0l0.3-0.1c0.1,0,0.2-0.1,0.2-0.1c0.1-0.1,0.3-0.2,0.4-0.2c0.4-0.1,0.8,0.2,0.9,0.6c0,0.2,0.1,0.3,0.2,0.4    c0,0,0.2-0.1,0.4-0.1c0.4-0.2,0.8-0.4,1.4-0.3c0.8,0.1,1.3,0.6,1.6,1c0.4,0.4,0.5,0.5,0.8,0.5c1.2,0,1.7-0.1,1.9-0.9    c-0.2,0-0.5,0-0.8-0.1c-0.6-0.2-1-0.5-1.4-0.8c-0.6-0.4-1.1-0.7-1.8-0.7c-1-0.1-1.5,0-2.4,0.3c-0.4,0.1-0.8,0-1-0.4    c-0.1-0.4,0-0.8,0.4-1c0.2-0.1,0.5-0.2,0.7-0.2c-0.2-0.6-0.3-1.1-0.1-1.7c0.2-0.9,0.6-1.5,1.3-2c0.3-0.2,0.8-0.2,1,0.2    s0.2,0.8-0.2,1c-0.4,0.3-0.6,0.6-0.7,1.1c-0.1,0.3-0.1,0.5,0,0.7c0.6,0.3,1,0.4,1.7,0.6c1,0.3,1.6,0.4,2.5,0.5    c0.4-0.7,0.8-1.2,1.5-1.7c0.9-0.6,1.8-0.6,2.6-0.6c0-0.4,0.2-0.8,0.6-0.8l1.2-0.2c0.4-0.1,0.7,0.2,0.8,0.6    c0.3-0.2,0.7-0.3,1.1-0.4c0.6-0.1,1.2,0.1,1.6,0.2c0.1,0,0.3,0.1,0.4,0.1c0.1-0.2,0.1-0.3,0-0.5c-0.2-0.4,0-0.8,0.3-1    c0.4-0.2,0.8,0,1,0.3c0.3,0.6,0.3,1.3,0,1.9c-0.5,1.1-1.7,0.7-2.2,0.6c-0.3-0.1-0.6-0.2-0.8-0.2c-0.3,0.1-0.6,0.2-0.9,0.3    c-0.3,0.1-0.6,0.3-1,0.4c-0.8,0.3-1.6,0.2-2.2,0.1c-0.8-0.1-1.3-0.1-1.8,0.3c-0.7,0.5-1,0.8-1.3,1.6c0.3,0,0.6,0.1,0.9,0.4    c0.1,0.1,0.3,0.4,0.2,0.8c-0.1,2-1.4,2.5-2.5,2.6c0,0,0,0.1-0.1,0.1c-1.9,3.1-2.2,4.1-3.3,8c-0.7,2.7-1.8,5.4-4.2,7.8    c-0.8,0.7-1.5,1.5-2.9,1.4c-0.1,0-0.1,0-0.2,0c1.5,4,1.9,6.9,1.8,11.4c0,0.4-0.3,0.7-0.7,0.7h-5.6c-1.5,0.6-2.5,0.9-4.2,1.3    C123.4,161.1,122.2,161.1,120.8,161.1z M106.9,158c0.1,0,0.1,0,0.2,0c1.3,0.4,1.8,0.5,3.2,0.8c3,0.6,5,0.8,8.2,0.9l0.9,0    c2,0,3.3,0,5.4-0.4c1.6-0.3,2.5-0.6,4.1-1.2c0.1,0,0.2-0.1,0.3-0.1h5.1c0.1-4.2-0.4-6.8-2-10.8c-1.2-3.1-2.2-4.8-4.2-7.4    c-0.2-0.3-0.2-0.8,0.1-1l-7.5-0.7l-6.2,0.3l3.5,9.2c0.1,0.4,0,0.8-0.4,1c-0.4,0.1-0.8,0-1-0.4l-15.8-41.3c0,0,0-0.1-0.1-0.1    c-0.1-0.1-0.2-0.2-0.4-0.2c-0.1,0-0.3,0-0.4,0.1c-0.2,0.2-0.3,0.3-0.2,0.6c0,0.1,0,0.1,0,0.2l14.2,38.4c0.1,0.4-0.1,0.8-0.4,1    c-0.2,0.1-0.3,0.1-0.5,0c-0.8,0.7-2.7,2.2-4.2,3c0.8,1.4,1.5,2.2,2.8,3.4c1.2,1.1,2,1.6,3.5,2.3c0.1,0,0.1,0.1,0.1,0.1l0.9,0.7    l0.2,0c-0.1-0.1-0.1-0.3-0.2-0.4c-0.6-0.7-0.9-1.1-1.6-1.6c-0.3-0.2-0.4-0.7-0.2-1c0.2-0.3,0.7-0.4,1-0.2c0.8,0.6,1.3,1.1,1.9,1.9    c0.3,0.4,0.5,0.9,0.6,1.2c0.1,0.2,0.1,0.4,0.2,0.5c0,0,0,0,0,0.1c0.1,0.1,0.1,0.1,0.2,0.2c0.1,0.1,0.2,0.1,0.4,0.2l-0.6-1.6    l-1.2-2.1c-0.2-0.4-0.1-0.8,0.3-1c0.4-0.2,0.8-0.1,1,0.3l1.3,2.1c0,0,0,0.1,0.1,0.1l0.7,2c0.4-0.2,0.8-0.1,1,0.3    c0.2,0.4,0.1,0.8-0.3,1c-1.1,0.7-2.3,0.7-3.4,0c-0.2-0.1-0.4-0.3-0.5-0.4l-1.3-0.1c-0.1,0-0.3-0.1-0.4-0.2l-1.1-0.8    c-1.6-0.7-2.5-1.3-3.8-2.5c-1.5-1.3-2.2-2.2-3.2-3.9c-0.7,0.1-1.5-0.1-2.1-0.6c-0.6-0.5-1-1.1-1-1.9c-0.7,0-1.4,0-2.3-0.1    c-0.6,1.5-0.9,2.4-1.2,4.1c-0.5,2.1-0.7,3.4-0.9,5.5c0.6,0.3,1,0.5,1.7,0.7c1.9,0.6,3.1,0.6,5,0C106.8,158,106.8,158,106.9,158z     M105.9,147.7c0,0.4,0.1,0.6,0.5,0.9c0.4,0.3,0.8,0.4,1.3,0.2c1.2-0.4,3.2-2,4.3-2.9l-1.2-1.4c-0.7,0.8-1.3,1.2-2.2,1.9    c-0.7,0.5-1.2,0.8-2,1.2c-0.1,0-0.1,0.1-0.2,0.1C106.2,147.6,106,147.6,105.9,147.7z M94.1,141.7c0.8,1.1,1.4,1.7,2.6,2.5    c1.8,1.2,3,1.7,5.2,2c1.5,0.2,2.5,0.2,4-0.1c0.7-0.4,1.1-0.6,1.7-1.1c0.8-0.6,1.3-1,2-1.7c-0.4-1-0.8-1.7-1.6-2.6    c-0.8-1-1.3-1.4-2.4-2.1c-0.1-0.1-0.1-0.1-0.2-0.2c0,0,0,0,0,0c-0.2,0-0.3,0.1-0.5,0.1c-3.1,0.9-4.7,1.3-8.8,2.1    c-0.7,0.1-1.1,0.4-1.6,0.8C94.3,141.5,94.2,141.6,94.1,141.7z M133.2,145.5c0.1,0,0.2,0.1,0.3,0.1c0.3,0.2,0.4,0.2,0.8,0.3    c0.6,0.1,1-0.2,1.7-0.9c2.3-2.1,3.2-4.7,3.9-7.1c1.1-3.8,1.5-5,3.1-7.8c-0.5-0.2-0.8-0.5-1.1-0.8c-0.3-0.3-0.5-0.5-0.8-0.6    c-0.1,0-0.4,0.1-0.6,0.2c-0.5,0.2-1.2,0.5-1.9-0.1c-0.2-0.1-0.3-0.3-0.4-0.4l-2.2,1l-3.4,4.2c-0.3,0.3-0.7,0.4-1.1,0.1    c-0.2-0.2-0.3-0.5-0.3-0.7c-0.3,0.8-0.6,1.4-1.1,2.2c0,0.1-0.1,0.1-0.2,0.2c0.2,0.2,0.3,0.4,0.2,0.7l-0.4,2.2    c-0.1,0.3-0.3,0.5-0.6,0.6c0,0,0,0,0,0.1C131.1,141.2,132.1,142.9,133.2,145.5z M111.1,142.9c0.1,0,0.3,0,0.4,0.1l-4.6-12.5    l-0.3,0.5c0.1,0.5,0.3,0.9,0.5,1.3c0.4,1.1,0.9,2.1,0.5,3.9c-0.1,0.7-0.4,1.1-0.7,1.4c0.9,0.6,1.5,1.2,2.2,2.1    C110,140.9,110.5,141.7,111.1,142.9C111,142.9,111.1,142.9,111.1,142.9z M98,125.6c-0.2,0.9-0.4,1.4-0.9,2.3    c-0.7,1.3-1.5,1.9-2.4,2.5c-0.7,0.5-1.4,1-1.9,1.9c-0.6,1-0.9,1.6-1.2,2.6l-0.1,0.2c-0.3,1-0.5,1.6-0.4,2.6c0,0.2,0,0.3,0,0.5    c0.1,1,0.1,1.5,0.7,1.9c0.4,0.3,0.7,0.4,1.2,0.4c0.2-0.1,0.4-0.2,0.5-0.4c0.6-0.4,1.2-0.8,2.2-1c4.1-0.8,5.6-1.1,8.7-2    c0.2-0.1,0.4-0.1,0.6-0.2c0.7-0.2,0.9-0.2,1.1-1c0.3-1.4,0-2.1-0.4-3.1c-0.2-0.5-0.4-1.1-0.6-1.8c0-0.2,0-0.4,0.1-0.5l0.5-0.8    l-3.5-2.8L98,125.6z M120.7,136.5C120.7,136.5,120.7,136.5,120.7,136.5l7.7,0.7l0.3-1.5c0-0.1,0.1-0.2,0.1-0.3l-5.9-0.7l-4.3-0.1    l-5.3,0.6l0.7,1.7L120.7,136.5C120.7,136.5,120.7,136.5,120.7,136.5z M98,124l4.7,1.6c0.1,0,0.2,0.1,0.2,0.1l2.9,2.3l-1.7-4.7    c-0.1,0-0.1-0.1-0.2-0.2l-2.3-2.5l-1.3-0.3c-0.2-0.1-0.4-0.2-0.5-0.4l-1.7,3.1L98,124z M145.6,127.3    C145.6,127.3,145.6,127.3,145.6,127.3C145.6,127.3,145.6,127.3,145.6,127.3z M101,119l1.1,0.3l-0.4-0.8L101,119z M98.8,104.6    l0.3,0.8c0.3-0.2,0.7-0.4,1-0.4l-0.2-0.4c-0.1,0-0.1-0.1-0.2-0.1c-0.2-0.2-0.4-0.2-0.7-0.1C98.9,104.5,98.9,104.5,98.8,104.6z     M97.6,101.5c0,0.1,0.1,0.1,0.1,0.2l0.5,1.5c0,0,0.1,0,0.1-0.1c0.3-0.1,0.6-0.2,0.9-0.2l-0.7-1.9c-0.1,0-0.3,0.1-0.4,0.2    C97.9,101.2,97.8,101.3,97.6,101.5z M92.3,98.4c0.5,0,1,0.1,1.5,0.2l0.2,0c0.7,0.1,1.2,0.2,1.9,0.8c0.4,0.3,0.6,0.6,0.8,0.9    c0.2-0.2,0.4-0.3,0.7-0.5c0.4-0.2,0.8-0.4,1.2-0.4c0-1.1,0.3-2,1-2.9c0.5-0.7,1.2-1.2,1.9-1.5c-0.3,0-0.6,0-0.9,0.1    c-0.8,0.2-1.2,0.5-1.7,1.2c-0.2,0.2-0.4,0.3-0.7,0.3c-0.3,0-0.5-0.2-0.6-0.5c-0.3-0.6-0.4-0.9-0.8-1.4c-0.5-0.6-0.8-1-1.3-1.4    c-0.2,0.5-0.2,0.9-0.3,1.5c0,0.9,0.1,1.4,0.4,2.3c0.1,0.3,0,0.6-0.2,0.8c-0.2,0.2-0.5,0.3-0.8,0.2c-0.9-0.4-1.6-0.4-2.5,0    c-0.3,0.1-0.5,0.3-0.8,0.4C91.7,98.5,92,98.4,92.3,98.4z M106.3,157.5c-0.4,0-0.8-0.3-0.8-0.8v-2.4c0,0,0-0.1,0-0.1l0.4-2.8    c0.1-0.4,0.4-0.7,0.8-0.6c0.4,0.1,0.7,0.4,0.6,0.8l-0.4,2.7v2.4C107,157.1,106.7,157.5,106.3,157.5z M128.1,157.3    c-0.4,0-0.7-0.3-0.7-0.7c-0.2-3.1-0.5-4.9-1.2-7.9c-0.9-3.6-1.6-5.6-3.1-8.9c-0.2-0.4,0-0.8,0.4-1c0.4-0.2,0.8,0,1,0.4    c1.6,3.4,2.3,5.5,3.2,9.2c0.8,3.1,1,4.9,1.3,8.1C128.9,156.9,128.6,157.3,128.1,157.3C128.2,157.3,128.2,157.3,128.1,157.3z     M120.2,148.2c-0.4,0-0.7-0.3-0.7-0.7l-0.2-5.2l-0.8-2.8c-0.1-0.4,0.1-0.8,0.5-0.9c0.4-0.1,0.8,0.1,0.9,0.5l0.8,2.9    c0,0.1,0,0.1,0,0.2l0.2,5.3C121,147.9,120.6,148.2,120.2,148.2C120.2,148.2,120.2,148.2,120.2,148.2z"
   id="path142" />
		<path
   class="st2"
   d="M392.1,24c0-4.1-3.5-7.5-7.5-7.5c-4.1,0-7.5,3.4-7.5,7.5s3.4,7.5,7.5,7.5C388.6,31.6,392.1,28.2,392.1,24    L392.1,24z"
   id="path143" />
		<path
   class="st2"
   d="M390.5,45.5c-2.2,0.1-4,0.4-5.9,0.4c-2.1,0-4-0.3-5.9-0.4V116c1.9-0.1,3.8-0.4,5.9-0.4c1.9,0,3.7,0.3,5.9,0.4    V45.5L390.5,45.5z"
   id="path144" />
		<path
   class="st2"
   d="M448,77.3l-8.8,20.8c-0.6,1.3-1.8,2.7-2.8,4.1c-9.1-20.6-17.8-43.1-22-56.8c-2.5,0.1-4.4,0.4-6.5,0.4    c-2.4,0-4.6-0.3-6.6-0.4C410.6,66,425,102,430.2,116c1.5-0.1,2.9-0.4,4.6-0.4c1.3,0,2.8,0.3,4.4,0.4c7.4-21.4,22.1-53.8,30.1-70.5    c-1.8,0.1-3.2,0.4-4.7,0.4c-1.6,0-3.2-0.3-4.7-0.4L448,77.3L448,77.3z"
   id="path145" />
		<path
   class="st1"
   d="M530.7,100.8c-4,3.8-11.8,10.2-21.8,10.2c-17.8,0-26.8-14.2-25.5-30.7h20.8c9.9,0,19.9,0.1,29.9,0.4    c1.5-24.6-13.6-36.1-29.9-36.1c-22,0-33.8,15.8-33.8,36.3c0,22.9,14.4,36.3,34.8,36.3c9,0,18.1-3.5,25.4-8.7L530.7,100.8    L530.7,100.8z M483.3,74.8c0.9-12.4,6.9-25.7,20.8-25.7c14.6,0,18.1,12.8,18.4,25.7H483.3L483.3,74.8z"
   id="path146" />
		<path
   class="st2"
   d="M544,116c1.9-0.1,3.8-0.4,5.9-0.4c1.9,0,3.7,0.3,5.9,0.4V77.8c0-8,0.3-12.8,5.5-18.7c2.2-2.5,6.2-3.7,9.4-3.7    c2.5,0,4.7,1.8,6.9,2.4l2.1-12.4c-1.3-0.6-2.5-0.7-4.6-0.7c-7.4,0-13.7,6.2-18.6,13.9l-0.7,1.8V45.5c-2.2,0.1-4,0.4-5.9,0.4    c-2.1,0-4-0.3-5.9-0.4L544,116L544,116z"
   id="path147" />
		<path
   class="st2"
   d="M582.9,101.7c-0.6,3.7-1.9,7.2-3.1,10.8c5.2,3.1,12.4,4.7,18.4,4.7c13,0,27.1-7.5,27.1-23.3    c0-23.6-34.8-13.6-34.8-32.4c0-8,6-12.2,13.4-12.2c5.5,0,10.6,4.9,12.5,9.7h1.3c0.9-3.5,2.1-7.1,3.5-10.5c-2.7-1.6-9-3.8-16.7-3.8    c-13.3,0-24,7.7-24,21.8c0,25.8,34.8,12.8,34.8,32.7c0,7.8-7.2,13.4-14.5,13.4c-6.9,0-13.4-5.2-17-10.9L582.9,101.7L582.9,101.7z"
   id="path148" />
		<path
   class="st2"
   d="M652.2,24c0-4.1-3.5-7.5-7.5-7.5c-4.1,0-7.5,3.4-7.5,7.5s3.4,7.5,7.5,7.5C648.7,31.6,652.2,28.2,652.2,24    L652.2,24z"
   id="path149" />
		<path
   class="st2"
   d="M650.6,45.5c-2.2,0.1-4,0.4-5.9,0.4c-2.1,0-4-0.3-5.9-0.4V116c1.9-0.1,3.8-0.4,5.9-0.4c1.9,0,3.7,0.3,5.9,0.4    V45.5L650.6,45.5z"
   id="path150" />
		<path
   class="st2"
   d="M672.6,30.9v14.6h-9.1c0.4,1.9,0.4,3.7,0,5.6h9.1V94c-0.7,18,5.8,23.2,17,23.2c4.3,0,8.4-1.2,12.4-2.7V111    c-2.2,0.4-4.4,1-6.6,1c-12.2,0-10.9-14.9-10.9-23.9v-37H700c-0.4-1.5-0.4-3.5,0-5.6h-15.6V26.3L672.6,30.9L672.6,30.9z"
   id="path151" />
		<path
   class="st2"
   d="M781.7,30.9v14.6h-9.1c0.4,1.9,0.4,3.7,0,5.6h9.1V94c-0.7,18,5.8,23.2,17,23.2c4.3,0,8.4-1.2,12.4-2.7V111    c-2.2,0.4-4.4,1-6.6,1c-12.2,0-10.9-14.9-10.9-23.9v-37h15.6c-0.4-1.5-0.4-3.5,0-5.6h-15.6V26.3L781.7,30.9L781.7,30.9z"
   id="path152" />
		<path
   class="st2"
   d="M369.9,130c-1.8,0.1-3.1,0.4-4.6,0.4c-1.8,0-3.2-0.3-4.7-0.4c-3.1,10-15,39.1-21.7,54.9    c-6.8-15.5-15-40-18.9-54.9c-1.5,0.1-2.7,0.4-3.8,0.4c-1.3,0-2.7-0.3-3.8-0.4c-4.9,15.5-14.6,41.7-20.6,54.7    c-7.1-17.1-13.6-36.9-18.7-54.7c-2.5,0.1-4.4,0.4-6.5,0.4c-2.2,0-4.4-0.3-6.5-0.4c8,18.4,17.4,43.8,26.1,70.5    c1.3-0.1,2.7-0.4,4-0.4c1.3,0,2.5,0.3,4,0.4c7.1-22.6,15.2-44.1,20.1-53.5c5.5,13.6,14.3,39.2,18.1,53.5c1.3-0.1,2.7-0.4,4-0.4    c1.2,0,2.4,0.3,4,0.4C349.4,173.5,364.8,140.2,369.9,130L369.9,130z"
   id="path153" />
		<path
   class="st2"
   d="M390.5,130c-2.2,0.1-4,0.4-5.9,0.4c-2.1,0-4-0.3-5.9-0.4v70.5c1.9-0.1,3.8-0.4,5.9-0.4c1.9,0,3.7,0.3,5.9,0.4    V130L390.5,130z"
   id="path154" />
		<path
   class="st1"
   d="M463.7,185.3c-4,3.8-11.8,10.2-21.8,10.2c-17.8,0-26.8-14.2-25.5-30.7h20.8c9.9,0,19.9,0.1,29.9,0.4    c1.5-24.6-13.6-36.1-29.9-36.1c-22,0-33.8,15.8-33.8,36.3c0,22.9,14.5,36.3,34.8,36.3c9,0,18.1-3.5,25.4-8.7L463.7,185.3    L463.7,185.3z M416.3,159.3c0.9-12.4,6.9-25.7,20.8-25.7c14.6,0,18.1,12.8,18.4,25.7H416.3L416.3,159.3z"
   id="path155" />
		<path
   class="st2"
   d="M476.7,200.5c1.9-0.1,3.8-0.4,5.9-0.4c1.9,0,3.7,0.3,5.9,0.4v-34.2c0-18.1,3.8-29.5,19.3-29.5    c13.9,0,16.4,10.8,16.4,24.5v39.2c1.9-0.1,3.8-0.4,5.9-0.4c1.9,0,3.7,0.3,5.9,0.4v-42.6c0-19.5-6.6-28.8-23.7-28.8    c-10.5,0-18.6,5.3-23.7,14.3V130c-2.2,0.1-4,0.4-5.9,0.4c-2.1,0-4-0.3-5.9-0.4L476.7,200.5L476.7,200.5z"
   id="path156" />
		<path
   class="st1"
   d="M760.3,69.3c0-16.8-8.5-25.1-24.2-25.1c-8.8,0-16.9,3.3-24,8.2v8.3h1.6c1-3.3,6.9-10.3,17.7-10.3    c11.2,0,17.4,6.4,17.4,17.4c0,7.2-4,8.1-15.8,10c-14,2.2-27.6,4.5-27.6,21.5c0,11,9.2,18.2,19.8,18.2c8.9,0,15.8-3.1,22.1-9.4    l1.3-1.3c1.2,8.8,7.6,10,15.4,8.6c1.6-0.3,3.4-1,4.5-1.5v-3.3c-8.8,1.9-8.4-1-8.4-6.9L760.3,69.3L760.3,69.3z M748.4,101.1    c0,1-3,3.6-4,4.6c-2.8,2.8-7.9,5.7-11.9,5.7c-9.1,0-14.6-4.6-14.6-14c0-13.6,15.2-15.1,25.3-17l5.2-1L748.4,101.1L748.4,101.1z"
   id="path157" />
		<path
   class="st2"
   d="M725.9,24c0-3.9-3.4-7.1-7.1-7.1c-3.9,0-7.1,3.2-7.1,7.1s3.2,7.1,7.1,7.1C722.6,31.2,725.9,28,725.9,24    L725.9,24z"
   id="path158" />
		<path
   class="st2"
   d="M759.3,24c0-3.9-3.4-7.1-7.1-7.1c-3.9,0-7.1,3.2-7.1,7.1s3.2,7.1,7.1,7.1C755.9,31.2,759.3,28,759.3,24    L759.3,24z"
   id="path159" />
		<path
   class="st2"
   d="M315.7,45.5v13.1c5.2-8.8,13.2-14,23.6-14c17.1,0,23.7,9.3,23.7,28.8V116c-2.2-0.1-4-0.4-5.9-0.4    c-2.1,0-4,0.3-5.9,0.4V76.7c0-13.7-2.5-24.5-16.4-24.5c-13.6,0-18.2,8.7-19.1,23.1V116c-2.3-0.2-4-0.4-5.9-0.4    c-2.2,0-4,0.3-5.9,0.4l-0.2-12.3c-4.8,8.8-13.1,13.5-23.3,13.5c-16.2,0-24.3-8.4-24.3-28.3V45.5c1.9,0.1,3.8,0.4,5.9,0.4    c1.9,0,3.7-0.3,5.9-0.4v39.8c0,15.5,4.6,24.6,17.8,24.6c13,0,17.1-10,18-19.4v-45c2,0.1,3.9,0.4,5.9,0.4c2.1,0,3.8-0.3,5.9-0.4    H315.7L315.7,45.5z"
   id="path160" />
		<path
   class="st2"
   d="M118.6,225.9c-59.7,0-108.3-48.6-108.3-108.3C10.3,57.8,58.9,9.2,118.6,9.2S227,57.8,227,117.6    C227,177.3,178.4,225.9,118.6,225.9z M118.6,10.7c-58.9,0-106.8,47.9-106.8,106.8c0,58.9,47.9,106.8,106.8,106.8    s106.8-47.9,106.8-106.8C225.5,58.7,177.5,10.7,118.6,10.7z M121,200l-0.1-1.5c15.1-1,35.2-8.2,45.8-16.5l0.9,1.2    C156.8,191.7,136.4,199,121,200z M114.2,199.7c-16.2-0.8-30-6-43.5-16.3l0.9-1.2c13.2,10.1,26.8,15.2,42.6,16L114.2,199.7z     M58.6,173.3c-14.1-13.8-21.9-33.6-21.9-55.8c0-21.1,8.4-41.3,23.5-57C75.4,45,95.4,36,116.4,35.5l0,1.5    c-20.6,0.5-40.2,9.3-55.1,24.6C46.4,77,38.2,96.9,38.2,117.6c0,21.8,7.6,41.2,21.4,54.7L58.6,173.3z M178.6,173.1l-1.1-1    c13.7-15.1,21.6-35,21.6-54.5c0-20.7-8.1-40.4-22.8-55.5c-14.6-15-34-23.8-54.7-24.9l0.1-1.5c21.1,1.1,40.8,10.1,55.7,25.3    c15,15.4,23.2,35.5,23.2,56.6C200.6,137.8,192.8,157.5,178.6,173.1z"
   id="path161" />
		<path
   class="st2"
   d="M168.5,184.1c-2.1,0-3.8-1.7-3.8-3.8c0-2.1,1.7-3.8,3.8-3.8c2.1,0,3.8,1.7,3.8,3.8    C172.3,182.4,170.6,184.1,168.5,184.1z M168.5,177.9c-1.3,0-2.3,1.1-2.3,2.3c0,1.3,1.1,2.3,2.3,2.3c1.3,0,2.3-1.1,2.3-2.3    C170.8,179,169.7,177.9,168.5,177.9z M69.9,184.1c-2.1,0-3.8-1.7-3.8-3.8c0-2.1,1.7-3.8,3.8-3.8s3.8,1.7,3.8,3.8    C73.7,182.4,72,184.1,69.9,184.1z M69.9,177.9c-1.3,0-2.3,1.1-2.3,2.3c0,1.3,1.1,2.3,2.3,2.3c1.3,0,2.3-1.1,2.3-2.3    C72.2,179,71.2,177.9,69.9,177.9z"
   id="path162" />
		<path
   class="st2"
   d="M97.2,29.7c-0.7,0-1.3-0.1-1.9-0.4c-1.3-0.7-2-2.1-2.1-4.1c-0.1-2.9,2.3-4.8,6.3-5.2c3.1-0.3,5,1.4,7.2,3.1    c2.1,1.8,4.3,3.6,7.9,3.7l0.4,0c1-0.2,1.6-0.5,2.5-1.2c1.5-1.2,2.3-2.1,2.2-3.6c-0.1-1.4-0.6-2.4-1.9-3.1    c-0.9-0.5-2.1-0.6-3.3-0.2c-1.1,0.4-1.9,1.3-2.3,2.3c-0.1,0.4-0.5,0.6-0.9,0.5c-0.4-0.1-0.6-0.5-0.5-0.9c0.4-1.5,1.6-2.7,3.1-3.3    c1.6-0.6,3.2-0.5,4.6,0.2c1.7,1,2.6,2.4,2.6,4.3c0.1,2.3-1.3,3.6-2.7,4.8c3.2-0.4,5.1-2.2,7.1-3.9c2-1.8,4-3.6,7-3.4    c4,0.2,6.4,2.1,6.5,5c0,1.9-0.7,3.4-1.9,4.1c-1.6,1-3.9,0.6-6.9-1.1c-0.4-0.2-0.5-0.7-0.3-1c0.2-0.4,0.7-0.5,1-0.3    c2.4,1.4,4.3,1.8,5.4,1.1c1-0.6,1.2-2,1.2-2.8c0-2.9-3.9-3.4-5-3.5c-2.4-0.1-4.1,1.3-5.9,3c-2.1,1.9-4.5,4.1-8.6,4.3l-2.8,0    c0,0,0,0,0,0c-0.1,0-0.2,0-0.3,0l-0.3,0c-4.1-0.1-6.6-2.2-8.8-4c-1.9-1.6-3.6-3-6-2.8c-1.2,0.1-5,0.7-4.9,3.7    c0,0.8,0.2,2.2,1.3,2.8c1.1,0.6,3,0.2,5.4-1.3c0.4-0.2,0.8-0.1,1,0.3c0.2,0.4,0.1,0.8-0.3,1C100.3,29.1,98.6,29.7,97.2,29.7z"
   id="path163" />
		<path
   class="st2"
   d="M52.7,141.5c-1.7-1.3-2.6-2.1-4.2-3.6c-1.9-1.9-3-3.1-4.6-5.3l-0.4-0.5l0.5-0.5c1.3-1.3,1.9-2.2,2.7-3.9    c0.5-1,0.7-1.6,0.9-2.5c-3.7-3-5.3-5.4-5.2-7.5c0.1-1.6,2.3-3.2,5.6-4.9l0-0.2c0.2-1.1,0.3-1.5-0.5-3.2c-0.5-1.1-1-1.6-1.8-2.4    c-0.3-0.3-0.6-0.7-1-1.1l-0.3-0.3l0.2-0.4c0.1-0.2,1.6-4.3,2.9-6.8c1.5-3,4.4-7.3,4.5-7.5l1.2,0.8c0,0-3,4.4-4.4,7.3    c-1,2-2.3,5.2-2.7,6.3c0.2,0.3,0.5,0.5,0.7,0.7c0.8,0.8,1.4,1.5,2,2.8c0.7,1.5,0.9,2.3,0.8,3.2c1.1-0.5,2.2-1.1,3.4-1.6l1.2-0.5    l0.3,0.6c1.9,3.2,2.5,5.6,2.3,9.3c-0.2,3.7-1,6-3.2,9l-0.4,0.6l-0.6-0.4c-1.4-0.9-2.7-1.8-3.8-2.7c-0.2,0.7-0.4,1.3-0.8,2.2    c-0.8,1.7-1.4,2.6-2.6,3.8c1.3,1.8,2.3,2.9,4,4.6c1.5,1.4,2.3,2.2,4,3.4L52.7,141.5z M53.7,111.9c-3.2,1.5-9.7,4.4-9.8,6.1    c-0.1,2.1,2.9,5.3,9,9.4c0.6-0.8,1-1.6,1.4-2.4l-4.3-1.7l0.5-1.4l4.3,1.6c0.3-0.9,0.4-1.9,0.5-3h-4.7V119h4.8    c0-1.3-0.1-2.4-0.3-3.5l-4,1.7l-0.6-1.4l4.1-1.7C54.5,113.4,54.1,112.7,53.7,111.9z"
   id="path164" />
		<path
   class="st2"
   d="M184.8,143.3l-0.9-1.2c1.7-1.2,2.5-2,4-3.4c1.7-1.7,2.7-2.8,4-4.6c-1.2-1.2-1.9-2.2-2.6-3.9    c-0.5-1.2-0.8-2-0.9-3.1c-2,1.1-3.6,1.8-3.8,1.9l-0.6,0.3l-0.4-0.5c-2.2-3-3-5.3-3.2-9c-0.2-3.7,0.4-6.1,2.3-9.3l0.2-0.4l0.5,0.1    c1.3,0.2,2.7,0.8,4.1,1.6c0-0.8,0.3-1.6,0.9-2.9c0.6-1.3,1.2-2,2-2.8c0.2-0.2,0.4-0.5,0.7-0.7c-0.4-1.1-1.7-4.2-2.7-6.3    c-1.5-2.9-4.4-7.2-4.4-7.3l1.2-0.8c0.1,0.2,3,4.4,4.5,7.5c1.3,2.6,2.9,6.7,2.9,6.8l0.2,0.4l-0.3,0.3c-0.4,0.4-0.7,0.8-1,1.1    c-0.8,0.8-1.2,1.3-1.8,2.4c-0.8,1.8-0.9,2.4-0.7,3.3c3.2,2.5,5.8,5.9,6.5,7.1c0.1,0.3,0.3,0.8,0.1,1.4c-0.5,1.6-3.3,3.5-5.9,5    c0.1,1.2,0.4,2,0.9,3.2c0.7,1.7,1.4,2.6,2.7,3.8l0.5,0.5l-0.4,0.5c-1.6,2.2-2.6,3.4-4.6,5.3C187.5,141.2,186.5,142,184.8,143.3z     M183.2,124.9c0.4,0.8,0.8,1.6,1.5,2.5c4.5-2.1,9.2-5,9.7-6.6c0-0.1,0-0.2,0-0.2c-1-1.9-6.3-8-10.5-8.9c-0.5,0.8-0.8,1.6-1.1,2.3    l4.1,1.7l-0.6,1.4l-4-1.7c-0.2,1.1-0.3,2.2-0.3,3.5h4.8v1.5h-4.7c0.1,1.1,0.3,2.1,0.5,3l4.3-1.6l0.5,1.4L183.2,124.9z"
   id="path165" />
		<path
   class="st2"
   d="M136.1,170.1c-0.4,0-0.7-0.3-0.8-0.7c0-0.4,0.3-0.8,0.7-0.8l17.1-0.1c0,0,0,0,0,0c0.4,0,0.7,0.3,0.8,0.7    c0,0.4-0.3,0.8-0.7,0.8L136.1,170.1C136.1,170.1,136.1,170.1,136.1,170.1z M83,170.1c-0.4,0-0.7-0.3-0.8-0.7    c0-0.4,0.3-0.8,0.7-0.8l14.6-0.1c0,0,0,0,0,0c0.4,0,0.7,0.3,0.8,0.7c0,0.4-0.3,0.8-0.7,0.8L83,170.1C83,170.1,83,170.1,83,170.1z     M121.3,158.3c-0.4,0-0.8-0.3-0.8-0.8c0-0.6,0-0.9-0.1-1.5c-0.3-1.6-0.6-2.5-1.5-3.9l-1.6-2.9l-2.3-1.4l-1.6-0.6    c-0.4-0.1-0.6-0.6-0.4-1c0.1-0.4,0.6-0.6,1-0.4l1.6,0.6c0,0,0.1,0,0.1,0.1l2.5,1.5c0.1,0.1,0.2,0.2,0.3,0.3l1.7,3    c1,1.5,1.4,2.6,1.7,4.4c0.1,0.7,0.1,1.1,0.1,1.7C122.1,158,121.7,158.3,121.3,158.3z M107.4,136.2c-0.3,0-0.6-0.2-0.7-0.5    c-0.2-0.4,0-0.8,0.4-1l1.2-0.5c0.4-0.2,0.8,0,1,0.4c0.2,0.4,0,0.8-0.4,1l-1.2,0.5C107.6,136.2,107.5,136.2,107.4,136.2z"
   id="path166" />
	</g>
</g>
</svg>
