<?xml version="1.0" encoding="UTF-8" standalone="no"?>
<svg
   width="611"
   height="90"
   viewBox="0 0 611 90"
   version="1.1"
   id="svg3"
   sodipodi:docname="evolVienna.svg"
   inkscape:version="1.4 (e7c3feb1, 2024-10-09)"
   xmlns:inkscape="http://www.inkscape.org/namespaces/inkscape"
   xmlns:sodipodi="http://sodipodi.sourceforge.net/DTD/sodipodi-0.dtd"
   xmlns="http://www.w3.org/2000/svg"
   xmlns:svg="http://www.w3.org/2000/svg">
  <defs
     id="defs3" />
  <sodipodi:namedview
     id="namedview3"
     pagecolor="#ffffff"
     bordercolor="#000000"
     borderopacity="0.25"
     inkscape:showpageshadow="2"
     inkscape:pageopacity="0.0"
     inkscape:pagecheckerboard="0"
     inkscape:deskcolor="#d1d1d1"
     inkscape:zoom="0.53259581"
     inkscape:cx="241.27114"
     inkscape:cy="-35.674332"
     inkscape:window-width="1104"
     inkscape:window-height="561"
     inkscape:window-x="0"
     inkscape:window-y="33"
     inkscape:window-maximized="0"
     inkscape:current-layer="svg3" />
  <path
     fill="#0D5503"
     d="M26.235 89c6.922 0 13.397-1.239 18.755-3.491l-.893-8.222c-4.465 2.14-10.494 3.492-16.187 3.492-11.834 0-17.974-6.42-17.528-21.398h36.283c.223-1.915.335-3.492.335-4.843C47 41.699 40.413 31 24.784 31 9.043 31 0 43.501 0 60.282 0 79.99 9.154 89 26.235 89zm10.758-37H11c1.12-8.377 6.274-14 13.556-14 7.843 0 12.66 5.623 12.437 14zM144 89.606c17.98 0 29.723-15.542 29.723-35.64 0-23.982-11.865-33.36-27.4-33.36-18.347 0-29.6 15.541-29.6 35.103 0 23.446 10.764 33.897 27.277 33.897zm.845-10c-11.13 0-17.122-8.885-17.122-25.039 0-16.557 8.317-23.961 17.122-23.961 11.252 0 16.878 8.884 16.878 24.096 0 17.096-7.827 24.904-16.878 24.904zm66.9 8.116v-6.36c-3-.84-6.6-1.44-10.2-1.68V.122c-6.84-.36-15.12.12-21.12.84v6.36c3.48.24 7.56.72 10.44 1.2v71.16c-3.6.24-7.32.84-10.44 1.68v6.36h31.32z"
     id="path1"
     style="fill:#ffffff" />
  <path
     d="M264.53 87.722l28.766-78.69c2.322-.129 5.676-.774 7.74-1.419V.647H270.85v6.837c3.096.774 6.708 1.42 10.191 1.677l-16.77 46.57c-2.45 6.965-4.386 12.77-5.934 18.962h-.129c-1.806-6.45-3.999-13.029-5.805-18.06L236.278 9.161c3.483-.258 7.224-.903 10.191-1.677V.647H215.38v6.966c2.193.645 5.418 1.29 7.87 1.42l27.992 78.69h13.287zm53.045-69.48c3.84 0 7.08-3.24 7.08-7.08 0-3.96-3.24-6.96-7.08-6.96-3.96 0-7.2 3.12-7.2 6.96 0 3.96 3.24 7.08 7.2 7.08zm15.36 69.48v-6.36c-3-.84-6.6-1.44-10.08-1.68v-51.6c-6.96-.36-15.24.12-21.24.84v6.36c3.48.24 7.56.72 10.44 1.2v43.2c-3.6.24-7.32.84-10.44 1.68v6.36h31.32zm36.102 1.08c7.44 0 14.4-1.32 20.16-3.72l-.96-8.76c-4.8 2.28-11.28 3.72-17.4 3.72-12.72 0-19.32-6.84-18.84-22.8h39c.24-2.04.36-3.72.36-5.16 0-13.68-7.08-25.08-23.88-25.08-16.92 0-26.64 13.32-26.64 31.2 0 21 9.84 30.6 28.2 30.6zm11.28-39.24h-27.84c1.2-8.76 6.72-14.64 14.52-14.64 8.4 0 13.56 5.88 13.32 14.64zm51.341 38.16v-6.48c-2.88-.72-6.36-1.32-9.6-1.56v-20.64c0-13.2 7.08-23.16 17.04-23.16 7.8 0 10.08 4.92 10.08 13.32v38.52h20.88v-6.36c-3-.84-6.6-1.44-10.08-1.68v-33.72c0-10.56-4.32-19.08-17.88-19.08-10.32 0-17.64 5.52-21.12 13.8l-.12-.12c.6-3.48.84-9 .84-12.48-6.6-.36-14.88.12-20.88.84v6.36c3.48.24 7.56.72 10.44 1.2v43.2c-3.6.24-7.32.84-10.44 1.68v6.36h30.84zm75.462 0v-6.48c-2.88-.72-6.36-1.32-9.6-1.56v-20.64c0-13.2 7.08-23.16 17.04-23.16 7.8 0 10.08 4.92 10.08 13.32v38.52h20.88v-6.36c-3-.84-6.6-1.44-10.08-1.68v-33.72c0-10.56-4.32-19.08-17.88-19.08-10.32 0-17.64 5.52-21.12 13.8l-.12-.12c.6-3.48.84-9 .84-12.48-6.6-.36-14.88.12-20.88.84v6.36c3.48.24 7.56.72 10.44 1.2v43.2c-3.6.24-7.32.84-10.44 1.68v6.36h30.84zm63.221 1.08c9.84 0 17.4-5.64 20.28-12.96h.24c-.6 3.36-.6 7.68-.6 11.88 6.36.36 14.64-.12 20.28-.84v-6.36c-3.24-.24-7.2-.72-10.08-1.2v-32.52c0-11.88-4.92-19.92-22.2-19.92-7.8 0-14.76 1.2-20.4 3.24v16.44h6.6c.6-3.36 1.2-6.72 1.44-9.72 3.36-.96 7.44-1.44 11.04-1.44 9.72 0 12.72 4.44 12.72 12.84v4.56c-22.56.12-35.88 8.16-35.88 21.24 0 9.48 6.72 14.76 16.56 14.76zm3.12-8.4c-5.52 0-9.12-3.24-9.12-8.28 0-5.88 5.52-11.76 25.32-11.76v1.08c0 9.36-6.48 18.96-16.2 18.96z"
     id="path2"
     style="fill:#ffffff" />
  <path
     fill="#0D5503"
     d="M86.877 89l18.558-55.501c2.6-.258 5.2-.901 7.565-1.545V25l-15.812.254-2.746 8.116-10.166 31.678a293.49 293.49 0 00-3.428 12.234h-.118c-1.064-4.379-2.246-8.37-3.546-12.491l-8.153-28.336c-.965-5.58-1.447-8.286-1.447-8.116L50 28.084v6.954c2.364.644 4.965 1.288 7.565 1.545L74.111 89h12.766z"
     id="path3"
     style="fill:#ffffff" />
</svg>
