<svg version="1.1" viewBox="0.0 0.0 281.0 170.0" fill="none" stroke="none" stroke-linecap="square" stroke-miterlimit="10" xmlns:xlink="http://www.w3.org/1999/xlink" xmlns="http://www.w3.org/2000/svg"><clipPath id="p.0"><path d="m0 0l281.0 0l0 170.0l-281.0 0l0 -170.0z" clip-rule="nonzero"/></clipPath><g clip-path="url(#p.0)"><path fill="#000000" fill-opacity="0.0" d="m0 0l281.0 0l0 170.0l-281.0 0z" fill-rule="evenodd"/><path fill="#000000" fill-opacity="0.0" d="m128.80582 -24.372725l59.590546 -21.637793l54.204727 162.55118l-59.59056 21.637787z" fill-rule="evenodd"/><path fill="#ffffff" d="m195.20477 82.1668q-2.1904907 1.7262802 -3.869873 2.2695847q-1.6646881 0.5379715 -4.1367645 -0.16022491q-3.1459503 -1.5340118 -3.1931305 -4.24308q-0.047195435 -2.7090607 2.5640717 -6.3335648q1.8898926 -2.2820587 2.9863129 -2.7466736q1.0964203 -0.46460724 3.6599426 -0.33155823q4.82547 1.0405273 5.3691254 4.2508698q0.5386963 3.1955185 -3.3796844 7.294647z" fill-rule="nonzero"/><path fill="#000000" fill-opacity="0.0" d="m142.01053 1.3096911l59.59056 -21.637794l41.51181 124.18897l-59.59056 21.637794z" fill-rule="evenodd"/><path fill="#3d7c76" d="m193.82776 80.94487q-1.6180115 1.2690582 -2.8518677 1.6672134q-1.2191925 0.39282227 -3.0396729 -0.12638855q-2.31279 -1.1051178 -2.354248 -3.1014633q-0.026794434 -2.0016785 1.9049072 -4.6480026q1.3812256 -1.681778 2.174118 -2.0195618q0.8076019 -0.34311676 2.6854095 -0.2436676q3.5517883 0.7715912 3.942566 3.123169q0.4054718 2.3462448 -2.4612122 5.3487015z" fill-rule="nonzero"/><path fill="#000000" fill-opacity="0.0" d="m119.2 102.712654l131.87402 -31.716537l12.818893 35.46457l-131.87402 31.71653z" fill-rule="evenodd"/><path fill="#ffffff" d="m171.97621 98.4487l2.840866 -0.6832428l1.6989594 12.512108l7.033798 -1.6916733l0.36528015 2.5637894l-9.889862 2.3785782l-2.0490417 -15.079559zm15.583282 -3.7478714l2.5522156 -0.61383057l7.320587 13.811714l-2.9472046 0.70882416l-1.749054 -3.4684143l-4.7398376 1.1399612l-0.7120209 4.060318l-2.932022 0.7051697l3.2073364 -16.343742zm4.4103394 8.501259l-2.6741943 -5.4797134l-1.1237488 6.3931427l3.797943 -0.91342926zm5.015091 -10.768135l7.5503235 -1.8159027q0.8203583 -0.19730377 1.5222473 0.09993744q0.71173096 0.27880096 1.2256775 0.87836456q0.5139313 0.5995712 0.786499 1.3536148q0.29927063 0.8279724 0.2384491 1.7104111q-0.045639038 0.8787842 -0.45388794 1.6680069q-0.3930664 0.78556824 -1.1611176 1.3559799q1.0237427 0.09127045 1.7976227 0.7247467q0.7837372 0.6150284 1.1631622 1.6647797q0.39013672 1.0793228 0.25953674 2.0428238q-0.13594055 0.9487152 -0.72283936 1.7005539q-0.58688354 0.75183105 -1.4522858 1.2813721q-0.86538696 0.529541 -1.9440002 0.7889557l-6.7603607 1.6259079l-2.0490265 -15.079552zm8.470825 10.963783q0.394989 -0.09500122 0.7311859 -0.35263062q0.33085632 -0.2724228 0.50193787 -0.66711426q0.18626404 -0.39835358 0.21891785 -0.8561859q0.04786682 -0.4614792 -0.11781311 -0.9198227q-0.15498352 -0.42877197 -0.424469 -0.71751404q-0.25964355 -0.30717468 -0.6025696 -0.43361664q-0.3482666 -0.14122772 -0.71287537 -0.05353546l-4.071411 0.9792023l0.5576172 3.9638748l3.9194794 -0.9426575zm-1.2779388 -6.18515q0.37980652 -0.09133911 0.68562317 -0.34166718q0.30581665 -0.25032806 0.49291992 -0.60066986q0.18174744 -0.36512756 0.19923401 -0.8193054q0.03265381 -0.4578247 -0.14904785 -0.9605255q-0.22979736 -0.6357651 -0.6672363 -0.93231964q-0.42225647 -0.30020905 -0.969162 -0.16867828l-3.6004486 0.8659363l0.51400757 3.7975845l3.49411 -0.8403549z" fill-rule="nonzero"/><path fill="#000000" fill-opacity="0.0" d="m188.48096 5.019554l2.9788513 59.619278" fill-rule="evenodd"/><path stroke="#3d7c76" stroke-width="8.0" stroke-linejoin="round" stroke-linecap="butt" d="m188.48096 5.019554l2.9788513 59.619278" fill-rule="evenodd"/><path fill="#000000" fill-opacity="0.0" d="m196.31355 6.27274l-4.864731 58.397266" fill-rule="evenodd"/><path stroke="#3d7c76" stroke-width="8.0" stroke-linejoin="round" stroke-linecap="butt" d="m196.31355 6.27274l-4.864731 58.397266" fill-rule="evenodd"/><path fill="#000000" fill-opacity="0.0" d="m184.0 5.5013123l17.51181 0.36828375" fill-rule="evenodd"/><path stroke="#3d7c76" stroke-width="2.0" stroke-linejoin="round" stroke-linecap="butt" d="m184.0 5.5013123l17.51181 0.36828375" fill-rule="evenodd"/><path fill="#000000" fill-opacity="0.0" d="m-73.92828 66.53279l298.49353 -71.65619l35.727707 97.45984l-298.4935 71.65619z" fill-rule="evenodd"/><path fill="#ffffff" d="m23.380327 65.821365l-18.323175 4.398651l-2.3605707 -16.675274l55.25821 -13.265255l2.360569 16.67527l-18.232021 4.37677l7.432125 53.010857l-18.703009 4.48983l-7.432129 -53.01085zm41.569427 -27.221085l45.473686 -10.916388l2.3605728 16.675268l-26.770676 6.4265556l1.4162674 9.815567l22.835594 -5.481903l2.1314163 15.509045l-22.835602 5.481903l1.5390701 11.007324l27.621506 -6.630806l2.3605728 16.675278l-46.3397 11.124283l-9.792709 -69.68613zm55.160156 -13.241718l45.473694 -10.916388l2.3605652 16.67527l-26.770676 6.4265537l1.4162598 9.815567l22.835602 -5.4818993l2.1314087 15.509045l-22.835602 5.4818993l1.5390778 11.007328l27.621506 -6.630806l2.3605652 16.67527l-46.339706 11.124283l-9.792694 -69.68613z" fill-rule="nonzero"/><path fill="#000000" fill-opacity="0.0" d="m-71.85869 68.61676l185.64618 -44.5902l32.931953 89.96008l-185.64618 44.590202z" fill-rule="evenodd"/><path fill="#3d7c76" d="m26.03635 61.993134l-18.504951 4.444687l-1.5691547 -10.743122l48.90594 -11.746677l1.4779968 10.765018l-18.413792 4.4227943l7.358101 52.338303l-11.987198 2.8791885l-7.266945 -52.36019z" fill-rule="nonzero"/><path fill="#000000" fill-opacity="0.0" d="m-15.548119 55.17676l185.64618 -44.590202l32.93196 89.960075l-185.6462 44.590202z" fill-rule="evenodd"/><path fill="#3d7c76" d="m68.09198 40.856995l39.95733 -9.597315l1.5691528 10.743124l-28.137245 6.7582626l2.1530304 15.182659l24.232681 -5.820427l1.3845444 9.967926l-24.232674 5.820427l2.3273315 16.426346l28.83612 -6.9261246l1.4779968 10.765022l-40.732162 9.783417l-8.836105 -63.103317z" fill-rule="nonzero"/><path fill="#000000" fill-opacity="0.0" d="m39.501312 41.73676l185.64618 -44.5902l32.931976 89.960075l-185.64621 44.590202z" fill-rule="evenodd"/><path fill="#3d7c76" d="m123.14141 27.416996l39.95733 -9.597317l1.5691528 10.743124l-28.137253 6.7582607l2.1530457 15.182659l24.232666 -5.820423l1.384552 9.967926l-24.232681 5.820423l2.3273315 16.426346l28.83612 -6.9261246l1.4779968 10.765022l-40.732162 9.783424l-8.836098 -63.10332z" fill-rule="nonzero"/><path fill="#000000" fill-opacity="0.0" d="m183.87401 4.750656l3.3753357 60.249344l8.37532 0.12598419l5.6246796 -60.0z" fill-rule="evenodd"/><path stroke="#ffffff" stroke-width="2.0" stroke-linejoin="round" stroke-linecap="butt" d="m183.87401 4.750656l3.3753357 60.249344l8.37532 0.12598419l5.6246796 -60.0z" fill-rule="evenodd"/><path fill="#000000" fill-opacity="0.0" d="m163.0 114.0l129.51181 0l0 53.32283l-129.51181 0z" fill-rule="evenodd"/><path fill="#ffffff" d="m175.125 131.95999l0 -7.9218674l-2.84375 0l0 -1.625l7.59375 0l0 1.625l-2.828125 0l0 7.9218674l-1.921875 0zm5.9851074 0l0 -9.546867l1.9375 0l0 3.765625l3.765625 0l0 -3.765625l1.9375 0l0 9.546867l-1.9375 0l0 -4.1718674l-3.765625 0l0 4.1718674l-1.9375 0zm9.625153 0l0 -9.546867l7.078125 0l0 1.625l-5.15625 0l0 2.109375l4.796875 0l0 1.609375l-4.796875 0l0 2.5937424l5.328125 0l0 1.609375l-7.25 0zm8.49913 -4.7187424q0 -1.453125 0.4375 -2.4375q0.328125 -0.734375 0.890625 -1.3125q0.5625 -0.578125 1.234375 -0.859375q0.890625 -0.375 2.046875 -0.375q2.109375 0 3.375 1.3125q1.265625 1.296875 1.265625 3.640625q0 2.2968674 -1.25 3.6093674q-1.25 1.296875 -3.359375 1.296875q-2.125 0 -3.390625 -1.296875q-1.25 -1.296875 -1.25 -3.5781174zm1.984375 -0.0625q0 1.6249924 0.75 2.4687424q0.75 0.828125 1.90625 0.828125q1.140625 0 1.875 -0.828125q0.75 -0.828125 0.75 -2.4843674q0 -1.640625 -0.71875 -2.453125q-0.71875 -0.8125 -1.90625 -0.8125q-1.203125 0 -1.9375 0.828125q-0.71875 0.8125 -0.71875 2.453125zm8.7733 4.7812424l0 -9.546867l4.0625 0q1.53125 0 2.21875 0.265625q0.703125 0.25 1.109375 0.90625q0.421875 0.65625 0.421875 1.515625q0 1.0625 -0.640625 1.765625q-0.625 0.703125 -1.875 0.890625q0.625 0.35936737 1.03125 0.7968674q0.40625 0.4375 1.09375 1.546875l1.15625 1.859375l-2.296875 0l-1.390625 -2.078125q-0.75 -1.109375 -1.03125 -1.390625q-0.265625 -0.296875 -0.578125 -0.40625q-0.296875 -0.10936737 -0.953125 -0.10936737l-0.390625 0l0 3.9843674l-1.9375 0zm1.9375 -5.4999924l1.421875 0q1.390625 0 1.734375 -0.109375q0.34375 -0.125 0.53125 -0.40625q0.203125 -0.296875 0.203125 -0.71875q0 -0.484375 -0.265625 -0.78125q-0.25 -0.296875 -0.71875 -0.375q-0.234375 -0.03125 -1.40625 -0.03125l-1.5 0l0 2.421875zm7.6876526 5.4999924l0 -9.546867l7.078125 0l0 1.625l-5.15625 0l0 2.109375l4.796875 0l0 1.609375l-4.796875 0l0 2.5937424l5.328125 0l0 1.609375l-7.25 0zm11.046005 0l0 -7.9218674l-2.84375 0l0 -1.625l7.59375 0l0 1.625l-2.828125 0l0 7.9218674l-1.921875 0zm5.9226074 0l0 -9.546867l1.9375 0l0 9.546867l-1.9375 0zm9.874863 -3.5l1.859375 0.578125q-0.421875 1.5625 -1.421875 2.328125q-1.0 0.75 -2.53125 0.75q-1.90625 0 -3.140625 -1.296875q-1.21875 -1.296875 -1.21875 -3.5468674q0 -2.375 1.234375 -3.6875q1.234375 -1.328125 3.234375 -1.328125q1.75 0 2.84375 1.03125q0.65625 0.609375 0.984375 1.765625l-1.90625 0.453125q-0.171875 -0.75 -0.71875 -1.171875q-0.53125 -0.4375 -1.296875 -0.4375q-1.0625 0 -1.734375 0.765625q-0.65625 0.765625 -0.65625 2.46875q0 1.8124924 0.65625 2.5781174q0.65625 0.765625 1.6875 0.765625q0.78125 0 1.328125 -0.484375q0.546875 -0.484375 0.796875 -1.53125zm12.125153 3.5l-2.09375 0l-0.84375 -2.171875l-3.8125 0l-0.78125 2.171875l-2.046875 0l3.71875 -9.546867l2.03125 0l3.828125 9.546867zm-3.546875 -3.78125l-1.3125 -3.5312424l-1.296875 3.5312424l2.609375 0zm4.6095276 3.78125l0 -9.468742l1.9375 0l0 7.8593674l4.78125 0l0 1.609375l-6.71875 0z" fill-rule="nonzero"/><path fill="#ffffff" d="m172.96875 143.16l0 -9.546875l7.078125 0l0 1.625l-5.15625 0l0 2.109375l4.796875 0l0 1.609375l-4.796875 0l0 2.59375l5.328125 0l0 1.609375l-7.25 0zm11.327255 0l-3.40625 -9.546875l2.078125 0l2.421875 7.0625l2.328125 -7.0625l2.046875 0l-3.421875 9.546875l-2.046875 0zm6.0616302 -4.71875q0 -1.453125 0.4375 -2.4375q0.328125 -0.734375 0.890625 -1.3125q0.5625 -0.578125 1.234375 -0.859375q0.890625 -0.375 2.046875 -0.375q2.109375 0 3.375 1.3125q1.265625 1.296875 1.265625 3.640625q0 2.296875 -1.25 3.609375q-1.25 1.296875 -3.359375 1.296875q-2.125 0 -3.390625 -1.296875q-1.25 -1.296875 -1.25 -3.578125zm1.984375 -0.0625q0 1.625 0.75 2.46875q0.75 0.828125 1.90625 0.828125q1.140625 0 1.875 -0.828125q0.75 -0.828125 0.75 -2.484375q0 -1.640625 -0.71875 -2.453125q-0.71875 -0.8125 -1.90625 -0.8125q-1.203125 0 -1.9375 0.828125q-0.71875 0.8125 -0.71875 2.453125zm8.820175 4.78125l0 -9.46875l1.9375 0l0 7.859375l4.78125 0l0 1.609375l-6.71875 0zm8.078857 -9.546875l1.9375 0l0 5.171875q0 1.234375 0.0625 1.59375q0.125 0.59375 0.59375 0.953125q0.46875 0.34375 1.265625 0.34375q0.828125 0 1.234375 -0.328125q0.421875 -0.34375 0.5 -0.828125q0.09375 -0.484375 0.09375 -1.625l0 -5.28125l1.921875 0l0 5.015625q0 1.71875 -0.15625 2.4375q-0.15625 0.703125 -0.578125 1.1875q-0.421875 0.484375 -1.125 0.78125q-0.703125 0.28125 -1.828125 0.28125q-1.375 0 -2.078125 -0.3125q-0.703125 -0.3125 -1.109375 -0.8125q-0.40625 -0.515625 -0.546875 -1.0625q-0.1875 -0.8125 -0.1875 -2.421875l0 -5.09375zm11.797028 9.546875l0 -7.921875l-2.84375 0l0 -1.625l7.59375 0l0 1.625l-2.828125 0l0 7.921875l-1.921875 0zm5.9226074 0l0 -9.546875l1.9375 0l0 9.546875l-1.9375 0zm3.3748627 -4.71875q0 -1.453125 0.4375 -2.4375q0.328125 -0.734375 0.890625 -1.3125q0.5625 -0.578125 1.234375 -0.859375q0.890625 -0.375 2.046875 -0.375q2.109375 0 3.375 1.3125q1.265625 1.296875 1.265625 3.640625q0 2.296875 -1.25 3.609375q-1.25 1.296875 -3.359375 1.296875q-2.125 0 -3.390625 -1.296875q-1.25 -1.296875 -1.25 -3.578125zm1.984375 -0.0625q0 1.625 0.75 2.46875q0.75 0.828125 1.90625 0.828125q1.140625 0 1.875 -0.828125q0.75 -0.828125 0.75 -2.484375q0 -1.640625 -0.71875 -2.453125q-0.71875 -0.8125 -1.90625 -0.8125q-1.203125 0 -1.9375 0.828125q-0.71875 0.8125 -0.71875 2.453125zm8.788925 4.78125l0 -9.546875l1.875 0l3.90625 6.375l0 -6.375l1.796875 0l0 9.546875l-1.9375 0l-3.84375 -6.21875l0 6.21875l-1.796875 0zm18.218918 0l-2.09375 0l-0.84375 -2.171875l-3.8125153 0l-0.78125 2.171875l-2.046875 0l3.71875 -9.546875l2.03125 0l3.8281403 9.546875zm-3.5468903 -3.78125l-1.3125 -3.53125l-1.296875 3.53125l2.609375 0zm4.5626373 3.78125l0 -9.546875l4.0625 0q1.53125 0 2.21875 0.265625q0.703125 0.25 1.109375 0.90625q0.421875 0.65625 0.421875 1.515625q0 1.0625 -0.640625 1.765625q-0.625 0.703125 -1.875 0.890625q0.625 0.359375 1.03125 0.796875q0.40625 0.4375 1.09375 1.546875l1.15625 1.859375l-2.296875 0l-1.390625 -2.078125q-0.75 -1.109375 -1.03125 -1.390625q-0.265625 -0.296875 -0.578125 -0.40625q-0.296875 -0.109375 -0.953125 -0.109375l-0.390625 0l0 3.984375l-1.9375 0zm1.9375 -5.5l1.421875 0q1.390625 0 1.734375 -0.109375q0.34375 -0.125 0.53125 -0.40625q0.203125 -0.296875 0.203125 -0.71875q0 -0.484375 -0.265625 -0.78125q-0.25 -0.296875 -0.71875 -0.375q-0.234375 -0.03125 -1.40625 -0.03125l-1.5 0l0 2.421875zm9.692871 5.5l0 -4.015625l-3.484375 -5.53125l2.25 0l2.25 3.78125l2.203125 -3.78125l2.21875 0l-3.515625 5.546875l0 4.0l-1.921875 0z" fill-rule="nonzero"/><path fill="#ffffff" d="m172.96875 154.36l0 -9.546875l7.078125 0l0 1.625l-5.15625 0l0 2.109375l4.796875 0l0 1.609375l-4.796875 0l0 2.59375l5.328125 0l0 1.609375l-7.25 0zm14.99913 -3.5l1.859375 0.578125q-0.421875 1.5625 -1.421875 2.328125q-1.0 0.75 -2.53125 0.75q-1.90625 0 -3.140625 -1.296875q-1.21875 -1.296875 -1.21875 -3.546875q0 -2.375 1.234375 -3.6875q1.234375 -1.328125 3.234375 -1.328125q1.75 0 2.84375 1.03125q0.65625 0.609375 0.984375 1.765625l-1.90625 0.453125q-0.171875 -0.75 -0.71875 -1.171875q-0.53125 -0.4375 -1.296875 -0.4375q-1.0625 0 -1.734375 0.765625q-0.65625 0.765625 -0.65625 2.46875q0 1.8125 0.65625 2.578125q0.65625 0.765625 1.6875 0.765625q0.78125 0 1.328125 -0.484375q0.546875 -0.484375 0.796875 -1.53125zm3.1251526 -1.21875q0 -1.453125 0.4375 -2.4375q0.328125 -0.734375 0.890625 -1.3125q0.5625 -0.578125 1.234375 -0.859375q0.890625 -0.375 2.046875 -0.375q2.109375 0 3.375 1.3125q1.265625 1.296875 1.265625 3.640625q0 2.296875 -1.25 3.609375q-1.25 1.296875 -3.359375 1.296875q-2.125 0 -3.390625 -1.296875q-1.25 -1.296875 -1.25 -3.578125zm1.984375 -0.0625q0 1.625 0.75 2.46875q0.75 0.828125 1.90625 0.828125q1.140625 0 1.875 -0.828125q0.75 -0.828125 0.75 -2.484375q0 -1.640625 -0.71875 -2.453125q-0.71875 -0.8125 -1.90625 -0.8125q-1.203125 0 -1.9375 0.828125q-0.71875 0.8125 -0.71875 2.453125zm8.820175 4.78125l0 -9.46875l1.9375 0l0 7.859375l4.78125 0l0 1.609375l-6.71875 0zm7.7038574 -4.71875q0 -1.453125 0.4375 -2.4375q0.328125 -0.734375 0.890625 -1.3125q0.5625 -0.578125 1.234375 -0.859375q0.890625 -0.375 2.046875 -0.375q2.109375 0 3.375 1.3125q1.265625 1.296875 1.265625 3.640625q0 2.296875 -1.25 3.609375q-1.25 1.296875 -3.359375 1.296875q-2.125 0 -3.390625 -1.296875q-1.25 -1.296875 -1.25 -3.578125zm1.984375 -0.0625q0 1.625 0.75 2.46875q0.75 0.828125 1.90625 0.828125q1.140625 0 1.875 -0.828125q0.75 -0.828125 0.75 -2.484375q0 -1.640625 -0.71875 -2.453125q-0.71875 -0.8125 -1.90625 -0.8125q-1.203125 0 -1.9375 0.828125q-0.71875 0.8125 -0.71875 2.453125zm13.2108 1.28125l0 -1.609375l4.15625 0l0 3.796875q-0.609375 0.578125 -1.765625 1.03125q-1.140625 0.4375 -2.3125 0.4375q-1.5 0 -2.625 -0.625q-1.109375 -0.625 -1.671875 -1.78125q-0.546875 -1.171875 -0.546875 -2.546875q0 -1.5 0.625 -2.65625q0.625 -1.15625 1.828125 -1.78125q0.921875 -0.46875 2.28125 -0.46875q1.78125 0 2.78125 0.75q1.0 0.734375 1.28125 2.0625l-1.921875 0.34375q-0.1875 -0.703125 -0.75 -1.109375q-0.5625 -0.40625 -1.390625 -0.40625q-1.265625 0 -2.015625 0.8125q-0.734375 0.796875 -0.734375 2.375q0 1.6875 0.75 2.546875q0.75 0.84375 1.984375 0.84375q0.609375 0 1.203125 -0.234375q0.609375 -0.234375 1.046875 -0.578125l0 -1.203125l-2.203125 0zm8.42955 3.5l0 -4.015625l-3.484375 -5.53125l2.25 0l2.25 3.78125l2.203125 -3.78125l2.21875 0l-3.515625 5.546875l0 4.0l-1.921875 0z" fill-rule="nonzero"/><path fill="#000000" fill-opacity="0.0" d="m168.0 117.0l0.50393677 46.992126" fill-rule="evenodd"/><path stroke="#ffffff" stroke-width="2.0" stroke-linejoin="round" stroke-linecap="butt" d="m168.0 117.0l0.50393677 46.992126" fill-rule="evenodd"/></g></svg>