<?xml version="1.0" encoding="UTF-8" standalone="no"?>
<svg
   version="1.1"
   viewBox="0 0 432.06913 189"
   fill="none"
   stroke="none"
   stroke-linecap="square"
   stroke-miterlimit="10"
   id="svg26"
   sodipodi:docname="LOGO_TEE_teal.svg"
   inkscape:version="1.4 (e7c3feb1, 2024-10-09)"
   width="432.06912"
   height="189"
   xmlns:inkscape="http://www.inkscape.org/namespaces/inkscape"
   xmlns:sodipodi="http://sodipodi.sourceforge.net/DTD/sodipodi-0.dtd"
   xmlns="http://www.w3.org/2000/svg"
   xmlns:svg="http://www.w3.org/2000/svg">
  <defs
     id="defs26" />
  <sodipodi:namedview
     id="namedview26"
     pagecolor="#ffffff"
     bordercolor="#000000"
     borderopacity="0.25"
     inkscape:showpageshadow="2"
     inkscape:pageopacity="0.0"
     inkscape:pagecheckerboard="0"
     inkscape:deskcolor="#d1d1d1"
     inkscape:zoom="1.2284478"
     inkscape:cx="194.14744"
     inkscape:cy="79.775469"
     inkscape:window-width="1512"
     inkscape:window-height="703"
     inkscape:window-x="0"
     inkscape:window-y="33"
     inkscape:window-maximized="0"
     inkscape:current-layer="g26" />
  <clipPath
     id="p.0">
    <path
       d="M 0,0 H 315 V 189 H 0 Z"
       clip-rule="nonzero"
       id="path1" />
  </clipPath>
  <g
     clip-path="url(#p.0)"
     id="g26">
    <path
       fill="#000000"
       fill-opacity="0"
       d="M 0,0 H 315 V 189 H 0 Z"
       fill-rule="evenodd"
       id="path2" />
    <path
       fill="#073763"
       d="m 81.99213,98.93438 -4.031494,10.021 -50.14961,44.79528 49.572178,-23.5748 -8.650917,47.73753 19.309708,-22.69029 12.679795,-19.45145 9.53805,18.32283 5.74279,-12.13122 3.16272,11.02624 1.44883,29.64043 10.37532,-33.59319 2.14174,-7.3202 L 149,188 l -5.20997,-49.66929 7.72178,11.27821 20.21785,17.66667 -5.88189,-31.19948 -3.67716,2.63256 44.48032,35.70604 -39.33335,-48.4882 48.88977,7.51969 -35.65617,-19.54856 45.94751,0.37795 -42.27297,-14.286085 34.95014,-64.708664 -40.021,12.82415 7.74279,-27.559057 -22.15487,21.93701 -6.66404,5.175854 -1.02362,-35.427822 -16.84514,36.015747 -5.76378,-5.895012 2.3622,-3.627297 -8.82414,-37.2152248 -12.09449,53.5275598 -14.37271,-17.816273 0.73753,15.034119 -23.194225,-17.603676 12.532814,42.03675 -68.39371,-4.866142 z"
       fill-rule="evenodd"
       id="path3"
       style="fill:#3d7c76;fill-opacity:1;stroke:none;stroke-opacity:1" />
    <path
       fill="#ffffff"
       d="m 65.414696,102.02887 -1.293961,31.09186 -55.2860896,42.23097 63.9343826,-32.80052 7.490814,-1.47244 8.648293,-2.95012 6.627297,8.25197 L 84.000001,187 l 26.522309,-29.71391 -0.91601,-14.84776 12.91338,-12.28609 10.77166,6.58529 5.76115,8.76116 21.90814,41.25984 -8.07348,-48.62991 11.52755,-2.94489 8.64566,2.94489 86.17322,33.89238 -79.54329,-53.34121 3.16797,-6.48294 4.61156,-2.35958 6.91601,-3.8294 4.90288,-0.88451 -7.20735,6.77953 113.26511,-33.007877 -103.46457,1.178482 -5.18898,5.895012 -0.28871,-3.829399 L 174.21523,65.341211 164.70342,46.183729 178,-0.99999805 147.41208,44.711287 124.64305,43.824149 106.48557,19.367457 105.04725,51.194227 90.923886,59.74016 86.889768,72.708666 21.178478,57.971132 75.073494,91.569559 67.868767,94.811021 Z"
       fill-rule="evenodd"
       id="path4" />
    <path
       stroke="#073763"
       stroke-width="2"
       stroke-linejoin="round"
       stroke-linecap="butt"
       d="m 65.414696,102.02887 -1.293961,31.09186 -55.2860896,42.23097 63.9343826,-32.80052 7.490814,-1.47244 8.648293,-2.95012 6.627297,8.25197 L 84.000001,187 l 26.522309,-29.71391 -0.91601,-14.84776 12.91338,-12.28609 10.77166,6.58529 5.76115,8.76116 21.90814,41.25984 -8.07348,-48.62991 11.52755,-2.94489 8.64566,2.94489 86.17322,33.89238 -79.54329,-53.34121 3.16797,-6.48294 4.61156,-2.35958 6.91601,-3.8294 4.90288,-0.88451 -7.20735,6.77953 113.26511,-33.007877 -103.46457,1.178482 -5.18898,5.895012 -0.28871,-3.829399 L 174.21523,65.341211 164.70342,46.183729 178,-0.99999805 147.41208,44.711287 124.64305,43.824149 106.48557,19.367457 105.04725,51.194227 90.923886,59.74016 86.889768,72.708666 21.178478,57.971132 75.073494,91.569559 67.868767,94.811021 Z"
       fill-rule="evenodd"
       id="path5"
       style="stroke:#3d7c76;stroke-opacity:1" />
    <path
       fill="#ff0000"
       d="m 48.8827,115.16601 21.292004,22.08161 -14.698956,19.44866 22.768559,-10.6092 29.972793,3.24248 -1.15279,28.2912 19.59759,-27.99728 17.92135,-6.69533 27.03786,0.80133 31.70048,15.91534 -18.78973,-25.97071 0.93191,-14.80771 20.74134,-13.15245 -7.20728,-14.736539 5.47656,-12.669785 29.30109,-21.441162 -41.98189,5.819744 0.57791,-12.669781 10.08474,-22.69422 -22.76554,10.609198 -14.12407,5.012222 -19.59759,0.881779 L 134.7315,31.449553 124.93119,44.710278 100.14448,53.11039 73.04006,41.136753 83.263975,66.120506 80.474256,80.00312 68.398603,89.257164 48.8827,97.583015 l 7.434197,8.328945 z"
       fill-rule="evenodd"
       id="path6" />
    <path
       stroke="#073763"
       stroke-width="2"
       stroke-linejoin="round"
       stroke-linecap="butt"
       d="m 48.8827,115.16601 21.292004,22.08161 -14.698956,19.44866 22.768559,-10.6092 29.972793,3.24248 -1.15279,28.2912 19.59759,-27.99728 17.92135,-6.69533 27.03786,0.80133 31.70048,15.91534 -18.78973,-25.97071 0.93191,-14.80771 20.74134,-13.15245 -7.20728,-14.736539 5.47656,-12.669785 29.30109,-21.441162 -41.98189,5.819744 0.57791,-12.669781 10.08474,-22.69422 -22.76554,10.609198 -14.12407,5.012222 -19.59759,0.881779 L 134.7315,31.449553 124.93119,44.710278 100.14448,53.11039 73.04006,41.136753 83.263975,66.120506 80.474256,80.00312 68.398603,89.257164 48.8827,97.583015 l 7.434197,8.328945 z"
       fill-rule="evenodd"
       id="path7"
       style="fill:#ffffff;fill-opacity:1;stroke:#3d7c76;stroke-opacity:1" />
    <path
       fill="#000000"
       fill-opacity="0"
       d="m 175.55647,19.125963 59.59055,-21.637794 41.51179,124.188981 -59.59053,21.63779 z"
       fill-rule="evenodd"
       id="path8" />
    <path
       fill="#073763"
       d="m 228.31531,98.577079 q -1.78017,1.396256 -3.13771,1.834321 -1.34136,0.43219 -3.34433,-0.13906 -2.5446,-1.215884 -2.59021,-3.41232 -0.0295,-2.202304 2.09583,-5.113866 1.51966,-1.850341 2.39204,-2.221971 0.88854,-0.377508 2.95456,-0.268099 3.90777,0.848927 4.33771,3.436208 0.44611,2.581406 -2.70789,5.884787 z"
       fill-rule="nonzero"
       id="path9"
       style="fill:#3d7c76;fill-opacity:1;stroke-width:1.10023" />
    <path
       fill="#ffff00"
       d="m 152.58864,67.20278 -16.74501,4.655212 -9.05199,1.265969 -19.01159,-2.536377 -7.2416,6.34761 -6.334018,12.690781 -5.431198,8.883987 -4.979789,8.888428 1.810402,16.07558 8.600586,5.92563 13.124217,4.65077 11.76522,3.81122 17.65259,-8.46199 11.31382,-4.65522 h 14.03178 l 5.88261,-13.11721 4.97979,-15.231595 4.07222,-11.846802 -8.59584,-9.305977 z"
       fill-rule="evenodd"
       id="path10"
       style="fill:#3d7c76;fill-opacity:1" />
    <path
       fill="#000000"
       fill-opacity="0"
       d="M 157.2,120.63654 289.07401,88.919999 301.89292,124.38457 170.0189,156.10111 Z"
       fill-rule="evenodd"
       id="path11" />
    <path
       fill="#073763"
       d="m 216.67891,121.14308 3.6224,-0.87122 2.16635,15.95422 8.9688,-2.15705 0.46577,3.26908 -12.61058,3.03294 z m 19.87027,-4.77893 3.25434,-0.78269 9.33449,17.61134 -3.75798,0.90382 -2.23022,-4.42259 -6.04378,1.45358 -0.9079,5.17732 -3.73862,0.89917 z m 5.62364,10.83997 -3.40987,-6.98719 -1.43289,8.15192 z m 6.39475,-13.73046 9.62744,-2.31548 q 1.04603,-0.25156 1.94101,0.12739 0.90753,0.3555 1.56287,1.12001 0.65531,0.76451 1.00287,1.726 0.3816,1.05575 0.30404,2.18095 -0.0581,1.12053 -0.57875,2.12687 -0.50121,1.00168 -1.48055,1.72901 1.30539,0.11642 2.29216,0.92412 0.99934,0.78424 1.48315,2.12278 0.49746,1.37624 0.33093,2.6048 -0.17334,1.20972 -0.92168,2.16838 -0.74835,0.95866 -1.85182,1.63387 -1.10346,0.67523 -2.4788,1.00602 l -8.62015,2.07319 z m 10.80117,13.97993 q 0.50365,-0.12113 0.93233,-0.44963 0.42188,-0.34737 0.64003,-0.85065 0.23751,-0.50793 0.27914,-1.09172 0.0611,-0.58843 -0.15022,-1.17288 -0.19763,-0.54672 -0.54124,-0.91488 -0.33108,-0.39169 -0.76834,-0.55291 -0.44408,-0.18008 -0.90899,-0.0682 l -5.19147,1.24858 0.71102,5.05435 z m -1.6295,-7.88669 q 0.48429,-0.11642 0.87423,-0.43567 0.38995,-0.31919 0.62853,-0.76591 0.23175,-0.46557 0.25405,-1.04469 0.0417,-0.58378 -0.19006,-1.22478 -0.29301,-0.81067 -0.8508,-1.1888 -0.53841,-0.3828 -1.23577,-0.21509 l -4.59094,1.10417 0.65541,4.84231 z"
       fill-rule="nonzero"
       id="path12"
       style="fill:#3d7c76;fill-opacity:1;stroke-width:1.2751" />
    <path
       fill="#000000"
       fill-opacity="0"
       d="m 222.93219,20.745156 3.27741,65.59484"
       fill-rule="evenodd"
       id="path13"
       style="stroke-width:1.10023" />
    <path
       stroke="#073763"
       stroke-width="8.80183"
       stroke-linejoin="round"
       stroke-linecap="butt"
       d="m 222.93219,20.745156 3.27741,65.59484"
       fill-rule="evenodd"
       id="path14"
       style="stroke:#3d7c76;stroke-opacity:1" />
    <path
       fill="#000000"
       fill-opacity="0"
       d="m 231.54983,22.123947 -5.35232,64.250348"
       fill-rule="evenodd"
       id="path15"
       style="stroke-width:1.10023" />
    <path
       stroke="#073763"
       stroke-width="8.80183"
       stroke-linejoin="round"
       stroke-linecap="butt"
       d="m 231.54983,22.123947 -5.35232,64.250348"
       fill-rule="evenodd"
       id="path16"
       style="stroke:#3d7c76;stroke-opacity:1" />
    <path
       fill="#000000"
       fill-opacity="0"
       d="m 218.00211,21.2752 19.26699,0.405197"
       fill-rule="evenodd"
       id="path17"
       style="stroke-width:1.10023" />
    <path
       stroke="#ffffff"
       stroke-width="2.20046"
       stroke-linejoin="round"
       stroke-linecap="butt"
       d="m 218.00211,21.2752 19.26699,0.405197"
       fill-rule="evenodd"
       id="path18" />
    <path
       fill="#000000"
       fill-opacity="0"
       d="m -39.92828,97.863495 298.4935,-71.65619 35.72772,97.459845 -298.493498,71.65617 z"
       fill-rule="evenodd"
       id="path19" />
    <path
       fill="#073763"
       d="M 57.38033,97.15207 39.057153,101.55072 36.696584,84.875451 91.954789,71.6102 l 2.360573,16.67527 -18.232025,4.37677 7.432129,53.01086 -18.70301,4.48982 -7.432125,-53.010851 z m 41.569424,-27.221077 45.473696,-10.916389 2.36056,16.67527 -26.77067,6.426552 1.41626,9.815567 22.8356,-5.481903 2.13141,15.50905 -22.8356,5.4819 1.53907,11.00732 27.62151,-6.6308 2.36056,16.67527 -46.33969,11.12428 -9.792704,-69.686118 z m 55.160156,-13.241718 45.47369,-10.916389 2.36057,16.67527 -26.77068,6.426556 1.41626,9.815567 22.8356,-5.481903 2.13141,15.509048 -22.8356,5.481895 1.53908,11.007321 27.62151,-6.630795 2.36056,16.675265 -46.33971,11.12429 -9.79269,-69.686132 z"
       fill-rule="nonzero"
       id="path20"
       style="fill:#3d7c76;fill-opacity:1" />
    <path
       fill="#000000"
       fill-opacity="0"
       d="M -37.85869,99.94747 147.78749,55.357268 180.71945,145.31735 -4.92673,189.90754 Z"
       fill-rule="evenodd"
       id="path21" />
    <path
       fill="#ffffff"
       d="m 60.03635,93.323845 -18.504951,4.444687 -1.569153,-10.743126 48.90594,-11.746674 1.477997,10.765015 -18.413795,4.422798 7.358109,52.338295 -11.987198,2.8792 z"
       fill-rule="nonzero"
       id="path22" />
    <path
       fill="#000000"
       fill-opacity="0"
       d="M 18.451881,86.50747 204.09806,41.91727 237.03002,131.87735 51.383821,176.46754 Z"
       fill-rule="evenodd"
       id="path23" />
    <path
       fill="#ffffff"
       d="m 102.09198,72.187706 39.95732,-9.597317 1.56917,10.743122 -28.13725,6.758263 2.15303,15.182655 24.23268,-5.82042 1.38455,9.967926 -24.23268,5.820415 2.32733,16.42635 28.83612,-6.92612 1.478,10.76502 -40.73217,9.78343 z"
       fill-rule="nonzero"
       id="path24" />
    <path
       fill="#000000"
       fill-opacity="0"
       d="M 73.50131,73.06747 259.14749,28.477275 292.07947,118.43735 106.43326,163.02754 Z"
       fill-rule="evenodd"
       id="path25" />
    <path
       fill="#ffffff"
       d="m 157.14142,58.747704 39.95732,-9.597317 1.56915,10.743126 -28.13725,6.758259 2.15305,15.182663 24.23266,-5.820427 1.38455,9.967926 -24.23268,5.820427 2.32733,16.426349 28.83612,-6.92613 1.478,10.76502 -40.73216,9.78342 z"
       fill-rule="nonzero"
       id="path26" />
    <g
       id="g1" />
  </g>
  <path
     fill="#ffffff"
     d="m 289.48495,139.76205 v -11.0505 h -3.94089 v -2.23797 h 10.5754 v 2.23797 h -3.94118 v 11.0505 z m 8.37653,0 v -13.28847 h 2.67363 v 5.22844 h 5.26782 v -5.22844 h 2.67344 v 13.28847 h -2.67344 v -5.82236 h -5.26782 v 5.82236 z m 13.39529,0 v -13.28847 h 9.86234 v 2.23797 h -7.169 v 2.95076 h 6.67395 v 2.23796 h -6.67395 v 3.6241 h 7.42645 v 2.23768 z m 11.85539,-6.57481 q 0,-2.02002 0.59412,-3.40642 0.45551,-1.00982 1.24765,-1.82172 0.79214,-0.81218 1.72297,-1.18843 1.24761,-0.53476 2.85175,-0.53476 2.95079,0 4.71336,1.82201 1.76255,1.82207 1.76255,5.06989 0,3.22812 -1.76255,5.04993 -1.74274,1.80229 -4.67372,1.80229 -2.95079,0 -4.71335,-1.80229 -1.74278,-1.80208 -1.74278,-4.9905 z m 2.75273,-0.0782 q 0,2.25769 1.04964,3.42609 1.04962,1.16842 2.65376,1.16842 1.60406,0 2.63391,-1.1487 1.02981,-1.16841 1.02981,-3.48552 0,-2.27738 -1.01001,-3.40635 -0.99022,-1.12873 -2.65371,-1.12873 -1.66354,0 -2.69334,1.1487 -1.01006,1.12868 -1.01006,3.42609 z m 12.25088,6.65402 v -13.28862 h 5.6441 q 2.13886,0 3.08942,0.35654 0.97042,0.35653 1.54475,1.26755 0.59409,0.91102 0.59409,2.09913 0,1.48526 -0.89117,2.47565 -0.87134,0.97023 -2.61413,1.22784 0.87138,0.49508 1.42589,1.10899 0.57434,0.61393 1.52491,2.15857 l 1.62393,2.59426 h -3.20827 l -1.94075,-2.89137 q -1.02983,-1.54465 -1.40608,-1.94081 -0.37627,-0.41571 -0.81197,-0.55454 -0.43569,-0.15827 -1.34665,-0.15827 h -0.55453 v 5.54499 z m 2.67354,-7.66417 h 2.00019 q 1.92101,0 2.39627,-0.15824 0.49511,-0.17827 0.75259,-0.57452 0.27721,-0.39594 0.27721,-0.99015 0,-0.67333 -0.35647,-1.08929 -0.35647,-0.41575 -1.00998,-0.53449 -0.31686,-0.0407 -1.96058,-0.0407 h -2.09923 z m 10.72177,7.66417 v -13.28862 h 9.86239 v 2.23799 h -7.16905 v 2.95074 h 6.67393 v 2.23798 h -6.67393 v 3.62408 h 7.42645 v 2.23774 z m 15.38054,0 v -11.05055 h -3.94102 v -2.238 h 10.5753 v 2.238 h -3.94097 v 11.05055 z m 8.27736,0 v -13.28862 h 2.69336 v 13.28853 z m 13.756,-4.89149 2.59431,0.83169 q -0.59413,2.17855 -2.00021,3.22813 -1.38626,1.04957 -3.52508,1.04957 -2.63392,0 -4.35689,-1.80214 -1.70312,-1.80224 -1.70312,-4.95093 0,-3.30725 1.72293,-5.14902 1.72294,-1.84188 4.51532,-1.84188 2.43587,0 3.96076,1.44565 0.91101,0.85161 1.34668,2.45566 l -2.65374,0.63384 q -0.23763,-1.0498 -0.99019,-1.64369 -0.73273,-0.5942 -1.80215,-0.5942 -1.48529,0 -2.41612,1.0694 -0.91096,1.04972 -0.91096,3.42601 0,2.51524 0.91096,3.60431 0.91101,1.06958 2.35671,1.06958 1.06941,0 1.84175,-0.67332 0.77237,-0.69328 1.10904,-2.15866 z m 16.90056,4.89149 h -2.93102 l -1.14863,-3.02994 h -5.32727 l -1.0892,3.02994 h -2.85176 l 5.18864,-13.28855 h 2.83194 z m -4.95101,-5.26794 -1.82197,-4.93101 -1.80216,4.93101 z m 6.44412,5.26794 v -13.18965 h 2.6735 v 10.95165 h 6.69376 v 2.23771 z"
     fill-rule="nonzero"
     id="path26-8"
     style="fill:#3d7c76;fill-opacity:1;stroke-width:1.26756" />
  <path
     fill="#ffffff"
     d="m 286.49454,157.60785 v -13.28846 h 9.86248 v 2.23796 h -7.16915 v 2.95077 h 6.67398 v 2.23775 h -6.67398 v 3.6242 h 7.42666 v 2.23778 z m 15.79643,0 -4.75279,-13.28846 h 2.91101 l 3.34696,9.82281 3.26757,-9.82281 h 2.85188 l -4.77277,13.28846 z m 8.44914,-6.5748 q 0,-2.02002 0.5942,-3.40641 0.45545,-1.0099 1.24762,-1.822 0.79215,-0.81191 1.72294,-1.18813 1.24772,-0.53479 2.85178,-0.53479 2.95078,0 4.71335,1.82204 1.76259,1.82202 1.76259,5.06988 0,3.22795 -1.76259,5.04985 -1.74274,1.80228 -4.6737,1.80228 -2.95083,0 -4.71334,-1.80228 -1.74285,-1.80203 -1.74285,-4.99044 z m 2.75276,-0.0782 q 0,2.2576 1.04963,3.42605 1.04963,1.16848 2.6538,1.16848 1.60414,0 2.63394,-1.14862 1.02977,-1.1684 1.02977,-3.48551 0,-2.27739 -1.01003,-3.40638 -0.99014,-1.12871 -2.65368,-1.12871 -1.66357,0 -2.69334,1.14863 -1.01009,1.12877 -1.01009,3.42606 z m 12.31032,6.65405 v -13.18937 h 2.67357 v 10.9516 h 6.69369 v 2.23773 z m 11.24802,-13.28847 h 2.69335 v 7.18894 q 0,1.72299 0.10018,2.21806 0.17829,0.8317 0.81199,1.3268 0.65354,0.49515 1.78237,0.49515 1.14859,0 1.72292,-0.47529 0.57434,-0.47536 0.69318,-1.14869 0.11881,-0.67333 0.11881,-2.25769 v -7.34728 h 2.69335 v 6.97106 q 0,2.39622 -0.21788,3.38645 -0.21783,0.99023 -0.81194,1.68341 -0.57434,0.67335 -1.56453,1.06935 -0.97041,0.39616 -2.55471,0.39616 -1.90118,0 -2.89138,-0.43569 -0.99017,-0.43573 -1.56451,-1.12893 -0.55448,-0.71286 -0.73272,-1.48522 -0.27727,-1.14871 -0.27727,-3.3667 z m 16.42534,13.28847 v -11.0505 h -3.94103 v -2.23799 h 10.57534 v 2.23799 h -3.94097 v 11.05048 z m 8.2774,0 v -13.2885 h 2.69335 v 13.28847 z m 4.70551,-6.5748 q 0,-2.02002 0.59414,-3.4064 0.45553,-1.00987 1.24766,-1.82194 0.79216,-0.81198 1.72297,-1.1882 1.24763,-0.53479 2.85172,-0.53479 2.95082,0 4.71336,1.82204 1.76256,1.82202 1.76256,5.06988 0,3.22802 -1.76256,5.04993 -1.74275,1.80224 -4.67371,1.80224 -2.95081,0 -4.71333,-1.80224 -1.74281,-1.8021 -1.74281,-4.99052 z m 2.75276,-0.0782 q 0,2.25763 1.04963,3.4261 1.04963,1.16842 2.65375,1.16842 1.6041,0 2.63393,-1.14865 1.02981,-1.16841 1.02981,-3.48549 0,-2.27742 -1.01004,-3.40633 -0.99019,-1.12879 -2.6537,-1.12879 -1.66353,0 -2.69334,1.14869 -1.01004,1.12872 -1.01004,3.42605 z m 12.27068,6.65408 v -13.28935 h 2.61412 l 5.42628,8.87219 v -8.87219 h 2.4953 v 13.28845 h -2.69331 l -5.3471,-8.67404 v 8.67404 z m 25.37669,0 h -2.93098 L 402.77997,154.58 h -5.32724 l -1.08926,3.02993 h -2.85177 l 5.18863,-13.28848 h 2.832 z m -4.951,-5.26787 -1.82196,-4.93107 -1.80217,4.93107 z m 6.38467,5.26787 v -13.28935 h 5.6441 q 2.13885,0 3.08944,0.35652 0.97043,0.35651 1.5447,1.26754 0.59414,0.91095 0.59414,2.09913 0,1.48523 -0.8912,2.47546 -0.87136,0.97039 -2.6141,1.22788 0.87139,0.49515 1.42588,1.10908 0.5743,0.61393 1.52489,2.15861 l 1.62392,2.59423 h -3.20823 l -1.94078,-2.89132 q -1.02983,-1.54465 -1.40608,-1.94083 -0.37629,-0.41582 -0.81196,-0.55453 -0.4357,-0.15833 -1.34668,-0.15833 h -0.55449 v 5.54501 z m 2.67355,-7.66416 h 2.00019 q 1.92098,0 2.39626,-0.15835 0.49512,-0.17824 0.75256,-0.57441 0.27724,-0.39595 0.27724,-0.99014 0,-0.67334 -0.35646,-1.08928 -0.35646,-0.41589 -1.01,-0.53465 -0.31683,-0.0407 -1.9606,-0.0407 h -2.09919 z m 13.53721,7.66416 v -5.60452 l -4.8718,-7.68406 h 3.14882 l 3.12904,5.24812 3.04979,-5.24812 h 3.10924 l -4.8916,7.70376 v 5.58474 z"
     fill-rule="nonzero"
     id="path27"
     style="fill:#3d7c76;fill-opacity:1;stroke-width:1.26756" />
  <path
     fill="#ffffff"
     d="M 286.49454,175.45366 V 162.1652 h 9.86248 v 2.2378 h -7.16915 v 2.95083 h 6.67398 v 2.23781 h -6.67398 v 3.62413 h 7.42666 v 2.23789 z m 20.90598,-4.89162 2.59421,0.83177 q -0.59408,2.17843 -2.00018,3.22806 -1.38619,1.04959 -3.52506,1.04959 -2.63391,0 -4.35681,-1.80215 -1.70321,-1.80215 -1.70321,-4.95102 0,-3.30725 1.7229,-5.14901 1.72291,-1.84175 4.51539,-1.84175 2.43588,0 3.96074,1.44571 0.91097,0.85154 1.34669,2.45569 l -2.65381,0.63369 q -0.23766,-1.04958 -0.99014,-1.64375 -0.73277,-0.59409 -1.80213,-0.59409 -1.48543,0 -2.41614,1.06944 -0.91102,1.04954 -0.91102,3.42607 0,2.51508 0.91102,3.60435 0.91101,1.06938 2.35676,1.06938 1.06934,0 1.84178,-0.67333 0.77221,-0.69312 1.10901,-2.15865 z m 4.36453,-1.68334 q 0,-2.01999 0.59422,-3.40624 0.45546,-1.01004 1.24762,-1.82202 0.79212,-0.81191 1.72295,-1.18816 1.24771,-0.53475 2.85177,-0.53475 2.95078,0 4.71334,1.82201 1.76259,1.82192 1.76259,5.06976 0,3.22805 -1.76259,5.05001 -1.74274,1.80215 -4.67372,1.80215 -2.95078,0 -4.71331,-1.80215 -1.74287,-1.80215 -1.74287,-4.99061 z m 2.75278,-0.0781 q 0,2.25767 1.04963,3.42608 1.04963,1.16843 2.65377,1.16843 1.60414,0 2.63395,-1.1486 1.02978,-1.16845 1.02978,-3.48549 0,-2.27747 -1.01001,-3.4063 -0.99016,-1.12879 -2.65372,-1.12879 -1.66353,0 -2.69332,1.14858 -1.01008,1.12888 -1.01008,3.42609 z m 12.31031,6.65414 v -13.18965 h 2.67355 v 10.95154 h 6.69373 v 2.23788 z m 10.73313,-6.57497 q 0,-2.01999 0.5941,-3.40629 0.45547,-1.01004 1.24765,-1.82199 0.79219,-0.81195 1.72292,-1.18818 1.24768,-0.53477 2.85181,-0.53477 2.95078,0 4.71333,1.82204 1.76255,1.82193 1.76255,5.06977 0,3.22804 -1.76255,5.05 -1.74275,1.80215 -4.67377,1.80215 -2.95076,0 -4.71331,-1.80215 -1.74273,-1.80213 -1.74273,-4.99058 z m 2.75275,-0.0782 q 0,2.25767 1.04959,3.42611 1.04959,1.1684 2.6537,1.1684 1.60413,0 2.63395,-1.14855 1.02982,-1.16848 1.02982,-3.48553 0,-2.27745 -1.00999,-3.40631 -0.99021,-1.12878 -2.65378,-1.12878 -1.66351,0 -2.69332,1.14859 -1.00997,1.12886 -1.00997,3.42607 z m 18.4297,1.76258 v -2.23791 h 5.78276 v 5.28763 q -0.85158,0.83177 -2.45569,1.44571 -1.58432,0.61393 -3.22808,0.61393 -2.09918,0 -3.64388,-0.87143 -1.54475,-0.87132 -2.33688,-2.49523 -0.77236,-1.62396 -0.77236,-3.54494 0,-2.07937 0.87137,-3.6835 0.87137,-1.62401 2.55473,-2.47556 1.26742,-0.67334 3.16863,-0.67334 2.47549,0 3.86178,1.04961 1.40608,1.0298 1.80214,2.8716 l -2.67352,0.49508 q -0.27725,-0.9902 -1.04964,-1.54472 -0.7723,-0.57426 -1.94076,-0.57426 -1.76254,0 -2.79236,1.12878 -1.02984,1.10905 -1.02984,3.28751 0,2.37648 1.04963,3.56467 1.04962,1.18823 2.75277,1.18823 0.85151,0 1.68334,-0.33665 0.85157,-0.33669 1.46548,-0.81193 v -1.68346 z m 11.75578,4.8916 v -5.60456 l -4.87175,-7.68394 h 3.1488 l 3.12901,5.24811 3.04985,-5.24811 h 3.10922 l -4.89161,7.70378 v 5.58472 z"
     fill-rule="nonzero"
     id="path28"
     style="fill:#3d7c76;fill-opacity:1;stroke-width:1.26756" />
  <path
     fill="#000000"
     fill-opacity="0"
     d="m 280.07826,123.61918 0.63865,59.56046"
     fill-rule="evenodd"
     id="path29"
     style="fill:#3d7c76;fill-opacity:1;stroke-width:1.26756" />
  <path
     stroke="#ffffff"
     stroke-width="2.53478"
     stroke-linejoin="round"
     stroke-linecap="butt"
     d="m 280.07826,123.61918 0.63865,59.56046"
     fill-rule="evenodd"
     id="path30"
     style="fill:#3d7c76;fill-opacity:1;stroke:#3d7c76;stroke-opacity:1" />
</svg>
