<svg version="1.1" viewBox="0.0 0.0 338.501312335958 140.0" fill="none" stroke="none" stroke-linecap="square" stroke-miterlimit="10" xmlns:xlink="http://www.w3.org/1999/xlink" xmlns="http://www.w3.org/2000/svg"><clipPath id="p.0"><path d="m0 0l338.5013 0l0 140.0l-338.5013 0l0 -140.0z" clip-rule="nonzero"/></clipPath><g clip-path="url(#p.0)"><path fill="#000000" fill-opacity="0.0" d="m0 0l338.5013 0l0 140.0l-338.5013 0z" fill-rule="evenodd"/><path fill="#000000" fill-opacity="0.0" d="m120.80581 -16.372725l59.590553 -21.637793l54.204727 162.55118l-59.59056 21.637787z" fill-rule="evenodd"/><path fill="#ffffff" d="m187.20477 90.1668q-2.1904907 1.7262802 -3.869873 2.2695847q-1.6646881 0.5379715 -4.1367645 -0.16022491q-3.1459503 -1.5340118 -3.1931305 -4.24308q-0.047195435 -2.7090607 2.5640717 -6.3335648q1.8898926 -2.2820587 2.9863129 -2.7466736q1.0964203 -0.46460724 3.6599426 -0.33155823q4.82547 1.0405273 5.3691254 4.2508698q0.5386963 3.1955185 -3.3796844 7.294647z" fill-rule="nonzero"/><path fill="#000000" fill-opacity="0.0" d="m134.01053 9.309691l59.59056 -21.637794l41.51181 124.18897l-59.59056 21.637802z" fill-rule="evenodd"/><path fill="#3d7c76" d="m185.82776 88.94487q-1.6180115 1.2690582 -2.8518677 1.6672134q-1.2191925 0.39282227 -3.0396729 -0.12638855q-2.31279 -1.1051178 -2.354248 -3.1014633q-0.026794434 -2.0016785 1.9049072 -4.6480026q1.3812256 -1.681778 2.174118 -2.0195618q0.8076019 -0.34311676 2.6854095 -0.2436676q3.5517883 0.7715912 3.942566 3.123169q0.4054718 2.3462448 -2.4612122 5.3487015z" fill-rule="nonzero"/><path fill="#000000" fill-opacity="0.0" d="m111.2 110.712654l131.87402 -31.716537l12.818893 35.46457l-131.87402 31.71653z" fill-rule="evenodd"/><path fill="#ffffff" d="m163.97621 106.4487l2.840866 -0.6832428l1.6989594 12.512108l7.033798 -1.6916733l0.36528015 2.5637894l-9.889862 2.3785782l-2.0490417 -15.079559zm15.583282 -3.7478714l2.5522156 -0.61383057l7.320587 13.811714l-2.9472046 0.70882416l-1.749054 -3.4684143l-4.7398376 1.1399612l-0.7120209 4.060318l-2.932022 0.7051697l3.2073364 -16.343742zm4.4103394 8.501259l-2.6741943 -5.4797134l-1.1237488 6.3931427l3.797943 -0.91342926zm5.015091 -10.768135l7.5503235 -1.8159027q0.8203583 -0.19730377 1.5222473 0.09993744q0.71173096 0.27880096 1.2256775 0.87836456q0.5139313 0.5995712 0.786499 1.3536148q0.29927063 0.8279724 0.2384491 1.7104111q-0.045639038 0.8787842 -0.45388794 1.6680069q-0.3930664 0.78556824 -1.1611176 1.3559799q1.0237427 0.09127045 1.7976227 0.7247467q0.7837372 0.6150284 1.1631622 1.6647797q0.39013672 1.0793228 0.25953674 2.0428238q-0.13594055 0.9487152 -0.72283936 1.7005539q-0.58688354 0.75183105 -1.4522858 1.2813721q-0.86538696 0.529541 -1.9440002 0.7889557l-6.7603607 1.6259079l-2.0490265 -15.079552zm8.470825 10.963783q0.394989 -0.09500122 0.7311859 -0.35263062q0.33085632 -0.2724228 0.50193787 -0.66711426q0.18626404 -0.39835358 0.21891785 -0.8561859q0.04786682 -0.4614792 -0.11781311 -0.9198227q-0.15498352 -0.42877197 -0.424469 -0.71751404q-0.25964355 -0.30717468 -0.6025696 -0.43361664q-0.3482666 -0.14122772 -0.71287537 -0.05353546l-4.071411 0.9792023l0.5576172 3.9638748l3.9194794 -0.9426575zm-1.2779388 -6.18515q0.37980652 -0.09133911 0.68562317 -0.34166718q0.30581665 -0.25032806 0.49291992 -0.60066986q0.18174744 -0.36512756 0.19923401 -0.8193054q0.03265381 -0.4578247 -0.14904785 -0.9605255q-0.22979736 -0.6357651 -0.6672363 -0.93231964q-0.42225647 -0.30020905 -0.969162 -0.16867828l-3.6004486 0.8659363l0.51400757 3.7975845l3.49411 -0.8403549z" fill-rule="nonzero"/><path fill="#000000" fill-opacity="0.0" d="m180.48096 13.019554l2.9788513 59.619278" fill-rule="evenodd"/><path stroke="#3d7c76" stroke-width="8.0" stroke-linejoin="round" stroke-linecap="butt" d="m180.48096 13.019554l2.9788513 59.619278" fill-rule="evenodd"/><path fill="#000000" fill-opacity="0.0" d="m188.31355 14.27274l-4.864731 58.397266" fill-rule="evenodd"/><path stroke="#3d7c76" stroke-width="8.0" stroke-linejoin="round" stroke-linecap="butt" d="m188.31355 14.27274l-4.864731 58.397266" fill-rule="evenodd"/><path fill="#000000" fill-opacity="0.0" d="m176.0 13.501312l17.51181 0.36828327" fill-rule="evenodd"/><path stroke="#3d7c76" stroke-width="2.0" stroke-linejoin="round" stroke-linecap="butt" d="m176.0 13.501312l17.51181 0.36828327" fill-rule="evenodd"/><path fill="#000000" fill-opacity="0.0" d="m-77.68135 31.767672l306.14172 -22.64567l19.559052 101.92126l-306.14172 22.645676z" fill-rule="evenodd"/><path fill="#ffffff" d="m18.473259 46.73791l-18.792406 1.3900986l0.35619262 -16.83778l56.67328 -4.19219l-0.35619354 16.837778l-18.698902 1.3831825l-1.2035484 53.515846l-19.181969 1.4189148l1.2035484 -53.51585zm45.41119 -20.17055l46.638203 -3.4498844l-0.35619354 16.83778l-27.456238 2.0309715l-0.18325043 9.915535l23.420387 -1.7324333l-0.394516 15.649868l-23.420387 1.7324371l-0.25400543 11.111511l28.32885 -2.09552l-0.35619354 16.837776l-47.526405 3.5155869l1.5597496 -70.35363zm56.572727 -4.1847515l46.638206 -3.4498844l-0.35620117 16.837778l-27.456223 2.0309715l-0.18325806 9.915535l23.420395 -1.7324333l-0.394516 15.649868l-23.420395 1.7324333l-0.2539978 11.111515l28.328842 -2.09552l-0.3561859 16.837776l-47.526405 3.5155869l1.5597382 -70.35362z" fill-rule="nonzero"/><path fill="#000000" fill-opacity="0.0" d="m-75.97476 34.1578l190.3937 -14.110235l18.015755 94.11024l-190.3937 14.110237z" fill-rule="evenodd"/><path fill="#3d7c76" d="m21.703554 43.386436l-18.9792 1.4065666l0.18175888 -10.855625l50.15931 -3.7173462l-0.27524567 10.862553l-18.885708 1.3996353l-1.1682472 52.84023l-12.294411 0.9111481l1.2617435 -52.84716z" fill-rule="nonzero"/><path fill="#000000" fill-opacity="0.0" d="m-18.235508 29.964228l190.39369 -14.110236l18.015747 94.11024l-190.39369 14.110237z" fill-rule="evenodd"/><path fill="#3d7c76" d="m66.61367 29.301493l40.98136 -3.0371628l-0.1817627 10.855623l-28.858353 2.1387177l-0.32058716 15.331249l24.853714 -1.8419304l-0.2390976 10.06081l-24.853714 1.8419342l-0.3488922 16.58677l29.575142 -2.1918335l-0.2752533 10.862549l-41.776062 3.0960617l1.4435043 -63.70279z" fill-rule="nonzero"/><path fill="#000000" fill-opacity="0.0" d="m38.25913 25.567505l190.3937 -14.110235l18.015747 94.11024l-190.3937 14.110237z" fill-rule="evenodd"/><path fill="#3d7c76" d="m123.10831 24.90477l40.981354 -3.0371628l-0.18174744 10.855621l-28.858368 2.1387177l-0.32058716 15.331249l24.853714 -1.8419266l-0.23908997 10.06081l-24.853714 1.8419304l-0.3488922 16.586773l29.575134 -2.1918335l-0.2752533 10.862549l-41.776054 3.0960617l1.4435043 -63.70279z" fill-rule="nonzero"/><path fill="#000000" fill-opacity="0.0" d="m175.87401 12.750656l3.3753357 60.249344l8.37532 0.12598419l5.6246796 -60.0z" fill-rule="evenodd"/><path stroke="#ffffff" stroke-width="2.0" stroke-linejoin="round" stroke-linecap="butt" d="m175.87401 12.750656l3.3753357 60.249344l8.37532 0.12598419l5.6246796 -60.0z" fill-rule="evenodd"/><path fill="#000000" fill-opacity="0.0" d="m211.0 85.47244l193.51181 0l0 62.04724l-193.51181 0z" fill-rule="evenodd"/><path fill="#ffffff" d="m223.42188 105.73644l0 -8.71875l-3.109375 0l0 -1.765625l8.34375 0l0 1.765625l-3.109375 0l0 8.71875l-2.125 0zm6.6088715 0l0 -10.484375l2.109375 0l0 4.125l4.15625 0l0 -4.125l2.109375 0l0 10.484375l-2.109375 0l0 -4.59375l-4.15625 0l0 4.59375l-2.109375 0zm10.568649 0l0 -10.484375l7.78125 0l0 1.765625l-5.65625 0l0 2.328125l5.265625 0l0 1.765625l-5.265625 0l0 2.859375l5.859375 0l0 1.765625l-7.984375 0zm9.353729 -5.1875q0 -1.59375 0.46875 -2.6875q0.359375 -0.796875 0.984375 -1.4375q0.625 -0.640625 1.359375 -0.9375q0.984375 -0.421875 2.25 -0.421875q2.328125 0 3.71875 1.4375q1.390625 1.4375 1.390625 4.0q0 2.546875 -1.390625 3.984375q-1.375 1.421875 -3.6875 1.421875q-2.328125 0 -3.71875 -1.421875q-1.375 -1.421875 -1.375 -3.9375zm2.171875 -0.0625q0 1.78125 0.828125 2.703125q0.828125 0.921875 2.09375 0.921875q1.265625 0 2.078125 -0.90625q0.8125 -0.921875 0.8125 -2.75q0 -1.796875 -0.796875 -2.6875q-0.78125 -0.890625 -2.09375 -0.890625q-1.3125 0 -2.125 0.90625q-0.796875 0.890625 -0.796875 2.703125zm9.66571 5.25l0 -10.484375l4.453125 0q1.6875 0 2.4375 0.28125q0.765625 0.28125 1.21875 1.0q0.46875 0.71875 0.46875 1.65625q0 1.171875 -0.703125 1.953125q-0.6875 0.765625 -2.0625 0.96875q0.6875 0.390625 1.125 0.875q0.453125 0.484375 1.203125 1.703125l1.28125 2.046875l-2.53125 0l-1.53125 -2.28125q-0.8125 -1.21875 -1.109375 -1.53125q-0.296875 -0.328125 -0.640625 -0.4375q-0.34375 -0.125 -1.0625 -0.125l-0.4375 0l0 4.375l-2.109375 0zm2.109375 -6.046875l1.578125 0q1.515625 0 1.890625 -0.125q0.390625 -0.140625 0.59375 -0.453125q0.21875 -0.3125 0.21875 -0.78125q0 -0.53125 -0.28125 -0.859375q-0.28125 -0.328125 -0.796875 -0.421875q-0.25 -0.03125 -1.546875 -0.03125l-1.65625 0l0 2.671875zm8.45929 6.046875l0 -10.484375l7.78125 0l0 1.765625l-5.65625 0l0 2.328125l5.265625 0l0 1.765625l-5.265625 0l0 2.859375l5.859375 0l0 1.765625l-7.984375 0zm12.134979 0l0 -8.71875l-3.109375 0l0 -1.765625l8.34375 0l0 1.765625l-3.109375 0l0 8.71875l-2.125 0zm6.530731 0l0 -10.484375l2.125 0l0 10.484375l-2.125 0zm10.853241 -3.859375l2.046875 0.65625q-0.46875 1.71875 -1.578125 2.546875q-1.09375 0.828125 -2.78125 0.828125q-2.078125 0 -3.4375 -1.421875q-1.34375 -1.421875 -1.34375 -3.90625q0 -2.609375 1.359375 -4.0625q1.359375 -1.453125 3.5625 -1.453125q1.921875 0 3.125 1.140625q0.71875 0.671875 1.0625 1.9375l-2.09375 0.5q-0.1875 -0.828125 -0.78125 -1.296875q-0.578125 -0.46875 -1.421875 -0.46875q-1.171875 0 -1.90625 0.84375q-0.71875 0.828125 -0.71875 2.703125q0 1.984375 0.71875 2.84375q0.71875 0.84375 1.859375 0.84375q0.84375 0 1.453125 -0.53125q0.609375 -0.546875 0.875 -1.703125zm13.334259 3.859375l-2.3125 0l-0.90625 -2.390625l-4.203125 0l-0.859375 2.390625l-2.25 0l4.09375 -10.484375l2.234375 0l4.203125 10.484375zm-3.90625 -4.15625l-1.4375 -3.890625l-1.421875 3.890625l2.859375 0zm5.0842896 4.15625l0 -10.40625l2.109375 0l0 8.640625l5.28125 0l0 1.765625l-7.390625 0z" fill-rule="nonzero"/><path fill="#ffffff" d="m221.0625 119.81644l0 -10.484375l7.78125 0l0 1.765625l-5.65625 0l0 2.328125l5.265625 0l0 1.765625l-5.265625 0l0 2.859375l5.859375 0l0 1.765625l-7.984375 0zm12.463104 0l-3.75 -10.484375l2.296875 0l2.640625 7.75l2.578125 -7.75l2.25 0l-3.765625 10.484375l-2.25 0zm6.6662292 -5.1875q0 -1.59375 0.46875 -2.6875q0.359375 -0.796875 0.984375 -1.4375q0.625 -0.640625 1.359375 -0.9375q0.984375 -0.421875 2.25 -0.421875q2.328125 0 3.71875 1.4375q1.390625 1.4375 1.390625 4.0q0 2.546875 -1.390625 3.984375q-1.375 1.421875 -3.6875 1.421875q-2.328125 0 -3.71875 -1.421875q-1.375 -1.421875 -1.375 -3.9375zm2.171875 -0.0625q0 1.78125 0.828125 2.703125q0.828125 0.921875 2.09375 0.921875q1.265625 0 2.078125 -0.90625q0.8125 -0.921875 0.8125 -2.75q0 -1.796875 -0.796875 -2.6875q-0.78125 -0.890625 -2.09375 -0.890625q-1.3125 0 -2.125 0.90625q-0.796875 0.890625 -0.796875 2.703125zm9.712601 5.25l0 -10.40625l2.109375 0l0 8.640625l5.2812347 0l0 1.765625l-7.3906097 0zm8.874496 -10.484375l2.125 0l0 5.671875q0 1.359375 0.078125 1.75q0.140625 0.65625 0.640625 1.046875q0.515625 0.390625 1.40625 0.390625q0.90625 0 1.359375 -0.375q0.453125 -0.375 0.546875 -0.90625q0.09375 -0.53125 0.09375 -1.78125l0 -5.796875l2.125 0l0 5.5q0 1.890625 -0.171875 2.671875q-0.171875 0.78125 -0.640625 1.328125q-0.453125 0.53125 -1.234375 0.84375q-0.765625 0.3125 -2.015625 0.3125q-1.5 0 -2.28125 -0.34375q-0.78125 -0.34375 -1.234375 -0.890625q-0.4375 -0.5625 -0.578125 -1.171875q-0.21875 -0.90625 -0.21875 -2.65625l0 -5.59375zm12.95929 10.484375l0 -8.71875l-3.109375 0l0 -1.765625l8.34375 0l0 1.765625l-3.109375 0l0 8.71875l-2.125 0zm6.530731 0l0 -10.484375l2.125 0l0 10.484375l-2.125 0zm3.712616 -5.1875q0 -1.59375 0.46875 -2.6875q0.359375 -0.796875 0.984375 -1.4375q0.625 -0.640625 1.359375 -0.9375q0.984375 -0.421875 2.25 -0.421875q2.328125 0 3.71875 1.4375q1.390625 1.4375 1.390625 4.0q0 2.546875 -1.390625 3.984375q-1.375 1.421875 -3.6875 1.421875q-2.328125 0 -3.71875 -1.421875q-1.375 -1.421875 -1.375 -3.9375zm2.171875 -0.0625q0 1.78125 0.828125 2.703125q0.828125 0.921875 2.09375 0.921875q1.265625 0 2.078125 -0.90625q0.8125 -0.921875 0.8125 -2.75q0 -1.796875 -0.796875 -2.6875q-0.78125 -0.890625 -2.09375 -0.890625q-1.3125 0 -2.125 0.90625q-0.796875 0.890625 -0.796875 2.703125zm9.681335 5.25l0 -10.484375l2.0625 0l4.28125 7.0l0 -7.0l1.96875 0l0 10.484375l-2.125 0l-4.21875 -6.84375l0 6.84375l-1.96875 0zm20.02179 0l-2.3125 0l-0.90625 -2.390625l-4.203125 0l-0.859375 2.390625l-2.25 0l4.09375 -10.484375l2.234375 0l4.203125 10.484375zm-3.90625 -4.15625l-1.4375 -3.890625l-1.421875 3.890625l2.859375 0zm5.037384 4.15625l0 -10.484375l4.453125 0q1.6875 0 2.4375 0.28125q0.765625 0.28125 1.21875 1.0q0.46875 0.71875 0.46875 1.65625q0 1.171875 -0.703125 1.953125q-0.6875 0.765625 -2.0625 0.96875q0.6875 0.390625 1.125 0.875q0.453125 0.484375 1.203125 1.703125l1.28125 2.046875l-2.53125 0l-1.53125 -2.28125q-0.8125 -1.21875 -1.109375 -1.53125q-0.296875 -0.328125 -0.640625 -0.4375q-0.34375 -0.125 -1.0625 -0.125l-0.4375 0l0 4.375l-2.109375 0zm2.109375 -6.046875l1.578125 0q1.515625 0 1.890625 -0.125q0.390625 -0.140625 0.59375 -0.453125q0.21875 -0.3125 0.21875 -0.78125q0 -0.53125 -0.28125 -0.859375q-0.28125 -0.328125 -0.796875 -0.421875q-0.25 -0.03125 -1.546875 -0.03125l-1.65625 0l0 2.671875zm10.680634 6.046875l0 -4.421875l-3.84375 -6.0625l2.484375 0l2.46875 4.140625l2.40625 -4.140625l2.453125 0l-3.859375 6.078125l0 4.40625l-2.109375 0z" fill-rule="nonzero"/><path fill="#ffffff" d="m221.0625 133.89644l0 -10.484375l7.78125 0l0 1.765625l-5.65625 0l0 2.328125l5.265625 0l0 1.765625l-5.265625 0l0 2.859375l5.859375 0l0 1.765625l-7.984375 0zm16.494354 -3.859375l2.046875 0.65625q-0.46875 1.71875 -1.578125 2.546875q-1.09375 0.828125 -2.78125 0.828125q-2.078125 0 -3.4375 -1.421875q-1.34375 -1.421875 -1.34375 -3.90625q0 -2.609375 1.359375 -4.0625q1.359375 -1.453125 3.5625 -1.453125q1.921875 0 3.125 1.140625q0.71875 0.671875 1.0625 1.9375l-2.09375 0.5q-0.1875 -0.828125 -0.78125 -1.296875q-0.578125 -0.46875 -1.421875 -0.46875q-1.171875 0 -1.90625 0.84375q-0.71875 0.828125 -0.71875 2.703125q0 1.984375 0.71875 2.84375q0.71875 0.84375 1.859375 0.84375q0.84375 0 1.453125 -0.53125q0.609375 -0.546875 0.875 -1.703125zm3.4436493 -1.328125q0 -1.59375 0.46875 -2.6875q0.359375 -0.796875 0.984375 -1.4375q0.625 -0.640625 1.359375 -0.9375q0.984375 -0.421875 2.25 -0.421875q2.328125 0 3.71875 1.4375q1.390625 1.4375 1.390625 4.0q0 2.546875 -1.390625 3.984375q-1.375 1.421875 -3.6875 1.421875q-2.328125 0 -3.71875 -1.421875q-1.375 -1.421875 -1.375 -3.9375zm2.171875 -0.0625q0 1.78125 0.828125 2.703125q0.828125 0.921875 2.09375 0.921875q1.265625 0 2.078125 -0.90625q0.8125 -0.921875 0.8125 -2.75q0 -1.796875 -0.796875 -2.6875q-0.78125 -0.890625 -2.09375 -0.890625q-1.3125 0 -2.125 0.90625q-0.796875 0.890625 -0.796875 2.703125zm9.712601 5.25l0 -10.40625l2.109375 0l0 8.640625l5.28125 0l0 1.765625l-7.390625 0zm8.468231 -5.1875q0 -1.59375 0.46875 -2.6875q0.359375 -0.796875 0.984375 -1.4375q0.625 -0.640625 1.359375 -0.9375q0.984375 -0.421875 2.25 -0.421875q2.328125 0 3.71875 1.4375q1.390625 1.4375 1.390625 4.0q0 2.546875 -1.390625 3.984375q-1.375 1.421875 -3.6875 1.421875q-2.328125 0 -3.71875 -1.421875q-1.375 -1.421875 -1.375 -3.9375zm2.171875 -0.0625q0 1.78125 0.828125 2.703125q0.828125 0.921875 2.09375 0.921875q1.265625 0 2.078125 -0.90625q0.8125 -0.921875 0.8125 -2.75q0 -1.796875 -0.796875 -2.6875q-0.78125 -0.890625 -2.09375 -0.890625q-1.3125 0 -2.125 0.90625q-0.796875 0.890625 -0.796875 2.703125zm14.540741 1.390625l0 -1.765625l4.5625 0l0 4.171875q-0.671875 0.65625 -1.9375 1.140625q-1.25 0.484375 -2.546875 0.484375q-1.65625 0 -2.875 -0.6875q-1.21875 -0.6875 -1.84375 -1.96875q-0.609375 -1.28125 -0.609375 -2.796875q0 -1.640625 0.6875 -2.90625q0.6875 -1.28125 2.015625 -1.953125q1.0 -0.53125 2.5 -0.53125q1.953125 0 3.046875 0.828125q1.109375 0.8125 1.421875 2.265625l-2.109375 0.390625q-0.21875 -0.78125 -0.828125 -1.21875q-0.609375 -0.453125 -1.53125 -0.453125q-1.390625 0 -2.203125 0.890625q-0.8125 0.875 -0.8125 2.59375q0 1.875 0.828125 2.8125q0.828125 0.9375 2.171875 0.9375q0.671875 0 1.328125 -0.265625q0.671875 -0.265625 1.15625 -0.640625l0 -1.328125l-2.421875 0zm9.275116 3.859375l0 -4.421875l-3.84375 -6.0625l2.484375 0l2.46875 4.140625l2.40625 -4.140625l2.453125 0l-3.859375 6.078125l0 4.40625l-2.109375 0z" fill-rule="nonzero"/><path fill="#000000" fill-opacity="0.0" d="m216.0 93.0l0.50393677 46.992126" fill-rule="evenodd"/><path stroke="#ffffff" stroke-width="2.0" stroke-linejoin="round" stroke-linecap="butt" d="m216.0 93.0l0.50393677 46.992126" fill-rule="evenodd"/></g></svg>