<svg version="1.1" viewBox="0.0 0.0 304.501312335958 192.501312335958" fill="none" stroke="none" stroke-linecap="square" stroke-miterlimit="10" xmlns:xlink="http://www.w3.org/1999/xlink" xmlns="http://www.w3.org/2000/svg"><clipPath id="p.0"><path d="m0 0l304.5013 0l0 192.50131l-304.5013 0l0 -192.50131z" clip-rule="nonzero"/></clipPath><g clip-path="url(#p.0)"><path fill="#000000" fill-opacity="0.0" d="m0 0l304.5013 0l0 192.50131l-304.5013 0z" fill-rule="evenodd"/><path fill="#ffffff" d="m79.99213 99.93438l-4.031494 10.021004l-50.14961 44.795273l49.572178 -23.574799l-8.650917 47.737534l19.309708 -22.690292l12.679794 -19.451447l9.538055 18.32283l5.7427826 -12.131226l3.1627274 11.026245l1.448822 29.640427l10.375328 -33.593185l2.141739 -7.3202057l17.370071 49.283463l-6.7112885 -52.669296l7.7217865 11.2782135l20.21785 17.666672l-5.881897 -31.199478l-3.6771545 2.632553l44.480316 35.70604l-39.333344 -48.488197l48.88977 7.5196915l-35.656174 -19.548561l45.94751 0.37795258l-42.272964 -14.286087l34.950134 -64.708664l-40.020996 12.82415l7.7427826 -27.559057l-22.154861 21.93701l-6.6640472 5.1758537l-1.0236206 -35.427822l-16.845139 36.015747l-5.7637787 -5.895012l2.3621979 -3.6272964l-8.824142 -37.215225l-12.09449 53.52756l-14.372704 -17.816273l0.73753357 15.034119l-23.19423 -17.603676l12.532814 42.03675l-68.39371 -4.8661423z" fill-rule="evenodd"/><path fill="#ffffff" d="m63.4147 103.02887l-1.2939644 31.091858l-55.28609 42.230972l63.934383 -32.80052l7.490814 -1.4724426l8.648293 -2.950119l6.6272964 8.251968l-7.4776917 34.435684l22.46457 -23.530182l-0.916008 -14.847763l12.9133835 -12.286087l10.771652 6.5852966l5.761154 8.761154l21.908142 41.259842l-8.073486 -48.629913l11.527557 -2.9448853l8.64566 2.9448853l86.17322 33.89238l-79.54329 -53.34121l3.1679688 -6.482933l4.611557 -2.359581l6.9160156 -3.829399l4.902878 -0.88451385l-7.2073517 6.7795258l113.26511 -33.007874l-103.46457 1.178482l-5.18898 5.895012l-0.28871155 -3.829399l-22.18898 -16.797897l-9.51181 -19.157482l7.1312256 -35.002625l-24.422562 33.53018l-22.769035 -0.88713837l-18.157478 -24.456692l-1.438324 31.82677l-14.12336 8.545933l-4.0341187 12.968506l-65.71129 -14.737534l53.895016 33.598427l-7.204727 3.2414627z" fill-rule="evenodd"/><path stroke="#3d7c76" stroke-width="2.0" stroke-linejoin="round" stroke-linecap="butt" d="m63.4147 103.02887l-1.2939644 31.091858l-55.28609 42.230972l63.934383 -32.80052l7.490814 -1.4724426l8.648293 -2.950119l6.6272964 8.251968l-7.4776917 34.435684l22.46457 -23.530182l-0.916008 -14.847763l12.9133835 -12.286087l10.771652 6.5852966l5.761154 8.761154l21.908142 41.259842l-8.073486 -48.629913l11.527557 -2.9448853l8.64566 2.9448853l86.17322 33.89238l-79.54329 -53.34121l3.1679688 -6.482933l4.611557 -2.359581l6.9160156 -3.829399l4.902878 -0.88451385l-7.2073517 6.7795258l113.26511 -33.007874l-103.46457 1.178482l-5.18898 5.895012l-0.28871155 -3.829399l-22.18898 -16.797897l-9.51181 -19.157482l7.1312256 -35.002625l-24.422562 33.53018l-22.769035 -0.88713837l-18.157478 -24.456692l-1.438324 31.82677l-14.12336 8.545933l-4.0341187 12.968506l-65.71129 -14.737534l53.895016 33.598427l-7.204727 3.2414627z" fill-rule="evenodd"/><path fill="#3d7c76" d="m46.8827 116.16601l21.292004 22.081612l-14.698956 19.448654l22.768559 -10.609192l29.972794 3.2424774l-1.1527939 28.291199l19.597595 -27.997284l17.921349 -6.6953278l27.037857 0.80133057l31.700485 15.915344l-18.789734 -25.970718l0.9319153 -14.807709l20.741333 -13.152443l-7.2072754 -14.736542l5.4765625 -12.669785l29.301086 -21.441162l-41.981888 5.819744l0.5779114 -12.669781l10.084732 -22.69422l-22.765533 10.609198l-14.124069 5.0122223l-19.597595 0.8817787l-11.237534 -12.375851l-9.800316 13.260723l-24.786713 8.400112l-27.104416 -11.973637l10.223915 24.983753l-2.7897186 13.882614l-12.075653 9.254044l-19.515903 8.325851l7.4341965 8.328949z" fill-rule="evenodd"/><path stroke="#ffffff" stroke-width="2.0" stroke-linejoin="round" stroke-linecap="butt" d="m46.8827 116.16601l21.292004 22.081612l-14.698956 19.448654l22.768559 -10.609192l29.972794 3.2424774l-1.1527939 28.291199l19.597595 -27.997284l17.921349 -6.6953278l27.037857 0.80133057l31.700485 15.915344l-18.789734 -25.970718l0.9319153 -14.807709l20.741333 -13.152443l-7.2072754 -14.736542l5.4765625 -12.669785l29.301086 -21.441162l-41.981888 5.819744l0.5779114 -12.669781l10.084732 -22.69422l-22.765533 10.609198l-14.124069 5.0122223l-19.597595 0.8817787l-11.237534 -12.375851l-9.800316 13.260723l-24.786713 8.400112l-27.104416 -11.973637l10.223915 24.983753l-2.7897186 13.882614l-12.075653 9.254044l-19.515903 8.325851l7.4341965 8.328949z" fill-rule="evenodd"/><path fill="#000000" fill-opacity="0.0" d="m173.55647 20.125963l59.590546 -21.637794l41.511795 124.18898l-59.59053 21.637794z" fill-rule="evenodd"/><path fill="#3d7c76" d="m225.37369 99.76114q-1.6179962 1.2690582 -2.8518677 1.6672211q-1.2191772 0.39282227 -3.0396729 -0.12638855q-2.31279 -1.1051254 -2.354248 -3.101471q-0.026794434 -2.0016785 1.9049072 -4.6480026q1.3812256 -1.681778 2.1741333 -2.0195541q0.80758667 -0.34311676 2.6853943 -0.24367523q3.5517883 0.7715912 3.942566 3.1231766q0.4054718 2.3462448 -2.4612122 5.348694z" fill-rule="nonzero"/><path fill="#ffffff" d="m150.58864 68.20278l-16.74501 4.6552124l-9.051994 1.2659683l-19.011581 -2.536377l-7.2416 6.3476105l-6.3340225 12.690781l-5.431198 8.883987l-4.9797897 8.888428l1.8104019 16.075584l8.600586 5.925621l13.124214 4.650772l11.765221 3.8112183l17.652596 -8.46199l11.313812 -4.6552124l14.031784 0l5.882614 -13.11721l4.979782 -15.231598l4.07222 -11.846802l-8.59584 -9.305977z" fill-rule="evenodd"/><path fill="#000000" fill-opacity="0.0" d="m155.2 121.636536l131.87401 -31.716537l12.818909 35.46457l-131.87402 31.716537z" fill-rule="evenodd"/><path fill="#ffffff" d="m207.97621 117.37259l2.840866 -0.6832504l1.6989594 12.512108l7.033798 -1.6916656l0.36528015 2.5637817l-9.889862 2.3785858l-2.0490417 -15.079559zm15.583282 -3.747879l2.5522156 -0.61382294l7.320587 13.811714l-2.9472046 0.7088165l-1.749054 -3.4684143l-4.7398376 1.1399689l-0.7120209 4.060318l-2.932022 0.7051697l3.2073364 -16.34375zm4.4103394 8.501259l-2.6741943 -5.4797134l-1.1237488 6.3931503l3.797943 -0.9134369zm5.015091 -10.768135l7.5503235 -1.8159027q0.8203583 -0.19729614 1.5222473 0.09993744q0.71173096 0.27880096 1.2256775 0.8783722q0.5139313 0.5995636 0.786499 1.3536148q0.29927063 0.8279724 0.2384491 1.7104111q-0.045639038 0.8787842 -0.45388794 1.6679993q-0.3930664 0.78556824 -1.1611176 1.3559875q1.0237427 0.09126282 1.7976227 0.7247391q0.7837372 0.615036 1.1631622 1.6647873q0.39013672 1.0793228 0.25953674 2.0428238q-0.13594055 0.9487152 -0.72283936 1.7005463q-0.58688354 0.75183105 -1.4522858 1.2813721q-0.86538696 0.52954865 -1.9440002 0.7889633l-6.7603607 1.6259079l-2.0490265 -15.079559zm8.470825 10.963783q0.394989 -0.09499359 0.7311859 -0.35263062q0.33085632 -0.27241516 0.50193787 -0.66711426q0.18626404 -0.39834595 0.21891785 -0.8561783q0.04786682 -0.46148682 -0.11781311 -0.9198303q-0.15498352 -0.42877197 -0.424469 -0.7175064q-0.25964355 -0.3071823 -0.6025696 -0.43361664q-0.3482666 -0.14122772 -0.71287537 -0.05354309l-4.071411 0.9792023l0.5576172 3.9638824l3.9194794 -0.9426651zm-1.2779388 -6.18515q0.37980652 -0.09133911 0.68562317 -0.34166718q0.30581665 -0.25032806 0.49291992 -0.60066986q0.18174744 -0.36511993 0.19923401 -0.8192978q0.03265381 -0.45783234 -0.14904785 -0.96053314q-0.22979736 -0.6357651 -0.6672363 -0.93231964q-0.42225647 -0.30020905 -0.969162 -0.16867828l-3.6004486 0.8659363l0.51400757 3.7975922l3.49411 -0.84036255z" fill-rule="nonzero"/><path fill="#000000" fill-opacity="0.0" d="m220.48096 29.019554l2.9788513 59.619278" fill-rule="evenodd"/><path stroke="#3d7c76" stroke-width="8.0" stroke-linejoin="round" stroke-linecap="butt" d="m220.48096 29.019554l2.9788513 59.619278" fill-rule="evenodd"/><path fill="#000000" fill-opacity="0.0" d="m228.31355 30.27274l-4.864731 58.397266" fill-rule="evenodd"/><path stroke="#3d7c76" stroke-width="8.0" stroke-linejoin="round" stroke-linecap="butt" d="m228.31355 30.27274l-4.864731 58.397266" fill-rule="evenodd"/><path fill="#000000" fill-opacity="0.0" d="m216.0 29.501312l17.51181 0.36828423" fill-rule="evenodd"/><path stroke="#3d7c76" stroke-width="2.0" stroke-linejoin="round" stroke-linecap="butt" d="m216.0 29.501312l17.51181 0.36828423" fill-rule="evenodd"/><path fill="#000000" fill-opacity="0.0" d="m-41.92828 98.863495l298.4935 -71.65619l35.727722 97.45984l-298.4935 71.65618z" fill-rule="evenodd"/><path fill="#ffffff" d="m55.38033 98.15207l-18.323177 4.398651l-2.360569 -16.67527l55.258205 -13.265251l2.3605728 16.67527l-18.232025 4.37677l7.432129 53.010857l-18.70301 4.4898224l-7.432125 -53.01085zm41.569424 -27.221077l45.473694 -10.916389l2.3605652 16.67527l-26.770676 6.426552l1.4162674 9.815567l22.835594 -5.481903l2.1314087 15.509048l-22.835594 5.481903l1.5390701 11.007324l27.621506 -6.630806l2.3605652 16.67527l-46.33969 11.124283l-9.792709 -69.68612zm55.160156 -13.241718l45.473694 -10.916389l2.3605652 16.67527l-26.770676 6.4265556l1.4162598 9.815567l22.835602 -5.481903l2.1314087 15.509048l-22.835602 5.4818954l1.5390778 11.007324l27.621506 -6.6307983l2.3605652 16.67527l-46.339706 11.124283l-9.792694 -69.68613z" fill-rule="nonzero"/><path fill="#000000" fill-opacity="0.0" d="m-39.85869 100.94747l185.64618 -44.590202l32.93196 89.96008l-185.64618 44.590195z" fill-rule="evenodd"/><path fill="#3d7c76" d="m58.03635 94.323845l-18.504951 4.444687l-1.5691528 -10.743126l48.90594 -11.746674l1.4779968 10.765015l-18.413795 4.422798l7.3581085 52.338295l-11.987198 2.8791962l-7.2669487 -52.36019z" fill-rule="nonzero"/><path fill="#000000" fill-opacity="0.0" d="m16.451881 87.50747l185.64618 -44.5902l32.93196 89.96008l-185.6462 44.590195z" fill-rule="evenodd"/><path fill="#3d7c76" d="m100.09198 73.187706l39.95732 -9.597317l1.5691681 10.743122l-28.137253 6.7582626l2.1530304 15.182655l24.232681 -5.8204193l1.384552 9.967926l-24.232681 5.8204193l2.3273315 16.426346l28.83612 -6.926117l1.4779968 10.765015l-40.732162 9.783432l-8.836105 -63.103325z" fill-rule="nonzero"/><path fill="#000000" fill-opacity="0.0" d="m71.50131 74.06747l185.64618 -44.590195l32.931976 89.960075l-185.64621 44.590195z" fill-rule="evenodd"/><path fill="#3d7c76" d="m155.14142 59.747704l39.95732 -9.597317l1.5691528 10.743126l-28.137253 6.758259l2.1530457 15.182663l24.232666 -5.820427l1.384552 9.967926l-24.232681 5.820427l2.3273315 16.426346l28.83612 -6.9261246l1.4779968 10.765015l-40.732162 9.783424l-8.83609 -63.103317z" fill-rule="nonzero"/><path fill="#000000" fill-opacity="0.0" d="m215.87401 28.750656l3.3753357 60.249344l8.37532 0.12598419l5.6246796 -60.0z" fill-rule="evenodd"/><path stroke="#ffffff" stroke-width="2.0" stroke-linejoin="round" stroke-linecap="butt" d="m215.87401 28.750656l3.3753357 60.249344l8.37532 0.12598419l5.6246796 -60.0z" fill-rule="evenodd"/></g></svg>