<?xml version="1.0" encoding="UTF-8" standalone="no"?>
<svg
   version="1.1"
   width="1080"
   height="220"
   viewBox="0 0 1080 220"
   xml:space="preserve"
   id="svg4"
   sodipodi:docname="vitor_sudbrack_logo.svg"
   inkscape:version="1.3 (0e150ed, 2023-07-21)"
   xmlns:inkscape="http://www.inkscape.org/namespaces/inkscape"
   xmlns:sodipodi="http://sodipodi.sourceforge.net/DTD/sodipodi-0.dtd"
   xmlns="http://www.w3.org/2000/svg"
   xmlns:svg="http://www.w3.org/2000/svg"><sodipodi:namedview
   id="namedview4"
   pagecolor="#ffffff"
   bordercolor="#000000"
   borderopacity="0.25"
   inkscape:showpageshadow="2"
   inkscape:pageopacity="0.0"
   inkscape:pagecheckerboard="0"
   inkscape:deskcolor="#d1d1d1"
   inkscape:zoom="2.3859914"
   inkscape:cx="295.2651"
   inkscape:cy="116.0943"
   inkscape:window-width="1496"
   inkscape:window-height="729"
   inkscape:window-x="0"
   inkscape:window-y="38"
   inkscape:window-maximized="0"
   inkscape:current-layer="SvgjsG4953" />&#10;<desc
   id="desc1">Created with Fabric.js 5.2.4</desc>&#10;<defs
   id="defs1">&#10;</defs>&#10;<g
   transform="translate(540,540)"
   id="7cabcb17-3b4f-44d5-9c44-4de5d8a907b2">&#10;&#10;</g>&#10;<g
   transform="translate(540,540)"
   id="218719d4-652c-42b4-a56e-fde5bac95e04">&#10;</g>&#10;<g
   transform="matrix(1.94,0,0,1.94,540,136.62)"
   id="g4">&#10;<g
   id="g3">&#10;		<g
   transform="matrix(1.36,0,0,1.36,0,-13.72)"
   id="SvgjsG4952">&#10;<rect
   style="opacity:1;fill:#018675;fill-rule:nonzero;stroke:none;stroke-width:1;stroke-linecap:butt;stroke-linejoin:miter;stroke-miterlimit:4;stroke-dasharray:none;stroke-dashoffset:0"
   vector-effect="non-scaling-stroke"
   x="-195"
   y="-34.5"
   rx="0"
   ry="0"
   width="390"
   height="69"
   id="rect2" />&#10;</g>&#10;		<g
   transform="matrix(1.59,0,0,1.59,0,-14.03)"
   id="SvgjsG4953">&#10;<path
   style="opacity:1;fill:#f7fbfc;fill-rule:nonzero;stroke:none;stroke-width:1;stroke-linecap:butt;stroke-linejoin:miter;stroke-miterlimit:4;stroke-dasharray:none;stroke-dashoffset:0"
   vector-effect="non-scaling-stroke"
   transform="translate(-149.64,-24)"
   d="m 21.568,8.224 c 0.09598,0.12801 0.12801,0.32 0.09598,0.48 -0.03199,0.19203 -5.344,20.192 -5.824,21.952 -0.28801,0.992 -1.088,1.696 -2.016,1.696 -0.73596,0 -1.632,-0.448 -1.952,-1.728 -0.544,-2.112 -4.928,-18.592 -5.696,-21.472 h -4.864 l 7.008,29.696 h 4.736 c 0.32,0 0.57596,0.25598 0.57596,0.57596 0,0.31998 -0.25598,0.576 -0.57596,0.576 h -5.184 c -0.063984,0 -0.12801,-0.03199 -0.19199,-0.03199 H 7.647994 c -0.031992,0 -0.096016,-0.06402 -0.12801,-0.09602 H 7.487992 C 7.456,39.83996 7.391976,39.775976 7.359982,39.743942 v -0.03199 c -0.031992,-0.03199 -0.063984,-0.09598 -0.063984,-0.16 L -2e-6,8.70395 c -0.031992,-0.16 0.031992,-0.35199 0.12801,-0.48 0.095976,-0.12797 0.28801,-0.22398 0.448,-0.22398 h 6.048 c 0.25602,0 0.48,0.16 0.54404,0.416 0.031992,0.19199 5.216,19.616 5.824,21.92 0.12801,0.544 0.448,0.864 0.832,0.864 0.35203,0 0.736,-0.25602 0.896,-0.832 0.416,-1.536 4.672,-17.6 5.632,-21.216 h -4.384 l -2.912,11.2 c -0.06402,0.32 -0.38402,0.48 -0.70404,0.416 -0.32,-0.06402 -0.48,-0.38402 -0.41596,-0.70404 l 3.008,-11.616 c 0.06402,-0.25602 0.32,-0.448 0.576,-0.448 h 5.6 c 0.16,0 0.35199,0.096016 0.448,0.22398 z M 31.976,40 h -5.76 C 25.896,40 25.64,39.74398 25.64,39.424 V 18.048 c 0,-2.912 1.632,-3.296 3.008,-3.296 h 0.70398 c 0.32,0 0.576,0.25602 0.576,0.576 0,0.31998 -0.25602,0.57596 -0.576,0.57596 H 28.648 c -1.12,0 -1.856,0.16 -1.856,2.144 v 20.8 h 4.64 v -29.696 h -4.64 v 2.912 c 0,0.32 -0.25598,0.576 -0.57596,0.576 -0.31998,0 -0.576,-0.25602 -0.576,-0.576 v -3.488 c 0,-0.32 0.25602,-0.576 0.576,-0.576 h 5.76 c 0.32,0 0.57596,0.25602 0.57596,0.576 v 30.848 c 0,0.32 -0.25598,0.576 -0.57596,0.576 z M 47.56,40 H 41.736 C 41.416,40 41.16,39.74398 41.16,39.424 V 18.08 c 0,-0.32 0.25602,-0.576 0.576,-0.576 0.31998,0 0.57596,0.25602 0.57596,0.576 v 20.768 h 4.672 V 16.992 c 0,-1.984 -0.73596,-2.144 -1.856,-2.144 h -8.032 c -0.32,0 -0.576,-0.25602 -0.576,-0.576 V 8.576 c 0,-0.32 0.25602,-0.576 0.576,-0.576 h 15.232 c 0.32,0 0.57596,0.25602 0.57596,0.576 V 14.4 c 0,0.32 -0.25598,0.576 -0.57596,0.576 h -1.504 c -0.32,0 -0.57596,-0.25602 -0.57596,-0.576 0,-0.31998 0.25598,-0.576 0.57596,-0.576 h 0.92801 V 9.152 h -14.08 v 4.544 h 7.456 c 1.408,0 3.008,0.38398 3.008,3.296 v 22.432 c 0,0.32 -0.25602,0.576 -0.576,0.576 z m 21.4,0.48 h -0.06398 c -3.936,-0.03297 -4.64,-3.0323 -4.928,-4.3176 l -0.03199,-0.23078 c -0.448,-1.8787 -0.38402,-6.592 -0.35203,-9.7232 v -1.7798 c 0,-4.252 0.09602,-7.4492 0.64,-8.998 0.54404,-1.5491 1.408,-2.3731 2.624,-2.3731 1.472,0 2.272,0.69216 2.816,2.406 0.608,1.9446 0.576,6.2624 0.576,8.3388 0,0.9888 0.03199,6.0316 -0.32,8.108 -0.19199,1.1536 -0.544,2.4061 -1.632,2.9664 -0.28801,0.13184 -0.64,0.03297 -0.768,-0.26371 -0.12801,-0.2966 -0.03199,-0.6592 0.25602,-0.79096 0.512,-0.26371 0.8,-0.857 0.992,-2.1094 0.32,-2.0436 0.35199,-7.3172 0.35199,-7.9104 0,-1.8458 0,-6.1964 -0.544,-7.9764 -0.416,-1.3513 -0.896,-1.582 -1.728,-1.582 -0.48,0 -1.056,0.16476 -1.536,1.5491 -0.512,1.4832 -0.57596,5.0428 -0.57596,8.6356 0,0.49436 -0.03203,1.0876 -0.03203,1.7798 -0.03199,3.0653 -0.06398,7.7456 0.35203,9.4596 l 0.06398,0.2307 c 0.32,1.3514 0.768,3.3949 3.84,3.3949 h 0.06398 c 4.704,-0.03293 6.368,-8.0752 6.368,-14.964 0,-10.646 -2.656,-15.623 -8.416,-15.623 -5.824,0 -8.544,4.7792 -8.544,15.063 0,5.636 0.768,9.7232 2.336,12.492 0.09598,0.13188 0.28801,0.4944 0.64,0.92288 0.19199,0.2307 0.16,0.62624 -0.06402,0.82404 -0.22398,0.19774 -0.60796,0.19774 -0.8,-0.0659 -0.41596,-0.4944 -0.64,-0.88996 -0.73596,-1.0548 -1.728,-2.9993 -2.528,-7.1524 -2.528,-13.118 0,-10.943 3.168,-16.249 9.696,-16.249 8.576,0 9.6,9.5912 9.6,16.81 0,7.8116 -2.016,16.15 -7.616,16.15 z M 98.32,40 h -6.272 c -0.25602,0 -0.48,-0.16 -0.54404,-0.416 l -2.944,-10.944 h -1.056 v 10.784 c 0,0.32 -0.22398,0.576 -0.544,0.576 h -5.824 c -0.32,0 -0.576,-0.25602 -0.576,-0.576 V 24.928 c 0,-2.016 0.864,-2.88 2.88,-2.88 h 4.928 c 1.504,0 2.496,-0.25602 2.496,-4.16 0,-2.752 -0.704,-3.872 -2.496,-3.872 h -0.86402 v 4.864 c 0,0.32 -0.22398,0.576 -0.544,0.576 -0.32002,0 -0.576,-0.25602 -0.576,-0.576 v -5.44 c 0,-0.32 0.25602,-0.576 0.576,-0.576 h 1.408 c 3.648,0 3.648,3.776 3.648,5.024 0,3.904 -0.99204,5.312 -3.648,5.312 h -4.928 c -1.376,0 -1.728,0.35199 -1.728,1.728 v 13.92 h 4.672 V 28.032 c 0,-0.32 0.25602,-0.57596 0.576,-0.57596 h 2.048 c 0.16,0 0.28801,0.09598 0.38398,0.19199 0.06402,0.06398 0.16,0.19199 0.16,0.28801 l 2.944,10.912 h 5.024 l -3.872,-11.776 c -0.03199,-0.06398 -0.03199,-0.16 -0.03199,-0.25598 0,-0.16 0.12797,-0.32 0.25598,-0.416 0.12801,-0.06398 0.25602,-0.19199 0.38402,-0.28801 1.696,-1.376 2.784,-4.352 2.784,-7.744 0,-2.656 -0.576,-4.864 -1.696,-6.56 -1.696,-2.656 -4.256,-2.656 -6.976,-2.656 h -6.656 v 10.496 c 0,0.32 -0.25598,0.57596 -0.57596,0.57596 -0.31998,0 -0.576,-0.25598 -0.576,-0.57596 v -11.072 c 0,-0.32 0.25602,-0.576 0.576,-0.576 h 7.232 c 2.752,0 5.92,0.031992 7.936,3.2 1.248,1.888 1.888,4.288 1.888,7.168 0,3.776 -1.216,7.008 -3.2,8.64 -0.03199,0.03199 -0.09598,0.06398 -0.12801,0.09598 l 4,12.16 c 0.06402,0.16 0,0.35203 -0.09598,0.51204 -0.09602,0.16 -0.25602,0.22398 -0.448,0.22398 z m 27.504,0 c -6.752,0 -8.224,-5.344 -8.992,-8.192 L 116.8,31.67999 c -0.064,-0.28801 0.096,-0.576 0.35199,-0.672 l 4.8,-1.92 c 0.16,-0.06402 0.32,-0.03199 0.48,0.03199 0.16,0.06398 0.25602,0.22398 0.28801,0.38398 0.38398,1.76 0.832,3.36 2.336,3.808 0.76796,0.22402 1.504,0.12801 2.08,-0.32 0.64,-0.48 0.96,-1.248 0.96,-2.112 0,-1.664 -0.96,-2.368 -2.016,-2.88 -0.28801,-0.12801 -0.38398,-0.48 -0.25602,-0.768 0.12801,-0.28801 0.48,-0.38398 0.768,-0.25598 1.248,0.60796 2.656,1.6 2.656,3.904 0,1.248 -0.54404,2.368 -1.44,3.04 -0.86404,0.672 -1.952,0.832 -3.072,0.512 -1.984,-0.57596 -2.656,-2.528 -3.008,-4 l -3.648,1.472 c 0.768,2.752 2.144,6.944 7.744,6.944 1.632,0 3.168,-0.32 4.256,-0.832 2.368,-1.152 3.904,-3.936 3.808,-6.944 -0.096,-2.688 -1.504,-4.832 -3.712,-5.728 -1.184,-0.48 -2.496,-0.8 -3.808,-1.088 -3.776,-0.83204 -7.712,-1.696 -8.576,-6.496 -0.57596,-3.168 0.608,-5.376 1.664,-6.656 1.632,-1.952 4.16,-3.104 6.784,-3.104 4.16,0 7.136,2.56 8.416,7.2 0.064,0.25602 -0.064,0.544 -0.32,0.672 l -4.48,2.112 c -0.16,0.06402 -0.32,0.06402 -0.48,0 -0.16,-0.06398 -0.28801,-0.22398 -0.32,-0.38398 -0.25602,-1.12 -0.70404,-2.464 -1.824,-2.912 -1.024,-0.416 -2.08,0.06398 -2.592,1.088 -0.576,1.184 -0.22398,2.496 0.96,3.328 0.25602,0.19203 0.35199,0.54404 0.16,0.8 -0.19199,0.25602 -0.576,0.32 -0.832,0.12801 -1.664,-1.152 -2.176,-3.072 -1.344,-4.768 0.768,-1.6 2.528,-2.272 4.096,-1.632 1.344,0.54404 1.952,1.792 2.304,3.008 l 3.424,-1.6 c -0.86404,-2.784 -2.784,-5.888 -7.168,-5.888 -2.272,0 -4.48,0.992 -5.888,2.688 -0.89596,1.088 -1.92,2.976 -1.408,5.696 0.736,4.032 4.128,4.8 7.68,5.6 1.344,0.28797 2.752,0.60796 4,1.12 2.656,1.056 4.32,3.584 4.416,6.784 0.12801,3.456 -1.664,6.688 -4.448,8.032 -1.664,0.8 -3.712,0.928 -4.768,0.928 z M 155.712,8 c 0.32,0 0.608,0.25602 0.608,0.576 V 28.64 c 0,6.208 -0.512,11.36 -6.464,11.36 h -0.032 C 147.392,40 144.8,37.952 144.8,33.44 V 9.12 h -4.608 v 19.52 c 0,5.376 1.024,8.192 3.392,9.44 0.28801,0.12801 0.35203,0.48 0.19203,0.736 -0.16,0.25598 -0.48,0.41596 -0.768,0.25598 -2.784,-1.472 -3.968,-4.576 -3.968,-10.432 v -20.064 c 0,-0.32 0.25602,-0.576 0.576,-0.576 h 5.76 c 0.32,0 0.57596,0.25602 0.57596,0.576 v 24.864 c 0,3.776 1.952,5.44 3.904,5.44 4.512,0 5.28,-3.296 5.28,-10.24 v -19.52 h -4.576 v 19.328 c 0,2.464 -0.096,4.416 -1.12,5.44 -0.22398,0.22398 -0.608,0.25598 -0.832,0.03199 -0.22402,-0.22398 -0.22402,-0.576 0,-0.8 0.73596,-0.736 0.8,-2.624 0.8,-4.672 v -19.872 c 0,-0.32 0.25598,-0.576 0.57596,-0.576 h 5.728 z m 19.104,2.048 c 2.976,2.336 4.544,7.04 4.544,13.568 0,6.72 -1.44,11.392 -4.416,14.24 C 173.856,38.848 171.872,40 168.64,40 h -7.744 c -0.32,0 -0.576,-0.25602 -0.576,-0.576 0,-0.31998 0.25602,-0.57596 0.576,-0.57596 h 7.744 c 2.848,0 4.608,-0.992 5.536,-1.824 2.72,-2.624 4.064,-7.008 4.064,-13.408 0,-4.288 -0.736,-9.984 -4.128,-12.64 -2.144,-1.696 -4.448,-1.824 -7.68,-1.824 h -4.96 v 22.144 c 0,1.984 0.736,2.144 1.888,2.144 h 3.328 0.032 1.728 c 0.96,0 2.272,-0.16 2.784,-1.632 0.576,-1.696 0.70404,-5.728 0.70404,-7.616 0,-9.696 -1.6,-9.664 -3.488,-9.664 h -1.184 v 15.744 c 0,0.32 -0.22398,0.576 -0.544,0.576 -0.32002,0 -0.576,-0.25602 -0.576,-0.576 v -16.32 c 0,-0.32 0.25602,-0.608 0.576,-0.608 h 1.728 c 3.232,0 4.64,1.568 4.64,10.848 0,0.22402 -0.032,5.664 -0.768,7.968 -0.38398,1.12 -1.344,2.432 -3.872,2.432 h -1.728 -3.36 c -1.408,0 -3.04,-0.38398 -3.04,-3.296 v -22.72 c 0,-0.32 0.25602,-0.576 0.576,-0.576 h 5.536 c 3.36,0 5.952,0.12801 8.384,2.048 z M 192.864,40 h -8.928 c -0.32,0 -0.576,-0.25602 -0.576,-0.576 V 17.248 c 0,-0.32 0.25602,-0.576 0.576,-0.576 0.31998,0 0.57596,0.25602 0.57596,0.576 v 21.6 h 8.352 c 1.472,0 4.512,0 6.08,-1.76 0.96,-1.024 2.112,-2.88 2.112,-5.984 0,-5.696 -2.944,-6.816 -4.032,-7.232 -0.22398,-0.06398 -0.38398,-0.28801 -0.38398,-0.512 0,-0.22399 0.096,-0.448 0.32,-0.544 1.216,-0.54404 3.264,-1.472 3.264,-6.24 0,-3.104 -0.992,-4.64 -1.696,-5.504 -1.536,-1.92 -3.232,-1.92 -6.688,-1.92 h -7.328 v 3.808 h 7.328 c 2.4,0 3.776,1.632 3.776,4.48 0,1.12 0,4.16 -3.776,4.16 h -2.976 c -0.16,0 -0.57596,0.06398 -0.57596,0.576 v 2.976 c 0,0.32 0.25598,0.576 0.57596,0.576 h 2.912 c 1.728,0 2.88,0.09598 3.68,1.536 0.32,0.608 0.672,1.536 0.672,2.848 0,3.328 -1.248,4.736 -4.128,4.736 h -4.288 c -0.32,0 -0.57596,-0.22402 -0.57596,-0.54404 0,-0.32002 0.25598,-0.57596 0.57596,-0.57596 h 4.288 c 1.952,0 2.976,-0.608 2.976,-3.616 0,-1.056 -0.28801,-1.824 -0.54404,-2.304 -0.48,-0.832 -0.96,-0.96 -2.656,-0.96 h -2.912 c -0.96,0 -1.728,-0.736 -1.728,-1.696 v -2.976 c 0,-1.12 0.864,-1.728 1.728,-1.728 h 2.976 c 2.432,0 2.624,-1.504 2.624,-3.008 0,-2.24 -0.864,-3.36 -2.624,-3.36 h -7.904 c -0.32,0 -0.576,-0.25602 -0.576,-0.576 V 8.576 c 0,-0.32 0.25602,-0.576 0.576,-0.576 h 7.904 c 3.584,0 5.728,0 7.584,2.336 1.344,1.6 1.952,3.584 1.952,6.24 0,4.256 -1.504,5.92 -2.848,6.72 1.536,0.832 3.68,2.816 3.68,7.808 0,3.456 -1.344,5.6 -2.432,6.784 -1.888,2.112 -5.28,2.112 -6.912,2.112 z m 31.096,0 h -6.272 c -0.25602,0 -0.48,-0.16 -0.54404,-0.416 l -2.944,-10.944 h -1.056 v 10.784 c 0,0.32 -0.22398,0.576 -0.544,0.576 h -5.824 c -0.32,0 -0.576,-0.25602 -0.576,-0.576 V 24.928 c 0,-2.016 0.864,-2.88 2.88,-2.88 h 4.928 c 1.504,0 2.496,-0.25602 2.496,-4.16 0,-2.752 -0.704,-3.872 -2.496,-3.872 h -0.86402 v 4.864 c 0,0.32 -0.22398,0.576 -0.544,0.576 -0.32002,0 -0.576,-0.25602 -0.576,-0.576 v -5.44 c 0,-0.32 0.25602,-0.576 0.576,-0.576 h 1.408 c 3.648,0 3.648,3.776 3.648,5.024 0,3.904 -0.99204,5.312 -3.648,5.312 h -4.928 c -1.376,0 -1.728,0.35199 -1.728,1.728 v 13.92 h 4.672 V 28.032 c 0,-0.32 0.25602,-0.57596 0.576,-0.57596 h 2.048 c 0.16,0 0.28801,0.09598 0.38398,0.19199 0.064,0.06398 0.16,0.19199 0.16,0.28801 l 2.944,10.912 h 5.024 l -3.872,-11.776 c -0.032,-0.06398 -0.032,-0.16 -0.032,-0.25598 0,-0.16 0.12797,-0.32 0.25598,-0.416 0.12801,-0.06398 0.25602,-0.19199 0.38402,-0.28801 1.696,-1.376 2.784,-4.352 2.784,-7.744 0,-2.656 -0.576,-4.864 -1.696,-6.56 -1.696,-2.656 -4.256,-2.656 -6.976,-2.656 h -6.656 v 10.496 c 0,0.32 -0.25598,0.57596 -0.57596,0.57596 -0.31998,0 -0.576,-0.25598 -0.576,-0.57596 v -11.072 c 0,-0.32 0.25602,-0.576 0.576,-0.576 h 7.232 c 2.752,0 5.92,0.031992 7.936,3.2 1.248,1.888 1.888,4.288 1.888,7.168 0,3.776 -1.216,7.008 -3.2,8.64 -0.032,0.03199 -0.096,0.06398 -0.12801,0.09598 l 4,12.16 c 0.064,0.16 0,0.35203 -0.096,0.51204 -0.096,0.16 -0.25602,0.22398 -0.448,0.22398 z m 26.672,-0.704 c 0,0 0,0.35199 -0.096,0.48 -0.096,0.12797 -0.28801,0.22398 -0.448,0.22398 h -5.824 -0.16 c -0.064,0 -0.16,-0.09602 -0.22398,-0.12801 -0.064,-0.06398 -0.096,-0.12801 -0.12801,-0.19199 0,-0.03199 -0.064,-0.12801 -0.064,-0.16 l -0.832,-4.416 -0.32,-1.76 h -2.528 c -0.32,0 -0.576,-0.25598 -0.576,-0.57596 0,-0.31998 0.25602,-0.576 0.576,-0.576 h 2.944 c 0.28801,-0.03199 0.608,0.19199 0.64,0.48 l 0.38402,2.208 0.73596,3.968 h 4.64 l -2.624,-10.944 -4.512,-18.752 h -5.28 l -4.48,18.784 -2.624,10.912 h 4.672 l 1.6,-8.8 c 0.32,-1.76 1.024,-2.848 3.36,-2.848 h 0.064 0.064 1.792 l -1.792,-9.696 -1.248,6.784 c -0.064,0.32 -0.35199,0.512 -0.672,0.448 -0.32,-0.06402 -0.544,-0.32 -0.48,-0.64 l 1.824,-9.856 c 0.032,-0.25602 0.28797,-0.448 0.57596,-0.448 0.28799,0 0.512,0.19199 0.54404,0.448 l 2.496,13.408 v 0.06398 0.19199 c 0,0.06402 -0.096,0.16 -0.12801,0.22402 -0.032,0.06398 -0.12797,0.12801 -0.19199,0.16 -0.064,0.03199 -0.12801,0.06398 -0.19199,0.06398 h -0.064 -2.464 l -0.064,-0.03199 -0.064,0.03199 c -1.6,0 -1.984,0.448 -2.24,1.92 l -1.696,9.248 c 0,0.03199 -0.032,0.12801 -0.032,0.16 -0.032,0.06398 -0.096,0.16 -0.16,0.19199 -0.064,0.06402 -0.16,0.12801 -0.22402,0.12801 h -0.16 -5.856 c -0.16,0 -0.35203,-0.09602 -0.448,-0.22398 -0.096,-0.12801 -0.16,-0.32 -0.12801,-0.48 l 2.784,-11.648 4.608,-19.2 c 0.064,-0.25602 0.32,-0.448 0.576,-0.448 h 6.176 c 0.25602,0 0.48,0.19199 0.54404,0.448 l 4.64,19.2 z m 14.464,1.184 h -0.032 c -1.536,0 -2.944,-0.92288 -3.84,-2.5379 -0.92796,-1.681 -1.024,-6.5592 -1.024,-10.053 v -0.1648 -3.1971 c 0,-2.8675 0.16,-6.9876 0.896,-9.064 0.60796,-1.7139 1.472,-2.4391 2.976,-2.4391 h 0.032 c 2.464,0 2.656,3.5926 2.752,6.8888 l 5.12,-0.42848 c -0.576,-7.1192 -3.296,-10.778 -8.032,-10.778 -2.112,0 -3.872,0.69216 -5.216,2.0765 -3.008,3.0653 -3.616,8.998 -3.616,13.415 0,6.2952 1.12,10.679 3.328,13.019 0.22398,0.23074 0.19199,0.62624 -0.032,0.85696 -0.22402,0.23074 -0.576,0.19777 -0.8,-0.03297 -2.464,-2.6038 -3.648,-7.1524 -3.648,-13.843 0,-4.6472 0.672,-10.91 3.968,-14.272 1.568,-1.615 3.584,-2.4061 5.984,-2.4061 h 0.064 c 3.84,0 8.544,2.1754 9.216,12.459 0,0.32961 -0.22398,0.59324 -0.544,0.6262 l -6.304,0.56032 c -0.16,0 -0.28797,-0.06594 -0.41596,-0.16476 -0.12801,-0.09891 -0.22402,-0.26371 -0.22402,-0.42852 v -0.2307 c -0.064,-2.5709 -0.19199,-6.0976 -1.632,-6.0976 -0.89596,0 -1.408,0.2307 -1.92,1.615 -0.73596,2.1424 -0.8,7.0864 -0.8,8.7012 v 3.1642 0.1648 c 0,6.4932 0.448,8.7344 0.86404,9.4596 0.704,1.2525 1.728,1.9446 2.88,1.9446 h 0.032 c 5.216,-0.03293 6.4,-7.0864 6.656,-10.053 l -4.992,-0.36258 v 0.49442 c -0.032,1.8128 -0.064,4.3176 -1.69601,5.4712 -0.25601,0.19774 -0.608,0.09883 -0.8,-0.1648 -0.19203,-0.26371 -0.12801,-0.62624 0.12797,-0.82404 1.152,-0.79104 1.18401,-2.9664 1.216,-4.5156 0,-0.42844 0,-0.824 0.032,-1.1536 0.032,-0.3296 0.28801,-0.52736 0.608,-0.52736 l 6.176,0.46144 c 0.32,0 0.512,0.29664 0.512,0.62624 -0.16,2.7357 -1.248,11.734 -7.872,11.734 z M 298.728,40 h -6.432 c -0.19203,0 -0.38402,-0.09602 -0.48,-0.25602 -0.25602,-0.41596 -6.496,-10.08 -7.584,-11.872 -0.992,-1.888 -1.12,-3.744 -1.12,-5.44 v -13.28 h -4.8 v 29.696 h 4.8 v -6.176 c 0,-0.32 0.25602,-0.544 0.576,-0.544 0.31998,0 0.57596,0.22398 0.57596,0.544 v 6.752 c 0,0.32 -0.25598,0.576 -0.57596,0.576 h -5.952 c -0.32,0 -0.576,-0.25602 -0.576,-0.576 v -30.848 c 0,-0.32 0.25602,-0.576 0.576,-0.576 h 5.952 c 0.32,0 0.57596,0.25602 0.57596,0.576 v 13.856 c 0,1.792 0.16,3.296 0.96,4.864 0.96,1.568 6.336,9.952 7.36,11.552 h 5.12 c -2.112,-3.456 -9.696,-15.744 -10.752,-17.856 -0.672,-1.344 -0.448,-2.88 -0.22398,-3.552 0.41596,-1.248 4.896,-8.384 5.408,-9.184 0.096,-0.16 0.28797,-0.25602 0.48,-0.25602 h 6.112 c 0.19199,0 0.38398,0.12801 0.48,0.28801 0.096,0.16 0.096,0.41596 0,0.57596 l -7.008,12.384 c -0.16,0.28801 -0.512,0.38398 -0.8,0.22398 -0.288,-0.16 -0.38398,-0.512 -0.22398,-0.8 l 6.56,-11.52 h -4.8 c -1.984,3.136 -4.864,7.84 -5.12,8.64 -0.19203,0.576 -0.32,1.76 0.16,2.688 1.184,2.368 11.136,18.496 11.232,18.656 0.096,0.16 0.096,0.38398 0,0.57596 -0.096,0.19199 -0.28801,0.28801 -0.48,0.28801 z"
   stroke-linecap="round"
   id="path2" />&#10;</g>&#10;		&#10;</g>&#10;</g>&#10;</svg>
