<svg version="1.1" viewBox="0.0 0.0 960.6115485564304 130.40944881889763" fill="none" stroke="none" stroke-linecap="square" stroke-miterlimit="10" xmlns:xlink="http://www.w3.org/1999/xlink" xmlns="http://www.w3.org/2000/svg"><clipPath id="p.0"><path d="m0 0l960.6116 0l0 130.40945l-960.6116 0l0 -130.40945z" clip-rule="nonzero"/></clipPath><g clip-path="url(#p.0)"><defs><linearGradient id="p.1" gradientUnits="userSpaceOnUse" gradientTransform="matrix(11.419847907212947 0.0 0.0 11.419847907212947 0.0 0.0)" spreadMethod="pad" x1="1.1023061136852558E-9" y1="-3.045052921979419E-4" x2="-4.133863382079754E-5" y2="11.419543401845926"><stop offset="0.0" stop-color="#ffffff"/><stop offset="0.4" stop-color="#a4c2f4"/><stop offset="1.0" stop-color="#6d9eeb"/></linearGradient></defs><path fill="url(#p.1)" d="m0 0l960.6116 0l0 130.40945l-960.6116 0z" fill-rule="evenodd"/><g filter="url(#shadowFilter-p.2)"><use xlink:href="#p.2" transform="matrix(1.0 0.0 0.0 1.0 0.0 2.0)"/></g><defs><filter id="shadowFilter-p.2" filterUnits="userSpaceOnUse"><feGaussianBlur in="SourceAlpha" stdDeviation="2.0" result="blur"/><feComponentTransfer in="blur" color-interpolation-filters="sRGB"><feFuncR type="linear" slope="0" intercept="0.0"/><feFuncG type="linear" slope="0" intercept="0.0"/><feFuncB type="linear" slope="0" intercept="0.0"/><feFuncA type="linear" slope="0.5" intercept="0"/></feComponentTransfer></filter></defs><g id="p.2"><path fill="#000000" fill-opacity="0.0" d="m478.5223 25.307087l484.53543 0l0 93.5748l-484.53543 0z" fill-rule="evenodd"/><path fill="#ffffff" d="m565.49695 33.827335l15.359375 0l0 7.875l-1.921875 0l-7.15625 29.468746l-14.34375 0l-4.375 -20.734371l-0.46875 0l-4.609375 20.734371l-14.359375 0l-7.625 -29.468746l-1.921875 0l0 -7.875l17.765625 0l0 7.875l-1.828125 0l1.875 12.234375l0.46875 0l4.5625 -20.109375l13.828125 0l4.21875 20.109375l0.484375 0l1.875 -12.234375l-1.828125 0l0 -7.875zm27.747986 38.01562q-6.8125 0 -10.65625 -3.578125q-3.84375 -3.578125 -3.84375 -10.437496q0 -6.859375 3.84375 -10.4375q3.84375 -3.578125 10.65625 -3.578125q6.765625 0 9.765625 3.53125q3.0 3.53125 3.0 8.75l0 3.46875l-15.546875 0l0 0.28125q0 1.78125 1.046875 2.625q1.0625 0.828125 3.5 0.828125q2.9375 0 5.578125 -0.421875q2.640625 -0.4375 4.609375 -1.109375l0 7.671871q-1.6875 0.921875 -4.9375 1.671875q-3.234375 0.734375 -7.015625 0.734375zm2.78125 -17.562496l0 -0.578125q0 -1.640625 -0.703125 -2.359375q-0.6875 -0.71875 -2.078125 -0.71875q-1.390625 0 -2.09375 0.75q-0.6875 0.734375 -0.6875 2.328125l0 0.578125l5.5625 0zm37.490234 17.562496q-6.046875 0 -11.671875 -1.921875l0 -7.109371l7.78125 0l0 0.484375q0 2.3124962 2.921875 2.3124962q2.59375 0 2.59375 -1.7812462q0 -0.953125 -0.75 -1.4375q-0.734375 -0.484375 -2.609375 -0.8125l-2.390625 -0.4375q-7.546875 -1.34375 -7.546875 -8.546875q0 -4.171875 3.171875 -6.46875q3.171875 -2.3125 8.546875 -2.3125q6.0 0 10.125 2.015625l0 6.671875l-7.296875 0l0 -0.484375q0 -0.953125 -0.65625 -1.453125q-0.640625 -0.515625 -1.890625 -0.515625q-2.390625 0 -2.390625 1.546875q0 0.8125 0.671875 1.25q0.671875 0.421875 2.4375 0.8125l2.734375 0.53125q4.28125 0.8125 6.09375 3.015625q1.828125 2.203125 1.828125 5.671875q0 4.359371 -3.046875 6.671871q-3.046875 2.296875 -8.65625 2.296875zm27.552673 0q-6.8125 0 -10.65625 -3.578125q-3.84375 -3.578125 -3.84375 -10.437496q0 -6.859375 3.84375 -10.4375q3.84375 -3.578125 10.65625 -3.578125q6.765625 0 9.765625 3.53125q3.0 3.53125 3.0 8.75l0 3.46875l-15.546875 0l0 0.28125q0 1.78125 1.046875 2.625q1.0625 0.828125 3.5 0.828125q2.9375 0 5.578125 -0.421875q2.640625 -0.4375 4.609375 -1.109375l0 7.671871q-1.6875 0.921875 -4.9375 1.671875q-3.234375 0.734375 -7.015625 0.734375zm2.78125 -17.562496l0 -0.578125q0 -1.640625 -0.703125 -2.359375q-0.6875 -0.71875 -2.078125 -0.71875q-1.390625 0 -2.09375 0.75q-0.6875 0.734375 -0.6875 2.328125l0 0.578125l5.5625 0zm25.730774 17.562496q-6.8125 0 -10.65625 -3.578125q-3.84375 -3.578125 -3.84375 -10.437496q0 -6.859375 3.84375 -10.4375q3.84375 -3.578125 10.65625 -3.578125q6.765625 0 9.765625 3.53125q3.0 3.53125 3.0 8.75l0 3.46875l-15.546875 0l0 0.28125q0 1.78125 1.046875 2.625q1.0625 0.828125 3.5 0.828125q2.9375 0 5.578125 -0.421875q2.640625 -0.4375 4.609375 -1.109375l0 7.671871q-1.6875 0.921875 -4.9375 1.671875q-3.234375 0.734375 -7.015625 0.734375zm2.78125 -17.562496l0 -0.578125q0 -1.640625 -0.703125 -2.359375q-0.6875 -0.71875 -2.078125 -0.71875q-1.390625 0 -2.09375 0.75q-0.6875 0.734375 -0.6875 2.328125l0 0.578125l5.5625 0zm54.72461 -9.796875l0 7.875l-1.828125 0l-6.296875 16.656246q-2.34375 6.28125 -5.375 9.421875q-3.015625 3.15625 -7.96875 3.15625q-2.015625 0 -4.078125 -0.421875q-2.0625 -0.40625 -3.734375 -1.125l0 -8.6875l6.625 0l0 0.484375q0 1.203125 1.25 1.203125q1.09375 0 1.671875 -1.0625l-7.578125 -19.624996l-1.828125 0l0 -7.875l14.25 0l0 7.875l-1.625 0l2.5 7.484375l2.296875 -7.484375l-1.625 0l0 -7.875l13.34375 0zm15.74231 27.359371q-6.8125 0 -10.65625 -3.578125q-3.84375 -3.578125 -3.84375 -10.437496q0 -6.859375 3.84375 -10.4375q3.84375 -3.578125 10.65625 -3.578125q6.90625 0 10.6875 3.625q3.796875 3.625 3.796875 10.390625q0 6.859371 -3.84375 10.437496q-3.828125 3.578125 -10.640625 3.578125zm0 -8.546871q1.390625 0 2.078125 -0.734375q0.703125 -0.75 0.703125 -2.328125l0 -4.8125q0 -1.578125 -0.703125 -2.3125q-0.6875 -0.75 -2.078125 -0.75q-1.390625 0 -2.09375 0.75q-0.6875 0.734375 -0.6875 2.3125l0 4.8125q0 1.578125 0.6875 2.328125q0.703125 0.734375 2.09375 0.734375zm47.61731 0l0 7.874996l-13.15625 0l0 -3.75q-3.453125 4.421875 -8.640625 4.421875q-3.984375 0 -5.984375 -2.484375q-1.984375 -2.5 -1.984375 -6.874996l0 -10.125l-2.109375 0l0 -7.875l13.15625 0l0 15.75q0 1.578125 0.6875 2.328125q0.703125 0.734375 2.09375 0.734375q1.390625 0 2.078125 -0.734375q0.703125 -0.75 0.703125 -2.328125l0 -7.875l-2.59375 0l0 -7.875l13.640625 0l0 18.8125l2.109375 0zm27.593689 8.546871q-5.09375 0 -7.65625 -2.46875q-2.5625 -2.46875 -2.5625 -8.328121l0 -8.6875l-2.109375 0l0 -7.875q1.8125 0 2.71875 -0.9375q0.921875 -0.9375 0.921875 -2.5625l0 -2.171875l10.171875 0l0 5.671875l6.484375 0l0 7.875l-6.484375 0l0 7.875q0 1.578125 0.6875 2.328125q0.703125 0.734375 2.09375 0.734375q1.828125 0 3.984375 -0.421875l0 7.531246q-1.34375 0.53125 -3.625 0.984375q-2.265625 0.453125 -4.625 0.453125zm41.663696 -8.546871l0 7.874996l-15.171875 0l0 -7.874996l2.015625 0l0 -7.875q0 -1.578125 -0.671875 -2.3125q-0.671875 -0.75 -2.015625 -0.75q-2.875 0 -2.875 3.0625l0 7.875l2.015625 0l0 7.874996l-15.171875 0l0 -7.874996l2.109375 0l0 -21.59375l-2.109375 0l0 -7.875l13.15625 0l0 14.40625q1.78125 -2.21875 3.84375 -3.3125q2.0625 -1.109375 4.796875 -1.109375q3.984375 0 5.96875 2.5q2.0 2.484375 2.0 6.859375l0 10.125l2.109375 0zm15.84552 8.546871q-6.8125 0 -10.65625 -3.578125q-3.84375 -3.578125 -3.84375 -10.437496q0 -6.859375 3.84375 -10.4375q3.84375 -3.578125 10.65625 -3.578125q6.765625 0 9.765625 3.53125q3.0 3.53125 3.0 8.75l0 3.46875l-15.546875 0l0 0.28125q0 1.78125 1.046875 2.625q1.0625 0.828125 3.5 0.828125q2.9375 0 5.578125 -0.421875q2.640625 -0.4375 4.609375 -1.109375l0 7.671871q-1.6875 0.921875 -4.9375 1.671875q-3.234375 0.734375 -7.015625 0.734375zm2.78125 -17.562496l0 -0.578125q0 -1.640625 -0.703125 -2.359375q-0.6875 -0.71875 -2.078125 -0.71875q-1.390625 0 -2.09375 0.75q-0.6875 0.734375 -0.6875 2.328125l0 0.578125l5.5625 0zm43.293335 9.015625l0 7.874996l-15.171875 0l0 -7.874996l2.015625 0l0 -7.875q0 -1.578125 -0.671875 -2.3125q-0.671875 -0.75 -2.015625 -0.75q-2.875 0 -2.875 3.0625l0 7.875l2.015625 0l0 7.874996l-15.171875 0l0 -7.874996l2.109375 0l0 -10.9375l-2.109375 0l0 -7.875l13.15625 0l0 3.75q3.453125 -4.421875 8.640625 -4.421875q3.984375 0 5.96875 2.5q2.0 2.484375 2.0 6.859375l0 10.125l2.109375 0zm2.59552 15.609371l2.5 -7.734375l-2.453125 0l0 -7.874996l7.484375 0l0 7.874996l-3.40625 7.734375l-4.125 0z" fill-rule="nonzero"/><path fill="#ffffff" d="m700.2308 91.43671l-8.25 0l0 -3.734375l-3.078125 0l0 21.59375l3.359375 0l0 7.875l-20.15625 0l0 -7.875l3.359375 0l0 -21.59375l-3.078125 0l0 3.734375l-8.25 0l0 -11.609375l36.09375 0l0 11.609375zm33.408813 17.859375l0 7.875l-15.171875 0l0 -7.875l2.015625 0l0 -7.875q0 -1.578125 -0.671875 -2.3125q-0.671875 -0.75 -2.015625 -0.75q-2.875 0 -2.875 3.0625l0 7.875l2.015625 0l0 7.875l-15.171875 0l0 -7.875l2.109375 0l0 -21.59375l-2.109375 0l0 -7.875l13.15625 0l0 14.40625q1.78125 -2.21875 3.84375 -3.3125q2.0625 -1.109375 4.796875 -1.109375q3.984375 0 5.96875 2.5q2.0 2.484375 2.0 6.859375l0 10.125l2.109375 0zm29.517456 0l0 7.875l-12.671875 0l0 -3.265625q-1.046875 1.53125 -2.953125 2.734375q-1.890625 1.203125 -4.625 1.203125q-3.609375 0 -5.671875 -1.921875q-2.0625 -1.921875 -2.0625 -5.421875q0 -9.078125 15.40625 -9.3125q-0.140625 -1.625 -1.25 -2.21875q-1.09375 -0.609375 -3.734375 -0.609375q-2.15625 0 -4.640625 0.453125q-2.46875 0.453125 -4.53125 1.21875l0 -8.828125q2.546875 -0.625 5.515625 -1.0q2.984375 -0.390625 5.8125 -0.390625q7.15625 0 10.21875 2.59375q3.078125 2.59375 3.078125 8.015625l0 8.875l2.109375 0zm-12.671875 -3.359375q-2.15625 0 -3.34375 0.578125q-1.171875 0.578125 -1.171875 1.921875q0 0.8125 0.5 1.328125q0.515625 0.5 1.421875 0.5q1.25 0 1.921875 -1.0625q0.671875 -1.0625 0.671875 -2.96875l0 -0.296875zm46.08258 3.359375l0 7.875l-15.171875 0l0 -7.875l2.015625 0l0 -7.875q0 -1.578125 -0.671875 -2.3125q-0.671875 -0.75 -2.015625 -0.75q-2.875 0 -2.875 3.0625l0 7.875l2.015625 0l0 7.875l-15.171875 0l0 -7.875l2.109375 0l0 -10.9375l-2.109375 0l0 -7.875l13.15625 0l0 3.75q3.453125 -4.421875 8.640625 -4.421875q3.984375 0 5.96875 2.5q2.0 2.484375 2.0 6.859375l0 10.125l2.109375 0zm30.486206 0l2.0625 0l0 7.875l-11.765625 0l-4.9375 -9.21875l-1.15625 0l0 9.21875l-13.15625 0l0 -7.875l2.109375 0l0 -21.59375l-2.109375 0l0 -7.875l13.15625 0l0 19.484375l1.15625 0l5.953125 -8.828125l10.125 0l0 7.875l-1.96875 0l-4.078125 4.5625l4.609375 6.375zm46.897217 -18.8125l0 7.875l-1.828125 0l-6.296875 16.65625q-2.34375 6.28125 -5.375 9.421875q-3.015625 3.15625 -7.96875 3.15625q-2.015625 0 -4.078125 -0.421875q-2.0625 -0.40625 -3.734375 -1.125l0 -8.6875l6.625 0l0 0.484375q0 1.203125 1.25 1.203125q1.09375 0 1.671875 -1.0625l-7.578125 -19.625l-1.828125 0l0 -7.875l14.25 0l0 7.875l-1.625 0l2.5 7.484375l2.296875 -7.484375l-1.625 0l0 -7.875l13.34375 0zm15.74231 27.359375q-6.8125 0 -10.65625 -3.578125q-3.84375 -3.578125 -3.84375 -10.4375q0 -6.859375 3.84375 -10.4375q3.84375 -3.578125 10.65625 -3.578125q6.90625 0 10.6875 3.625q3.796875 3.625 3.796875 10.390625q0 6.859375 -3.84375 10.4375q-3.828125 3.578125 -10.640625 3.578125zm0 -8.546875q1.390625 0 2.078125 -0.734375q0.703125 -0.75 0.703125 -2.328125l0 -4.8125q0 -1.578125 -0.703125 -2.3125q-0.6875 -0.75 -2.078125 -0.75q-1.390625 0 -2.09375 0.75q-0.6875 0.734375 -0.6875 2.3125l0 4.8125q0 1.578125 0.6875 2.328125q0.703125 0.734375 2.09375 0.734375zm47.61731 0l0 7.875l-13.15625 0l0 -3.75q-3.453125 4.421875 -8.640625 4.421875q-3.984375 0 -5.984375 -2.484375q-1.984375 -2.5 -1.984375 -6.875l0 -10.125l-2.109375 0l0 -7.875l13.15625 0l0 15.75q0 1.578125 0.6875 2.328125q0.703125 0.734375 2.09375 0.734375q1.390625 0 2.078125 -0.734375q0.703125 -0.75 0.703125 -2.328125l0 -7.875l-2.59375 0l0 -7.875l13.640625 0l0 18.8125l2.109375 0zm3.6467896 -2.640625l-2.21875 -24.421875l0 -2.40625l14.359375 0l0 2.40625l-2.25 24.421875l-9.890625 0zm-0.484375 10.515625l0 -7.875l10.84375 0l0 7.875l-10.84375 0z" fill-rule="nonzero"/></g></g></svg>